M48
; DRILL file {KiCad (5.1.9)-1} date 06/15/21 18:17:35
; FORMAT={-:-/ absolute / inch / decimal}
; #@! TF.CreationDate,2021-06-15T18:17:35-05:00
; #@! TF.GenerationSoftware,Kicad,Pcbnew,(5.1.9)-1
; #@! TF.FileFunction,Plated,1,4,PTH
FMAT,2
INCH
T1C0.0157
T2C0.0354
T3C0.0394
T4C0.0433
%
G90
G05
T1
X4.92Y-3.75
X5.02Y-2.83
X5.04Y-3.25
X5.06Y-3.95
X5.09Y-3.41
X5.15Y-3.71
X5.15Y-4.06
X5.18Y-2.97
X5.2Y-3.71
X5.39Y-4.41
X5.47Y-3.5
X5.55Y-2.85
X5.57Y-4.12
X5.57Y-4.29
X5.58Y-3.61
X5.65Y-3.85
X5.65Y-4.44
X5.72Y-3.03
X5.72Y-3.15
X5.83Y-3.09
X5.85Y-3.44
X5.85Y-3.81
X5.87Y-3.38
X5.98Y-3.98
X5.98Y-4.11
X5.99Y-3.37
X6.04Y-2.78
X6.12Y-3.67
X6.13Y-2.78
X6.19Y-3.46
X6.22Y-3.51
X6.29Y-3.83
X6.39Y-3.13
X6.39Y-3.66
X6.47Y-3.52
X6.6Y-3.7
X6.61Y-4.0
X6.69Y-3.99
X6.71Y-3.18
X6.72Y-3.34
X6.72Y-3.41
X6.77Y-2.93
X6.78Y-3.99
X6.79Y-3.16
X6.84Y-3.54
X6.9Y-2.83
X6.9Y-2.94
X6.94Y-3.0
X7.06Y-2.98
X7.24Y-2.78
X7.27Y-3.82
X7.32Y-3.16
X7.32Y-3.66
T2
X6.5372Y-4.3362
X6.8522Y-4.3362
T3
X4.3261Y-3.5493
X4.3261Y-3.6493
X4.3261Y-3.7493
X4.3261Y-3.8493
X5.8285Y-2.89
X5.8285Y-2.99
X5.9285Y-2.89
X5.9285Y-2.99
X6.0285Y-2.89
X6.0285Y-2.99
X6.1285Y-2.89
X6.1285Y-2.99
X6.2285Y-2.89
X6.2285Y-2.99
X6.3285Y-2.89
X6.3285Y-2.99
X7.1939Y-3.9594
X7.1939Y-4.0594
X7.1939Y-4.1594
X7.1939Y-4.2594
X7.1939Y-4.3594
X7.1939Y-4.4594
X7.42Y-4.09
X7.42Y-4.19
T4
X4.8Y-3.05
X4.8Y-3.15
X4.8Y-3.25
T0
M30
