%TF.GenerationSoftware,KiCad,Pcbnew,(5.1.9)-1*%
%TF.CreationDate,2021-06-15T18:17:50-05:00*%
%TF.ProjectId,SLKCAN,534c4b43-414e-42e6-9b69-6361645f7063,rev?*%
%TF.SameCoordinates,Original*%
%TF.FileFunction,Paste,Top*%
%TF.FilePolarity,Positive*%
%FSLAX46Y46*%
G04 Gerber Fmt 4.6, Leading zero omitted, Abs format (unit mm)*
G04 Created by KiCad (PCBNEW (5.1.9)-1) date 2021-06-15 18:17:50*
%MOMM*%
%LPD*%
G01*
G04 APERTURE LIST*
%ADD10R,0.410000X1.570000*%
%ADD11R,1.400000X4.200000*%
%ADD12R,2.000000X2.400000*%
%ADD13R,0.900000X2.000000*%
%ADD14R,2.000000X0.900000*%
%ADD15R,5.000000X5.000000*%
%ADD16R,2.000000X1.500000*%
%ADD17R,2.000000X3.800000*%
%ADD18R,1.500000X1.500000*%
%ADD19R,1.200000X2.200000*%
%ADD20R,1.600000X1.400000*%
%ADD21R,0.700000X1.400000*%
%ADD22R,0.900000X1.200000*%
G04 APERTURE END LIST*
D10*
%TO.C,U6*%
X150294303Y-87539275D03*
X150944303Y-87539275D03*
X151594303Y-87539275D03*
X152244303Y-87539275D03*
X152894303Y-87539275D03*
X153544303Y-87539275D03*
X154194303Y-87539275D03*
X154194303Y-93279275D03*
X153544303Y-93279275D03*
X152894303Y-93279275D03*
X152244303Y-93279275D03*
X151594303Y-93279275D03*
X150944303Y-93279275D03*
X150294303Y-93279275D03*
%TD*%
D11*
%TO.C,L4*%
X119686989Y-95147279D03*
X123586989Y-95147279D03*
%TD*%
%TO.C,L3*%
X116840000Y-102870000D03*
X120740000Y-102870000D03*
%TD*%
%TO.C,L2*%
X116840000Y-109220000D03*
X120740000Y-109220000D03*
%TD*%
%TO.C,L1*%
X119686989Y-88797279D03*
X123586989Y-88797279D03*
%TD*%
D12*
%TO.C,Y1*%
X134802821Y-100487227D03*
X138502821Y-100487227D03*
%TD*%
%TO.C,U5*%
G36*
G01*
X135660000Y-108435000D02*
X135660000Y-108735000D01*
G75*
G02*
X135510000Y-108885000I-150000J0D01*
G01*
X133860000Y-108885000D01*
G75*
G02*
X133710000Y-108735000I0J150000D01*
G01*
X133710000Y-108435000D01*
G75*
G02*
X133860000Y-108285000I150000J0D01*
G01*
X135510000Y-108285000D01*
G75*
G02*
X135660000Y-108435000I0J-150000D01*
G01*
G37*
G36*
G01*
X135660000Y-107165000D02*
X135660000Y-107465000D01*
G75*
G02*
X135510000Y-107615000I-150000J0D01*
G01*
X133860000Y-107615000D01*
G75*
G02*
X133710000Y-107465000I0J150000D01*
G01*
X133710000Y-107165000D01*
G75*
G02*
X133860000Y-107015000I150000J0D01*
G01*
X135510000Y-107015000D01*
G75*
G02*
X135660000Y-107165000I0J-150000D01*
G01*
G37*
G36*
G01*
X135660000Y-105895000D02*
X135660000Y-106195000D01*
G75*
G02*
X135510000Y-106345000I-150000J0D01*
G01*
X133860000Y-106345000D01*
G75*
G02*
X133710000Y-106195000I0J150000D01*
G01*
X133710000Y-105895000D01*
G75*
G02*
X133860000Y-105745000I150000J0D01*
G01*
X135510000Y-105745000D01*
G75*
G02*
X135660000Y-105895000I0J-150000D01*
G01*
G37*
G36*
G01*
X135660000Y-104625000D02*
X135660000Y-104925000D01*
G75*
G02*
X135510000Y-105075000I-150000J0D01*
G01*
X133860000Y-105075000D01*
G75*
G02*
X133710000Y-104925000I0J150000D01*
G01*
X133710000Y-104625000D01*
G75*
G02*
X133860000Y-104475000I150000J0D01*
G01*
X135510000Y-104475000D01*
G75*
G02*
X135660000Y-104625000I0J-150000D01*
G01*
G37*
G36*
G01*
X140610000Y-104625000D02*
X140610000Y-104925000D01*
G75*
G02*
X140460000Y-105075000I-150000J0D01*
G01*
X138810000Y-105075000D01*
G75*
G02*
X138660000Y-104925000I0J150000D01*
G01*
X138660000Y-104625000D01*
G75*
G02*
X138810000Y-104475000I150000J0D01*
G01*
X140460000Y-104475000D01*
G75*
G02*
X140610000Y-104625000I0J-150000D01*
G01*
G37*
G36*
G01*
X140610000Y-105895000D02*
X140610000Y-106195000D01*
G75*
G02*
X140460000Y-106345000I-150000J0D01*
G01*
X138810000Y-106345000D01*
G75*
G02*
X138660000Y-106195000I0J150000D01*
G01*
X138660000Y-105895000D01*
G75*
G02*
X138810000Y-105745000I150000J0D01*
G01*
X140460000Y-105745000D01*
G75*
G02*
X140610000Y-105895000I0J-150000D01*
G01*
G37*
G36*
G01*
X140610000Y-107165000D02*
X140610000Y-107465000D01*
G75*
G02*
X140460000Y-107615000I-150000J0D01*
G01*
X138810000Y-107615000D01*
G75*
G02*
X138660000Y-107465000I0J150000D01*
G01*
X138660000Y-107165000D01*
G75*
G02*
X138810000Y-107015000I150000J0D01*
G01*
X140460000Y-107015000D01*
G75*
G02*
X140610000Y-107165000I0J-150000D01*
G01*
G37*
G36*
G01*
X140610000Y-108435000D02*
X140610000Y-108735000D01*
G75*
G02*
X140460000Y-108885000I-150000J0D01*
G01*
X138810000Y-108885000D01*
G75*
G02*
X138660000Y-108735000I0J150000D01*
G01*
X138660000Y-108435000D01*
G75*
G02*
X138810000Y-108285000I150000J0D01*
G01*
X140460000Y-108285000D01*
G75*
G02*
X140610000Y-108435000I0J-150000D01*
G01*
G37*
%TD*%
%TO.C,U4*%
G36*
G01*
X130960000Y-87815000D02*
X130660000Y-87815000D01*
G75*
G02*
X130510000Y-87665000I0J150000D01*
G01*
X130510000Y-85915000D01*
G75*
G02*
X130660000Y-85765000I150000J0D01*
G01*
X130960000Y-85765000D01*
G75*
G02*
X131110000Y-85915000I0J-150000D01*
G01*
X131110000Y-87665000D01*
G75*
G02*
X130960000Y-87815000I-150000J0D01*
G01*
G37*
G36*
G01*
X132230000Y-87815000D02*
X131930000Y-87815000D01*
G75*
G02*
X131780000Y-87665000I0J150000D01*
G01*
X131780000Y-85915000D01*
G75*
G02*
X131930000Y-85765000I150000J0D01*
G01*
X132230000Y-85765000D01*
G75*
G02*
X132380000Y-85915000I0J-150000D01*
G01*
X132380000Y-87665000D01*
G75*
G02*
X132230000Y-87815000I-150000J0D01*
G01*
G37*
G36*
G01*
X133500000Y-87815000D02*
X133200000Y-87815000D01*
G75*
G02*
X133050000Y-87665000I0J150000D01*
G01*
X133050000Y-85915000D01*
G75*
G02*
X133200000Y-85765000I150000J0D01*
G01*
X133500000Y-85765000D01*
G75*
G02*
X133650000Y-85915000I0J-150000D01*
G01*
X133650000Y-87665000D01*
G75*
G02*
X133500000Y-87815000I-150000J0D01*
G01*
G37*
G36*
G01*
X134770000Y-87815000D02*
X134470000Y-87815000D01*
G75*
G02*
X134320000Y-87665000I0J150000D01*
G01*
X134320000Y-85915000D01*
G75*
G02*
X134470000Y-85765000I150000J0D01*
G01*
X134770000Y-85765000D01*
G75*
G02*
X134920000Y-85915000I0J-150000D01*
G01*
X134920000Y-87665000D01*
G75*
G02*
X134770000Y-87815000I-150000J0D01*
G01*
G37*
G36*
G01*
X136040000Y-87815000D02*
X135740000Y-87815000D01*
G75*
G02*
X135590000Y-87665000I0J150000D01*
G01*
X135590000Y-85915000D01*
G75*
G02*
X135740000Y-85765000I150000J0D01*
G01*
X136040000Y-85765000D01*
G75*
G02*
X136190000Y-85915000I0J-150000D01*
G01*
X136190000Y-87665000D01*
G75*
G02*
X136040000Y-87815000I-150000J0D01*
G01*
G37*
G36*
G01*
X137310000Y-87815000D02*
X137010000Y-87815000D01*
G75*
G02*
X136860000Y-87665000I0J150000D01*
G01*
X136860000Y-85915000D01*
G75*
G02*
X137010000Y-85765000I150000J0D01*
G01*
X137310000Y-85765000D01*
G75*
G02*
X137460000Y-85915000I0J-150000D01*
G01*
X137460000Y-87665000D01*
G75*
G02*
X137310000Y-87815000I-150000J0D01*
G01*
G37*
G36*
G01*
X138580000Y-87815000D02*
X138280000Y-87815000D01*
G75*
G02*
X138130000Y-87665000I0J150000D01*
G01*
X138130000Y-85915000D01*
G75*
G02*
X138280000Y-85765000I150000J0D01*
G01*
X138580000Y-85765000D01*
G75*
G02*
X138730000Y-85915000I0J-150000D01*
G01*
X138730000Y-87665000D01*
G75*
G02*
X138580000Y-87815000I-150000J0D01*
G01*
G37*
G36*
G01*
X139850000Y-87815000D02*
X139550000Y-87815000D01*
G75*
G02*
X139400000Y-87665000I0J150000D01*
G01*
X139400000Y-85915000D01*
G75*
G02*
X139550000Y-85765000I150000J0D01*
G01*
X139850000Y-85765000D01*
G75*
G02*
X140000000Y-85915000I0J-150000D01*
G01*
X140000000Y-87665000D01*
G75*
G02*
X139850000Y-87815000I-150000J0D01*
G01*
G37*
G36*
G01*
X141120000Y-87815000D02*
X140820000Y-87815000D01*
G75*
G02*
X140670000Y-87665000I0J150000D01*
G01*
X140670000Y-85915000D01*
G75*
G02*
X140820000Y-85765000I150000J0D01*
G01*
X141120000Y-85765000D01*
G75*
G02*
X141270000Y-85915000I0J-150000D01*
G01*
X141270000Y-87665000D01*
G75*
G02*
X141120000Y-87815000I-150000J0D01*
G01*
G37*
G36*
G01*
X141120000Y-97115000D02*
X140820000Y-97115000D01*
G75*
G02*
X140670000Y-96965000I0J150000D01*
G01*
X140670000Y-95215000D01*
G75*
G02*
X140820000Y-95065000I150000J0D01*
G01*
X141120000Y-95065000D01*
G75*
G02*
X141270000Y-95215000I0J-150000D01*
G01*
X141270000Y-96965000D01*
G75*
G02*
X141120000Y-97115000I-150000J0D01*
G01*
G37*
G36*
G01*
X139850000Y-97115000D02*
X139550000Y-97115000D01*
G75*
G02*
X139400000Y-96965000I0J150000D01*
G01*
X139400000Y-95215000D01*
G75*
G02*
X139550000Y-95065000I150000J0D01*
G01*
X139850000Y-95065000D01*
G75*
G02*
X140000000Y-95215000I0J-150000D01*
G01*
X140000000Y-96965000D01*
G75*
G02*
X139850000Y-97115000I-150000J0D01*
G01*
G37*
G36*
G01*
X138580000Y-97115000D02*
X138280000Y-97115000D01*
G75*
G02*
X138130000Y-96965000I0J150000D01*
G01*
X138130000Y-95215000D01*
G75*
G02*
X138280000Y-95065000I150000J0D01*
G01*
X138580000Y-95065000D01*
G75*
G02*
X138730000Y-95215000I0J-150000D01*
G01*
X138730000Y-96965000D01*
G75*
G02*
X138580000Y-97115000I-150000J0D01*
G01*
G37*
G36*
G01*
X137310000Y-97115000D02*
X137010000Y-97115000D01*
G75*
G02*
X136860000Y-96965000I0J150000D01*
G01*
X136860000Y-95215000D01*
G75*
G02*
X137010000Y-95065000I150000J0D01*
G01*
X137310000Y-95065000D01*
G75*
G02*
X137460000Y-95215000I0J-150000D01*
G01*
X137460000Y-96965000D01*
G75*
G02*
X137310000Y-97115000I-150000J0D01*
G01*
G37*
G36*
G01*
X136040000Y-97115000D02*
X135740000Y-97115000D01*
G75*
G02*
X135590000Y-96965000I0J150000D01*
G01*
X135590000Y-95215000D01*
G75*
G02*
X135740000Y-95065000I150000J0D01*
G01*
X136040000Y-95065000D01*
G75*
G02*
X136190000Y-95215000I0J-150000D01*
G01*
X136190000Y-96965000D01*
G75*
G02*
X136040000Y-97115000I-150000J0D01*
G01*
G37*
G36*
G01*
X134770000Y-97115000D02*
X134470000Y-97115000D01*
G75*
G02*
X134320000Y-96965000I0J150000D01*
G01*
X134320000Y-95215000D01*
G75*
G02*
X134470000Y-95065000I150000J0D01*
G01*
X134770000Y-95065000D01*
G75*
G02*
X134920000Y-95215000I0J-150000D01*
G01*
X134920000Y-96965000D01*
G75*
G02*
X134770000Y-97115000I-150000J0D01*
G01*
G37*
G36*
G01*
X133500000Y-97115000D02*
X133200000Y-97115000D01*
G75*
G02*
X133050000Y-96965000I0J150000D01*
G01*
X133050000Y-95215000D01*
G75*
G02*
X133200000Y-95065000I150000J0D01*
G01*
X133500000Y-95065000D01*
G75*
G02*
X133650000Y-95215000I0J-150000D01*
G01*
X133650000Y-96965000D01*
G75*
G02*
X133500000Y-97115000I-150000J0D01*
G01*
G37*
G36*
G01*
X132230000Y-97115000D02*
X131930000Y-97115000D01*
G75*
G02*
X131780000Y-96965000I0J150000D01*
G01*
X131780000Y-95215000D01*
G75*
G02*
X131930000Y-95065000I150000J0D01*
G01*
X132230000Y-95065000D01*
G75*
G02*
X132380000Y-95215000I0J-150000D01*
G01*
X132380000Y-96965000D01*
G75*
G02*
X132230000Y-97115000I-150000J0D01*
G01*
G37*
G36*
G01*
X130960000Y-97115000D02*
X130660000Y-97115000D01*
G75*
G02*
X130510000Y-96965000I0J150000D01*
G01*
X130510000Y-95215000D01*
G75*
G02*
X130660000Y-95065000I150000J0D01*
G01*
X130960000Y-95065000D01*
G75*
G02*
X131110000Y-95215000I0J-150000D01*
G01*
X131110000Y-96965000D01*
G75*
G02*
X130960000Y-97115000I-150000J0D01*
G01*
G37*
%TD*%
D13*
%TO.C,U3*%
X185899303Y-95099275D03*
X184629303Y-95099275D03*
X183359303Y-95099275D03*
X182089303Y-95099275D03*
X180819303Y-95099275D03*
X179549303Y-95099275D03*
X178279303Y-95099275D03*
X177009303Y-95099275D03*
X175739303Y-95099275D03*
X174469303Y-95099275D03*
X173199303Y-95099275D03*
X171929303Y-95099275D03*
X170659303Y-95099275D03*
X169389303Y-95099275D03*
D14*
X168389303Y-92314275D03*
X168389303Y-91044275D03*
X168389303Y-89774275D03*
X168389303Y-88504275D03*
X168389303Y-87234275D03*
X168389303Y-85964275D03*
X168389303Y-84694275D03*
X168389303Y-83424275D03*
X168389303Y-82154275D03*
X168389303Y-80884275D03*
D13*
X169389303Y-78099275D03*
X170659303Y-78099275D03*
X171929303Y-78099275D03*
X173199303Y-78099275D03*
X174469303Y-78099275D03*
X175739303Y-78099275D03*
X177009303Y-78099275D03*
X178279303Y-78099275D03*
X179549303Y-78099275D03*
X180819303Y-78099275D03*
X182089303Y-78099275D03*
X183359303Y-78099275D03*
X184629303Y-78099275D03*
X185899303Y-78099275D03*
D15*
X178399303Y-85599275D03*
%TD*%
D16*
%TO.C,U1*%
X132740000Y-77710000D03*
X132740000Y-82310000D03*
X132740000Y-80010000D03*
D17*
X139040000Y-80010000D03*
%TD*%
D18*
%TO.C,SW1*%
X162404303Y-81429275D03*
X162404303Y-89229275D03*
%TD*%
%TO.C,R6*%
G36*
G01*
X163379998Y-95650000D02*
X164280002Y-95650000D01*
G75*
G02*
X164530000Y-95899998I0J-249998D01*
G01*
X164530000Y-96425002D01*
G75*
G02*
X164280002Y-96675000I-249998J0D01*
G01*
X163379998Y-96675000D01*
G75*
G02*
X163130000Y-96425002I0J249998D01*
G01*
X163130000Y-95899998D01*
G75*
G02*
X163379998Y-95650000I249998J0D01*
G01*
G37*
G36*
G01*
X163379998Y-93825000D02*
X164280002Y-93825000D01*
G75*
G02*
X164530000Y-94074998I0J-249998D01*
G01*
X164530000Y-94600002D01*
G75*
G02*
X164280002Y-94850000I-249998J0D01*
G01*
X163379998Y-94850000D01*
G75*
G02*
X163130000Y-94600002I0J249998D01*
G01*
X163130000Y-94074998D01*
G75*
G02*
X163379998Y-93825000I249998J0D01*
G01*
G37*
%TD*%
%TO.C,R5*%
G36*
G01*
X127819998Y-105810000D02*
X128720002Y-105810000D01*
G75*
G02*
X128970000Y-106059998I0J-249998D01*
G01*
X128970000Y-106585002D01*
G75*
G02*
X128720002Y-106835000I-249998J0D01*
G01*
X127819998Y-106835000D01*
G75*
G02*
X127570000Y-106585002I0J249998D01*
G01*
X127570000Y-106059998D01*
G75*
G02*
X127819998Y-105810000I249998J0D01*
G01*
G37*
G36*
G01*
X127819998Y-103985000D02*
X128720002Y-103985000D01*
G75*
G02*
X128970000Y-104234998I0J-249998D01*
G01*
X128970000Y-104760002D01*
G75*
G02*
X128720002Y-105010000I-249998J0D01*
G01*
X127819998Y-105010000D01*
G75*
G02*
X127570000Y-104760002I0J249998D01*
G01*
X127570000Y-104234998D01*
G75*
G02*
X127819998Y-103985000I249998J0D01*
G01*
G37*
%TD*%
%TO.C,R4*%
G36*
G01*
X127819998Y-109620000D02*
X128720002Y-109620000D01*
G75*
G02*
X128970000Y-109869998I0J-249998D01*
G01*
X128970000Y-110395002D01*
G75*
G02*
X128720002Y-110645000I-249998J0D01*
G01*
X127819998Y-110645000D01*
G75*
G02*
X127570000Y-110395002I0J249998D01*
G01*
X127570000Y-109869998D01*
G75*
G02*
X127819998Y-109620000I249998J0D01*
G01*
G37*
G36*
G01*
X127819998Y-107795000D02*
X128720002Y-107795000D01*
G75*
G02*
X128970000Y-108044998I0J-249998D01*
G01*
X128970000Y-108570002D01*
G75*
G02*
X128720002Y-108820000I-249998J0D01*
G01*
X127819998Y-108820000D01*
G75*
G02*
X127570000Y-108570002I0J249998D01*
G01*
X127570000Y-108044998D01*
G75*
G02*
X127819998Y-107795000I249998J0D01*
G01*
G37*
%TD*%
%TO.C,R3*%
G36*
G01*
X127819998Y-90212500D02*
X128720002Y-90212500D01*
G75*
G02*
X128970000Y-90462498I0J-249998D01*
G01*
X128970000Y-90987502D01*
G75*
G02*
X128720002Y-91237500I-249998J0D01*
G01*
X127819998Y-91237500D01*
G75*
G02*
X127570000Y-90987502I0J249998D01*
G01*
X127570000Y-90462498D01*
G75*
G02*
X127819998Y-90212500I249998J0D01*
G01*
G37*
G36*
G01*
X127819998Y-88387500D02*
X128720002Y-88387500D01*
G75*
G02*
X128970000Y-88637498I0J-249998D01*
G01*
X128970000Y-89162502D01*
G75*
G02*
X128720002Y-89412500I-249998J0D01*
G01*
X127819998Y-89412500D01*
G75*
G02*
X127570000Y-89162502I0J249998D01*
G01*
X127570000Y-88637498D01*
G75*
G02*
X127819998Y-88387500I249998J0D01*
G01*
G37*
%TD*%
%TO.C,R2*%
G36*
G01*
X136290000Y-110940002D02*
X136290000Y-110039998D01*
G75*
G02*
X136539998Y-109790000I249998J0D01*
G01*
X137065002Y-109790000D01*
G75*
G02*
X137315000Y-110039998I0J-249998D01*
G01*
X137315000Y-110940002D01*
G75*
G02*
X137065002Y-111190000I-249998J0D01*
G01*
X136539998Y-111190000D01*
G75*
G02*
X136290000Y-110940002I0J249998D01*
G01*
G37*
G36*
G01*
X134465000Y-110940002D02*
X134465000Y-110039998D01*
G75*
G02*
X134714998Y-109790000I249998J0D01*
G01*
X135240002Y-109790000D01*
G75*
G02*
X135490000Y-110039998I0J-249998D01*
G01*
X135490000Y-110940002D01*
G75*
G02*
X135240002Y-111190000I-249998J0D01*
G01*
X134714998Y-111190000D01*
G75*
G02*
X134465000Y-110940002I0J249998D01*
G01*
G37*
%TD*%
%TO.C,R1*%
G36*
G01*
X181921998Y-73298000D02*
X182822002Y-73298000D01*
G75*
G02*
X183072000Y-73547998I0J-249998D01*
G01*
X183072000Y-74073002D01*
G75*
G02*
X182822002Y-74323000I-249998J0D01*
G01*
X181921998Y-74323000D01*
G75*
G02*
X181672000Y-74073002I0J249998D01*
G01*
X181672000Y-73547998D01*
G75*
G02*
X181921998Y-73298000I249998J0D01*
G01*
G37*
G36*
G01*
X181921998Y-71473000D02*
X182822002Y-71473000D01*
G75*
G02*
X183072000Y-71722998I0J-249998D01*
G01*
X183072000Y-72248002D01*
G75*
G02*
X182822002Y-72498000I-249998J0D01*
G01*
X181921998Y-72498000D01*
G75*
G02*
X181672000Y-72248002I0J249998D01*
G01*
X181672000Y-71722998D01*
G75*
G02*
X181921998Y-71473000I249998J0D01*
G01*
G37*
%TD*%
D19*
%TO.C,J3*%
X178744689Y-109740283D03*
X163244689Y-109740283D03*
D20*
X177844689Y-100140283D03*
X162994689Y-100140283D03*
D21*
X164444689Y-99540283D03*
X165544689Y-99540283D03*
X166644689Y-99540283D03*
X167744689Y-99540283D03*
X168844689Y-99540283D03*
X169944689Y-99540283D03*
X171044689Y-99540283D03*
X172144689Y-99540283D03*
X173244689Y-99540283D03*
%TD*%
%TO.C,F1*%
G36*
G01*
X125473750Y-87980000D02*
X125986250Y-87980000D01*
G75*
G02*
X126205000Y-88198750I0J-218750D01*
G01*
X126205000Y-88636250D01*
G75*
G02*
X125986250Y-88855000I-218750J0D01*
G01*
X125473750Y-88855000D01*
G75*
G02*
X125255000Y-88636250I0J218750D01*
G01*
X125255000Y-88198750D01*
G75*
G02*
X125473750Y-87980000I218750J0D01*
G01*
G37*
G36*
G01*
X125473750Y-86405000D02*
X125986250Y-86405000D01*
G75*
G02*
X126205000Y-86623750I0J-218750D01*
G01*
X126205000Y-87061250D01*
G75*
G02*
X125986250Y-87280000I-218750J0D01*
G01*
X125473750Y-87280000D01*
G75*
G02*
X125255000Y-87061250I0J218750D01*
G01*
X125255000Y-86623750D01*
G75*
G02*
X125473750Y-86405000I218750J0D01*
G01*
G37*
%TD*%
%TO.C,D2*%
G36*
G01*
X160833750Y-95700000D02*
X161746250Y-95700000D01*
G75*
G02*
X161990000Y-95943750I0J-243750D01*
G01*
X161990000Y-96431250D01*
G75*
G02*
X161746250Y-96675000I-243750J0D01*
G01*
X160833750Y-96675000D01*
G75*
G02*
X160590000Y-96431250I0J243750D01*
G01*
X160590000Y-95943750D01*
G75*
G02*
X160833750Y-95700000I243750J0D01*
G01*
G37*
G36*
G01*
X160833750Y-93825000D02*
X161746250Y-93825000D01*
G75*
G02*
X161990000Y-94068750I0J-243750D01*
G01*
X161990000Y-94556250D01*
G75*
G02*
X161746250Y-94800000I-243750J0D01*
G01*
X160833750Y-94800000D01*
G75*
G02*
X160590000Y-94556250I0J243750D01*
G01*
X160590000Y-94068750D01*
G75*
G02*
X160833750Y-93825000I243750J0D01*
G01*
G37*
%TD*%
D22*
%TO.C,D1*%
X127380000Y-73660000D03*
X124080000Y-73660000D03*
%TD*%
%TO.C,C16*%
G36*
G01*
X143035000Y-110940000D02*
X143985000Y-110940000D01*
G75*
G02*
X144235000Y-111190000I0J-250000D01*
G01*
X144235000Y-111690000D01*
G75*
G02*
X143985000Y-111940000I-250000J0D01*
G01*
X143035000Y-111940000D01*
G75*
G02*
X142785000Y-111690000I0J250000D01*
G01*
X142785000Y-111190000D01*
G75*
G02*
X143035000Y-110940000I250000J0D01*
G01*
G37*
G36*
G01*
X143035000Y-109040000D02*
X143985000Y-109040000D01*
G75*
G02*
X144235000Y-109290000I0J-250000D01*
G01*
X144235000Y-109790000D01*
G75*
G02*
X143985000Y-110040000I-250000J0D01*
G01*
X143035000Y-110040000D01*
G75*
G02*
X142785000Y-109790000I0J250000D01*
G01*
X142785000Y-109290000D01*
G75*
G02*
X143035000Y-109040000I250000J0D01*
G01*
G37*
%TD*%
%TO.C,C15*%
G36*
G01*
X131285000Y-104960000D02*
X130335000Y-104960000D01*
G75*
G02*
X130085000Y-104710000I0J250000D01*
G01*
X130085000Y-104210000D01*
G75*
G02*
X130335000Y-103960000I250000J0D01*
G01*
X131285000Y-103960000D01*
G75*
G02*
X131535000Y-104210000I0J-250000D01*
G01*
X131535000Y-104710000D01*
G75*
G02*
X131285000Y-104960000I-250000J0D01*
G01*
G37*
G36*
G01*
X131285000Y-106860000D02*
X130335000Y-106860000D01*
G75*
G02*
X130085000Y-106610000I0J250000D01*
G01*
X130085000Y-106110000D01*
G75*
G02*
X130335000Y-105860000I250000J0D01*
G01*
X131285000Y-105860000D01*
G75*
G02*
X131535000Y-106110000I0J-250000D01*
G01*
X131535000Y-106610000D01*
G75*
G02*
X131285000Y-106860000I-250000J0D01*
G01*
G37*
%TD*%
%TO.C,C14*%
G36*
G01*
X143985000Y-106230000D02*
X143035000Y-106230000D01*
G75*
G02*
X142785000Y-105980000I0J250000D01*
G01*
X142785000Y-105480000D01*
G75*
G02*
X143035000Y-105230000I250000J0D01*
G01*
X143985000Y-105230000D01*
G75*
G02*
X144235000Y-105480000I0J-250000D01*
G01*
X144235000Y-105980000D01*
G75*
G02*
X143985000Y-106230000I-250000J0D01*
G01*
G37*
G36*
G01*
X143985000Y-108130000D02*
X143035000Y-108130000D01*
G75*
G02*
X142785000Y-107880000I0J250000D01*
G01*
X142785000Y-107380000D01*
G75*
G02*
X143035000Y-107130000I250000J0D01*
G01*
X143985000Y-107130000D01*
G75*
G02*
X144235000Y-107380000I0J-250000D01*
G01*
X144235000Y-107880000D01*
G75*
G02*
X143985000Y-108130000I-250000J0D01*
G01*
G37*
%TD*%
%TO.C,C13*%
G36*
G01*
X143985000Y-92260000D02*
X143035000Y-92260000D01*
G75*
G02*
X142785000Y-92010000I0J250000D01*
G01*
X142785000Y-91510000D01*
G75*
G02*
X143035000Y-91260000I250000J0D01*
G01*
X143985000Y-91260000D01*
G75*
G02*
X144235000Y-91510000I0J-250000D01*
G01*
X144235000Y-92010000D01*
G75*
G02*
X143985000Y-92260000I-250000J0D01*
G01*
G37*
G36*
G01*
X143985000Y-94160000D02*
X143035000Y-94160000D01*
G75*
G02*
X142785000Y-93910000I0J250000D01*
G01*
X142785000Y-93410000D01*
G75*
G02*
X143035000Y-93160000I250000J0D01*
G01*
X143985000Y-93160000D01*
G75*
G02*
X144235000Y-93410000I0J-250000D01*
G01*
X144235000Y-93910000D01*
G75*
G02*
X143985000Y-94160000I-250000J0D01*
G01*
G37*
%TD*%
%TO.C,C12*%
G36*
G01*
X146525000Y-92260000D02*
X145575000Y-92260000D01*
G75*
G02*
X145325000Y-92010000I0J250000D01*
G01*
X145325000Y-91510000D01*
G75*
G02*
X145575000Y-91260000I250000J0D01*
G01*
X146525000Y-91260000D01*
G75*
G02*
X146775000Y-91510000I0J-250000D01*
G01*
X146775000Y-92010000D01*
G75*
G02*
X146525000Y-92260000I-250000J0D01*
G01*
G37*
G36*
G01*
X146525000Y-94160000D02*
X145575000Y-94160000D01*
G75*
G02*
X145325000Y-93910000I0J250000D01*
G01*
X145325000Y-93410000D01*
G75*
G02*
X145575000Y-93160000I250000J0D01*
G01*
X146525000Y-93160000D01*
G75*
G02*
X146775000Y-93410000I0J-250000D01*
G01*
X146775000Y-93910000D01*
G75*
G02*
X146525000Y-94160000I-250000J0D01*
G01*
G37*
%TD*%
%TO.C,C11*%
G36*
G01*
X125280000Y-82075000D02*
X125280000Y-83025000D01*
G75*
G02*
X125030000Y-83275000I-250000J0D01*
G01*
X124530000Y-83275000D01*
G75*
G02*
X124280000Y-83025000I0J250000D01*
G01*
X124280000Y-82075000D01*
G75*
G02*
X124530000Y-81825000I250000J0D01*
G01*
X125030000Y-81825000D01*
G75*
G02*
X125280000Y-82075000I0J-250000D01*
G01*
G37*
G36*
G01*
X127180000Y-82075000D02*
X127180000Y-83025000D01*
G75*
G02*
X126930000Y-83275000I-250000J0D01*
G01*
X126430000Y-83275000D01*
G75*
G02*
X126180000Y-83025000I0J250000D01*
G01*
X126180000Y-82075000D01*
G75*
G02*
X126430000Y-81825000I250000J0D01*
G01*
X126930000Y-81825000D01*
G75*
G02*
X127180000Y-82075000I0J-250000D01*
G01*
G37*
%TD*%
%TO.C,C10*%
G36*
G01*
X150524303Y-98824275D02*
X150524303Y-99774275D01*
G75*
G02*
X150274303Y-100024275I-250000J0D01*
G01*
X149774303Y-100024275D01*
G75*
G02*
X149524303Y-99774275I0J250000D01*
G01*
X149524303Y-98824275D01*
G75*
G02*
X149774303Y-98574275I250000J0D01*
G01*
X150274303Y-98574275D01*
G75*
G02*
X150524303Y-98824275I0J-250000D01*
G01*
G37*
G36*
G01*
X152424303Y-98824275D02*
X152424303Y-99774275D01*
G75*
G02*
X152174303Y-100024275I-250000J0D01*
G01*
X151674303Y-100024275D01*
G75*
G02*
X151424303Y-99774275I0J250000D01*
G01*
X151424303Y-98824275D01*
G75*
G02*
X151674303Y-98574275I250000J0D01*
G01*
X152174303Y-98574275D01*
G75*
G02*
X152424303Y-98824275I0J-250000D01*
G01*
G37*
%TD*%
%TO.C,C9*%
G36*
G01*
X150524303Y-96284275D02*
X150524303Y-97234275D01*
G75*
G02*
X150274303Y-97484275I-250000J0D01*
G01*
X149774303Y-97484275D01*
G75*
G02*
X149524303Y-97234275I0J250000D01*
G01*
X149524303Y-96284275D01*
G75*
G02*
X149774303Y-96034275I250000J0D01*
G01*
X150274303Y-96034275D01*
G75*
G02*
X150524303Y-96284275I0J-250000D01*
G01*
G37*
G36*
G01*
X152424303Y-96284275D02*
X152424303Y-97234275D01*
G75*
G02*
X152174303Y-97484275I-250000J0D01*
G01*
X151674303Y-97484275D01*
G75*
G02*
X151424303Y-97234275I0J250000D01*
G01*
X151424303Y-96284275D01*
G75*
G02*
X151674303Y-96034275I250000J0D01*
G01*
X152174303Y-96034275D01*
G75*
G02*
X152424303Y-96284275I0J-250000D01*
G01*
G37*
%TD*%
%TO.C,C8*%
G36*
G01*
X143985000Y-99880000D02*
X143035000Y-99880000D01*
G75*
G02*
X142785000Y-99630000I0J250000D01*
G01*
X142785000Y-99130000D01*
G75*
G02*
X143035000Y-98880000I250000J0D01*
G01*
X143985000Y-98880000D01*
G75*
G02*
X144235000Y-99130000I0J-250000D01*
G01*
X144235000Y-99630000D01*
G75*
G02*
X143985000Y-99880000I-250000J0D01*
G01*
G37*
G36*
G01*
X143985000Y-101780000D02*
X143035000Y-101780000D01*
G75*
G02*
X142785000Y-101530000I0J250000D01*
G01*
X142785000Y-101030000D01*
G75*
G02*
X143035000Y-100780000I250000J0D01*
G01*
X143985000Y-100780000D01*
G75*
G02*
X144235000Y-101030000I0J-250000D01*
G01*
X144235000Y-101530000D01*
G75*
G02*
X143985000Y-101780000I-250000J0D01*
G01*
G37*
%TD*%
%TO.C,C7*%
G36*
G01*
X130360000Y-99855000D02*
X130360000Y-100805000D01*
G75*
G02*
X130110000Y-101055000I-250000J0D01*
G01*
X129610000Y-101055000D01*
G75*
G02*
X129360000Y-100805000I0J250000D01*
G01*
X129360000Y-99855000D01*
G75*
G02*
X129610000Y-99605000I250000J0D01*
G01*
X130110000Y-99605000D01*
G75*
G02*
X130360000Y-99855000I0J-250000D01*
G01*
G37*
G36*
G01*
X132260000Y-99855000D02*
X132260000Y-100805000D01*
G75*
G02*
X132010000Y-101055000I-250000J0D01*
G01*
X131510000Y-101055000D01*
G75*
G02*
X131260000Y-100805000I0J250000D01*
G01*
X131260000Y-99855000D01*
G75*
G02*
X131510000Y-99605000I250000J0D01*
G01*
X132010000Y-99605000D01*
G75*
G02*
X132260000Y-99855000I0J-250000D01*
G01*
G37*
%TD*%
%TO.C,C6*%
G36*
G01*
X184814303Y-72154275D02*
X184814303Y-73104275D01*
G75*
G02*
X184564303Y-73354275I-250000J0D01*
G01*
X184064303Y-73354275D01*
G75*
G02*
X183814303Y-73104275I0J250000D01*
G01*
X183814303Y-72154275D01*
G75*
G02*
X184064303Y-71904275I250000J0D01*
G01*
X184564303Y-71904275D01*
G75*
G02*
X184814303Y-72154275I0J-250000D01*
G01*
G37*
G36*
G01*
X186714303Y-72154275D02*
X186714303Y-73104275D01*
G75*
G02*
X186464303Y-73354275I-250000J0D01*
G01*
X185964303Y-73354275D01*
G75*
G02*
X185714303Y-73104275I0J250000D01*
G01*
X185714303Y-72154275D01*
G75*
G02*
X185964303Y-71904275I250000J0D01*
G01*
X186464303Y-71904275D01*
G75*
G02*
X186714303Y-72154275I0J-250000D01*
G01*
G37*
%TD*%
%TO.C,C5*%
G36*
G01*
X184814303Y-74694275D02*
X184814303Y-75644275D01*
G75*
G02*
X184564303Y-75894275I-250000J0D01*
G01*
X184064303Y-75894275D01*
G75*
G02*
X183814303Y-75644275I0J250000D01*
G01*
X183814303Y-74694275D01*
G75*
G02*
X184064303Y-74444275I250000J0D01*
G01*
X184564303Y-74444275D01*
G75*
G02*
X184814303Y-74694275I0J-250000D01*
G01*
G37*
G36*
G01*
X186714303Y-74694275D02*
X186714303Y-75644275D01*
G75*
G02*
X186464303Y-75894275I-250000J0D01*
G01*
X185964303Y-75894275D01*
G75*
G02*
X185714303Y-75644275I0J250000D01*
G01*
X185714303Y-74694275D01*
G75*
G02*
X185964303Y-74444275I250000J0D01*
G01*
X186464303Y-74444275D01*
G75*
G02*
X186714303Y-74694275I0J-250000D01*
G01*
G37*
%TD*%
%TO.C,C4*%
G36*
G01*
X137980000Y-71915000D02*
X137980000Y-72865000D01*
G75*
G02*
X137730000Y-73115000I-250000J0D01*
G01*
X137230000Y-73115000D01*
G75*
G02*
X136980000Y-72865000I0J250000D01*
G01*
X136980000Y-71915000D01*
G75*
G02*
X137230000Y-71665000I250000J0D01*
G01*
X137730000Y-71665000D01*
G75*
G02*
X137980000Y-71915000I0J-250000D01*
G01*
G37*
G36*
G01*
X139880000Y-71915000D02*
X139880000Y-72865000D01*
G75*
G02*
X139630000Y-73115000I-250000J0D01*
G01*
X139130000Y-73115000D01*
G75*
G02*
X138880000Y-72865000I0J250000D01*
G01*
X138880000Y-71915000D01*
G75*
G02*
X139130000Y-71665000I250000J0D01*
G01*
X139630000Y-71665000D01*
G75*
G02*
X139880000Y-71915000I0J-250000D01*
G01*
G37*
%TD*%
%TO.C,C3*%
G36*
G01*
X126180000Y-80485000D02*
X126180000Y-79535000D01*
G75*
G02*
X126430000Y-79285000I250000J0D01*
G01*
X126930000Y-79285000D01*
G75*
G02*
X127180000Y-79535000I0J-250000D01*
G01*
X127180000Y-80485000D01*
G75*
G02*
X126930000Y-80735000I-250000J0D01*
G01*
X126430000Y-80735000D01*
G75*
G02*
X126180000Y-80485000I0J250000D01*
G01*
G37*
G36*
G01*
X124280000Y-80485000D02*
X124280000Y-79535000D01*
G75*
G02*
X124530000Y-79285000I250000J0D01*
G01*
X125030000Y-79285000D01*
G75*
G02*
X125280000Y-79535000I0J-250000D01*
G01*
X125280000Y-80485000D01*
G75*
G02*
X125030000Y-80735000I-250000J0D01*
G01*
X124530000Y-80735000D01*
G75*
G02*
X124280000Y-80485000I0J250000D01*
G01*
G37*
%TD*%
%TO.C,C2*%
G36*
G01*
X181160000Y-75217000D02*
X181160000Y-76167000D01*
G75*
G02*
X180910000Y-76417000I-250000J0D01*
G01*
X180410000Y-76417000D01*
G75*
G02*
X180160000Y-76167000I0J250000D01*
G01*
X180160000Y-75217000D01*
G75*
G02*
X180410000Y-74967000I250000J0D01*
G01*
X180910000Y-74967000D01*
G75*
G02*
X181160000Y-75217000I0J-250000D01*
G01*
G37*
G36*
G01*
X183060000Y-75217000D02*
X183060000Y-76167000D01*
G75*
G02*
X182810000Y-76417000I-250000J0D01*
G01*
X182310000Y-76417000D01*
G75*
G02*
X182060000Y-76167000I0J250000D01*
G01*
X182060000Y-75217000D01*
G75*
G02*
X182310000Y-74967000I250000J0D01*
G01*
X182810000Y-74967000D01*
G75*
G02*
X183060000Y-75217000I0J-250000D01*
G01*
G37*
%TD*%
%TO.C,C1*%
G36*
G01*
X135070000Y-72865000D02*
X135070000Y-71915000D01*
G75*
G02*
X135320000Y-71665000I250000J0D01*
G01*
X135820000Y-71665000D01*
G75*
G02*
X136070000Y-71915000I0J-250000D01*
G01*
X136070000Y-72865000D01*
G75*
G02*
X135820000Y-73115000I-250000J0D01*
G01*
X135320000Y-73115000D01*
G75*
G02*
X135070000Y-72865000I0J250000D01*
G01*
G37*
G36*
G01*
X133170000Y-72865000D02*
X133170000Y-71915000D01*
G75*
G02*
X133420000Y-71665000I250000J0D01*
G01*
X133920000Y-71665000D01*
G75*
G02*
X134170000Y-71915000I0J-250000D01*
G01*
X134170000Y-72865000D01*
G75*
G02*
X133920000Y-73115000I-250000J0D01*
G01*
X133420000Y-73115000D01*
G75*
G02*
X133170000Y-72865000I0J250000D01*
G01*
G37*
%TD*%
M02*
