%TF.GenerationSoftware,KiCad,Pcbnew,(5.1.9)-1*%
%TF.CreationDate,2021-03-13T19:54:34-06:00*%
%TF.ProjectId,SLKCAN,534c4b43-414e-42e6-9b69-6361645f7063,rev?*%
%TF.SameCoordinates,Original*%
%TF.FileFunction,Copper,L4,Bot*%
%TF.FilePolarity,Positive*%
%FSLAX46Y46*%
G04 Gerber Fmt 4.6, Leading zero omitted, Abs format (unit mm)*
G04 Created by KiCad (PCBNEW (5.1.9)-1) date 2021-03-13 19:54:34*
%MOMM*%
%LPD*%
G01*
G04 APERTURE LIST*
%TA.AperFunction,ComponentPad*%
%ADD10O,2.000000X1.905000*%
%TD*%
%TA.AperFunction,ComponentPad*%
%ADD11R,2.000000X1.905000*%
%TD*%
%TA.AperFunction,ComponentPad*%
%ADD12O,1.700000X1.700000*%
%TD*%
%TA.AperFunction,ComponentPad*%
%ADD13R,1.700000X1.700000*%
%TD*%
%TA.AperFunction,ComponentPad*%
%ADD14C,0.450000*%
%TD*%
%TA.AperFunction,ViaPad*%
%ADD15C,0.800000*%
%TD*%
%TA.AperFunction,Conductor*%
%ADD16C,0.508000*%
%TD*%
%TA.AperFunction,Conductor*%
%ADD17C,0.250000*%
%TD*%
G04 APERTURE END LIST*
D10*
%TO.P,U2,3*%
%TO.N,Net-(C1-Pad1)*%
X121920000Y-77470000D03*
%TO.P,U2,2*%
%TO.N,+5V*%
X121920000Y-80010000D03*
D11*
%TO.P,U2,1*%
%TO.N,GND*%
X121920000Y-82550000D03*
%TD*%
D12*
%TO.P,JP1,2*%
%TO.N,+5V*%
X188468000Y-103886000D03*
D13*
%TO.P,JP1,1*%
%TO.N,Net-(J1-Pad3)*%
X188468000Y-106426000D03*
%TD*%
D12*
%TO.P,J4,12*%
%TO.N,+5V*%
X148044993Y-75946495D03*
%TO.P,J4,11*%
%TO.N,GND*%
X148044993Y-73406495D03*
%TO.P,J4,10*%
%TO.N,+3V3*%
X150584993Y-75946495D03*
%TO.P,J4,9*%
%TO.N,AUX8*%
X150584993Y-73406495D03*
%TO.P,J4,8*%
%TO.N,AUX7*%
X153124993Y-75946495D03*
%TO.P,J4,7*%
%TO.N,AUX6*%
X153124993Y-73406495D03*
%TO.P,J4,6*%
%TO.N,AUX5*%
X155664993Y-75946495D03*
%TO.P,J4,5*%
%TO.N,AUX4*%
X155664993Y-73406495D03*
%TO.P,J4,4*%
%TO.N,AUX3*%
X158204993Y-75946495D03*
%TO.P,J4,3*%
%TO.N,AUX2*%
X158204993Y-73406495D03*
%TO.P,J4,2*%
%TO.N,AUX1*%
X160744993Y-75946495D03*
D13*
%TO.P,J4,1*%
%TO.N,AUX0*%
X160744993Y-73406495D03*
%TD*%
D14*
%TO.P,J3,15*%
%TO.N,N/C*%
X174044689Y-110140283D03*
%TO.P,J3,14*%
X166044689Y-110140283D03*
%TD*%
D12*
%TO.P,J2,4*%
%TO.N,Net-(J2-Pad4)*%
X109883783Y-90152253D03*
%TO.P,J2,3*%
%TO.N,Net-(J2-Pad3)*%
X109883783Y-92692253D03*
%TO.P,J2,2*%
%TO.N,Net-(J2-Pad2)*%
X109883783Y-95232253D03*
D13*
%TO.P,J2,1*%
%TO.N,Net-(J2-Pad1)*%
X109883783Y-97772253D03*
%TD*%
D12*
%TO.P,J1,6*%
%TO.N,Net-(J1-Pad6)*%
X182724303Y-113269275D03*
%TO.P,J1,5*%
%TO.N,UART0_TXD*%
X182724303Y-110729275D03*
%TO.P,J1,4*%
%TO.N,UART0_RXD*%
X182724303Y-108189275D03*
%TO.P,J1,3*%
%TO.N,Net-(J1-Pad3)*%
X182724303Y-105649275D03*
%TO.P,J1,2*%
%TO.N,Net-(J1-Pad2)*%
X182724303Y-103109275D03*
D13*
%TO.P,J1,1*%
%TO.N,GND*%
X182724303Y-100569275D03*
%TD*%
D15*
%TO.N,AUX5*%
X176276000Y-76200000D03*
%TO.N,AUX8*%
X175260000Y-74676000D03*
X175260000Y-71882000D03*
%TO.N,AUX6*%
X153416000Y-70612000D03*
X155702000Y-70612000D03*
%TO.N,AUX4*%
X172466000Y-80264000D03*
%TO.N,AUX1*%
X170688000Y-86614000D03*
%TO.N,AUX2*%
X170688000Y-84836000D03*
%TO.N,AUX0*%
X173736000Y-89916000D03*
%TO.N,GND*%
X130810000Y-103124000D03*
X128524000Y-100330000D03*
X143510000Y-97790000D03*
X124968000Y-95250000D03*
X131572000Y-75438000D03*
X136906000Y-112014000D03*
X151892000Y-101092000D03*
%TO.N,+3V3*%
X148590000Y-96774000D03*
%TO.N,+5V*%
X141732000Y-91694000D03*
%TO.N,GND*%
X170434000Y-80772000D03*
X162306000Y-79502000D03*
X185928000Y-80264000D03*
X185928000Y-92964000D03*
X155448000Y-93218000D03*
X167894000Y-101600000D03*
X179324000Y-75692000D03*
%TO.N,GPIO12_MISO*%
X157988000Y-89154000D03*
X157226000Y-87884000D03*
%TO.N,+3V3*%
X183896000Y-70612000D03*
%TO.N,+5V*%
X151892000Y-104394000D03*
%TO.N,GPIO23_VMOSI*%
X172212000Y-101346000D03*
X184658000Y-97028000D03*
%TO.N,Net-(SW1-Pad1)*%
X167640000Y-93980000D03*
X164338000Y-89408000D03*
%TO.N,+3V3*%
X169926000Y-101346000D03*
X162306000Y-92964000D03*
%TO.N,CAN_\u002AINT*%
X170688000Y-92456000D03*
X138938000Y-88900000D03*
%TO.N,CAN_SO*%
X149098000Y-85852000D03*
%TO.N,+5V*%
X148590000Y-87376000D03*
%TO.N,CAN_SO*%
X152146000Y-85598000D03*
%TO.N,Net-(U4-Pad1)*%
X130810000Y-94234000D03*
%TO.N,Net-(U4-Pad2)*%
X132080000Y-94234000D03*
X141478000Y-104648000D03*
%TO.N,Net-(U4-Pad1)*%
X141478000Y-108966000D03*
%TO.N,+3V3*%
X143510000Y-112776000D03*
%TO.N,+5V*%
X129286000Y-86614000D03*
X148082000Y-78486000D03*
%TO.N,+3V3*%
X140970000Y-72390000D03*
%TO.N,Net-(C11-Pad1)*%
X127508000Y-71882000D03*
X128016000Y-82550000D03*
%TO.N,AUX4*%
X171958000Y-74422000D03*
%TD*%
D16*
%TO.N,+5V*%
X123952000Y-80010000D02*
X121920000Y-80010000D01*
X124780000Y-80010000D02*
X123952000Y-80010000D01*
X124714000Y-83312000D02*
X124780000Y-80010000D01*
X127606079Y-83404001D02*
X124714000Y-83312000D01*
X134874000Y-78486000D02*
X129955999Y-83404001D01*
X148082000Y-78486000D02*
X134874000Y-78486000D01*
X129286000Y-83566000D02*
X129447999Y-83404001D01*
X129286000Y-86614000D02*
X129286000Y-83566000D01*
X129447999Y-83404001D02*
X127606079Y-83404001D01*
X129955999Y-83404001D02*
X129447999Y-83404001D01*
X147066000Y-85852000D02*
X148590000Y-87376000D01*
X147066000Y-82804000D02*
X147066000Y-85852000D01*
X148082000Y-81788000D02*
X147066000Y-82804000D01*
X148082000Y-78486000D02*
X148082000Y-81788000D01*
X129286000Y-86614000D02*
X129286000Y-87376000D01*
X133604000Y-91694000D02*
X141732000Y-91694000D01*
X129286000Y-87376000D02*
X133604000Y-91694000D01*
X188468000Y-103886000D02*
X185928000Y-103886000D01*
X185928000Y-103886000D02*
X185928000Y-98044000D01*
X185928000Y-98044000D02*
X181666842Y-98044000D01*
X181666842Y-98044000D02*
X180340000Y-99370842D01*
X180340000Y-99370842D02*
X180340000Y-103886000D01*
X179832000Y-104394000D02*
X151892000Y-104394000D01*
X180340000Y-103886000D02*
X179832000Y-104394000D01*
%TO.N,Net-(J1-Pad3)*%
X182724303Y-105649275D02*
X185151275Y-105649275D01*
X185928000Y-106426000D02*
X188468000Y-106426000D01*
X185151275Y-105649275D02*
X185928000Y-106426000D01*
%TO.N,Net-(SW1-Pad1)*%
X171450000Y-93980000D02*
X167640000Y-93980000D01*
X171958000Y-93472000D02*
X171450000Y-93980000D01*
X171958000Y-91186000D02*
X171958000Y-93472000D01*
X170180000Y-89408000D02*
X171958000Y-91186000D01*
X164338000Y-89408000D02*
X170180000Y-89408000D01*
D17*
%TO.N,CAN_SO*%
X151892000Y-85852000D02*
X152146000Y-85598000D01*
X149098000Y-85852000D02*
X151892000Y-85852000D01*
D16*
%TO.N,CAN_\u002AINT*%
X139954000Y-89916000D02*
X138938000Y-88900000D01*
X156718000Y-89916000D02*
X139954000Y-89916000D01*
X161544000Y-91186000D02*
X157321250Y-90074750D01*
X170688000Y-92456000D02*
X161544000Y-91186000D01*
X157321250Y-90074750D02*
X156718000Y-89916000D01*
%TO.N,Net-(U4-Pad2)*%
X132080000Y-95250000D02*
X141478000Y-104648000D01*
X132080000Y-94234000D02*
X132080000Y-95250000D01*
%TO.N,Net-(U4-Pad1)*%
X130810000Y-98298000D02*
X141478000Y-108966000D01*
X130810000Y-94234000D02*
X130810000Y-98298000D01*
%TO.N,Net-(C11-Pad1)*%
X127508000Y-82042000D02*
X128016000Y-82550000D01*
X127508000Y-71882000D02*
X127508000Y-82042000D01*
D17*
%TO.N,GPIO23_VMOSI*%
X172212000Y-101346000D02*
X179578000Y-101346000D01*
X179578000Y-101346000D02*
X179578000Y-99314000D01*
X181864000Y-97028000D02*
X184658000Y-97028000D01*
X179578000Y-99314000D02*
X181864000Y-97028000D01*
%TO.N,AUX8*%
X175260000Y-71882000D02*
X175260000Y-74676000D01*
%TO.N,AUX6*%
X155702000Y-70612000D02*
X153416000Y-70612000D01*
%TO.N,AUX5*%
X176276000Y-76200000D02*
X174498000Y-76200000D01*
X174498000Y-76200000D02*
X174498000Y-74168000D01*
X174498000Y-74168000D02*
X171704000Y-71374000D01*
X156839994Y-74771494D02*
X155664993Y-75946495D01*
X156839994Y-73032492D02*
X156839994Y-74771494D01*
X158498486Y-71374000D02*
X156839994Y-73032492D01*
X171704000Y-71374000D02*
X158498486Y-71374000D01*
%TO.N,AUX4*%
X171958000Y-79756000D02*
X172466000Y-80264000D01*
X171958000Y-74422000D02*
X171958000Y-79756000D01*
%TO.N,AUX2*%
X170688000Y-84836000D02*
X169418000Y-84836000D01*
X169418000Y-84836000D02*
X162814000Y-78232000D01*
X159379994Y-74581496D02*
X158204993Y-73406495D01*
X161118996Y-74581496D02*
X159379994Y-74581496D01*
X162814000Y-76276500D02*
X161118996Y-74581496D01*
X162814000Y-78232000D02*
X162814000Y-76276500D01*
%TO.N,AUX1*%
X170688000Y-86614000D02*
X165100000Y-86614000D01*
X160744993Y-82258993D02*
X160744993Y-75946495D01*
X165100000Y-86614000D02*
X160744993Y-82258993D01*
%TO.N,AUX0*%
X160745488Y-73406000D02*
X160744993Y-73406495D01*
X172720000Y-73660000D02*
X160745488Y-73406000D01*
X172974000Y-75184000D02*
X172720000Y-73660000D01*
X173482000Y-80010000D02*
X172974000Y-75184000D01*
X173736000Y-89916000D02*
X173482000Y-80010000D01*
%TO.N,GPIO12_MISO*%
X157988000Y-88646000D02*
X157226000Y-87884000D01*
X157988000Y-89154000D02*
X157988000Y-88646000D01*
%TD*%
M02*
