%TF.GenerationSoftware,KiCad,Pcbnew,(5.1.9)-1*%
%TF.CreationDate,2021-03-13T19:54:34-06:00*%
%TF.ProjectId,SLKCAN,534c4b43-414e-42e6-9b69-6361645f7063,rev?*%
%TF.SameCoordinates,Original*%
%TF.FileFunction,Copper,L1,Top*%
%TF.FilePolarity,Positive*%
%FSLAX46Y46*%
G04 Gerber Fmt 4.6, Leading zero omitted, Abs format (unit mm)*
G04 Created by KiCad (PCBNEW (5.1.9)-1) date 2021-03-13 19:54:34*
%MOMM*%
%LPD*%
G01*
G04 APERTURE LIST*
%TA.AperFunction,ComponentPad*%
%ADD10O,2.000000X1.905000*%
%TD*%
%TA.AperFunction,ComponentPad*%
%ADD11R,2.000000X1.905000*%
%TD*%
%TA.AperFunction,SMDPad,CuDef*%
%ADD12R,1.400000X4.200000*%
%TD*%
%TA.AperFunction,SMDPad,CuDef*%
%ADD13R,2.000000X2.400000*%
%TD*%
%TA.AperFunction,SMDPad,CuDef*%
%ADD14R,0.410000X1.570000*%
%TD*%
%TA.AperFunction,SMDPad,CuDef*%
%ADD15R,0.900000X2.000000*%
%TD*%
%TA.AperFunction,SMDPad,CuDef*%
%ADD16R,2.000000X0.900000*%
%TD*%
%TA.AperFunction,SMDPad,CuDef*%
%ADD17R,5.000000X5.000000*%
%TD*%
%TA.AperFunction,SMDPad,CuDef*%
%ADD18R,2.000000X1.500000*%
%TD*%
%TA.AperFunction,SMDPad,CuDef*%
%ADD19R,2.000000X3.800000*%
%TD*%
%TA.AperFunction,SMDPad,CuDef*%
%ADD20C,1.000000*%
%TD*%
%TA.AperFunction,SMDPad,CuDef*%
%ADD21R,1.500000X1.500000*%
%TD*%
%TA.AperFunction,SMDPad,CuDef*%
%ADD22C,0.100000*%
%TD*%
%TA.AperFunction,ComponentPad*%
%ADD23O,1.700000X1.700000*%
%TD*%
%TA.AperFunction,ComponentPad*%
%ADD24R,1.700000X1.700000*%
%TD*%
%TA.AperFunction,SMDPad,CuDef*%
%ADD25R,1.200000X2.200000*%
%TD*%
%TA.AperFunction,SMDPad,CuDef*%
%ADD26R,1.600000X1.400000*%
%TD*%
%TA.AperFunction,ComponentPad*%
%ADD27C,0.450000*%
%TD*%
%TA.AperFunction,SMDPad,CuDef*%
%ADD28R,0.700000X1.400000*%
%TD*%
%TA.AperFunction,SMDPad,CuDef*%
%ADD29R,0.900000X1.200000*%
%TD*%
%TA.AperFunction,ViaPad*%
%ADD30C,0.800000*%
%TD*%
%TA.AperFunction,Conductor*%
%ADD31C,0.508000*%
%TD*%
%TA.AperFunction,Conductor*%
%ADD32C,0.250000*%
%TD*%
G04 APERTURE END LIST*
D10*
%TO.P,U2,3*%
%TO.N,Net-(C1-Pad1)*%
X121920000Y-77470000D03*
%TO.P,U2,2*%
%TO.N,+5V*%
X121920000Y-80010000D03*
D11*
%TO.P,U2,1*%
%TO.N,GND*%
X121920000Y-82550000D03*
%TD*%
D12*
%TO.P,L4,1*%
%TO.N,Net-(J2-Pad4)*%
X119686989Y-95147279D03*
%TO.P,L4,2*%
%TO.N,GND*%
X123586989Y-95147279D03*
%TD*%
%TO.P,L3,1*%
%TO.N,Net-(J2-Pad3)*%
X116840000Y-102870000D03*
%TO.P,L3,2*%
%TO.N,CAN_L*%
X120740000Y-102870000D03*
%TD*%
%TO.P,L2,1*%
%TO.N,Net-(J2-Pad2)*%
X116840000Y-109220000D03*
%TO.P,L2,2*%
%TO.N,CAN_H*%
X120740000Y-109220000D03*
%TD*%
%TO.P,L1,1*%
%TO.N,Net-(J2-Pad1)*%
X119686989Y-88797279D03*
%TO.P,L1,2*%
%TO.N,Net-(F1-Pad2)*%
X123586989Y-88797279D03*
%TD*%
D13*
%TO.P,Y1,2*%
%TO.N,Net-(C7-Pad1)*%
X134802821Y-100487227D03*
%TO.P,Y1,1*%
%TO.N,Net-(C8-Pad1)*%
X138502821Y-100487227D03*
%TD*%
D14*
%TO.P,U6,14*%
%TO.N,+5V*%
X150294303Y-87539275D03*
%TO.P,U6,13*%
%TO.N,CAN_\u002ACS*%
X150944303Y-87539275D03*
%TO.P,U6,12*%
%TO.N,CAN_SCK*%
X151594303Y-87539275D03*
%TO.P,U6,11*%
%TO.N,CAN_SO*%
X152244303Y-87539275D03*
%TO.P,U6,10*%
%TO.N,CAN_SI*%
X152894303Y-87539275D03*
%TO.P,U6,9*%
%TO.N,N/C*%
X153544303Y-87539275D03*
%TO.P,U6,8*%
%TO.N,GPIO26_EN*%
X154194303Y-87539275D03*
%TO.P,U6,7*%
%TO.N,GND*%
X154194303Y-93279275D03*
%TO.P,U6,6*%
%TO.N,N/C*%
X153544303Y-93279275D03*
%TO.P,U6,5*%
%TO.N,GPIO13_MOSI*%
X152894303Y-93279275D03*
%TO.P,U6,4*%
%TO.N,GPIO12_MISO*%
X152244303Y-93279275D03*
%TO.P,U6,3*%
%TO.N,GPIO14_CLK*%
X151594303Y-93279275D03*
%TO.P,U6,2*%
%TO.N,GPIO15_CS*%
X150944303Y-93279275D03*
%TO.P,U6,1*%
%TO.N,+3V3*%
X150294303Y-93279275D03*
%TD*%
%TO.P,U5,8*%
%TO.N,Net-(R2-Pad1)*%
%TA.AperFunction,SMDPad,CuDef*%
G36*
G01*
X135660000Y-108435000D02*
X135660000Y-108735000D01*
G75*
G02*
X135510000Y-108885000I-150000J0D01*
G01*
X133860000Y-108885000D01*
G75*
G02*
X133710000Y-108735000I0J150000D01*
G01*
X133710000Y-108435000D01*
G75*
G02*
X133860000Y-108285000I150000J0D01*
G01*
X135510000Y-108285000D01*
G75*
G02*
X135660000Y-108435000I0J-150000D01*
G01*
G37*
%TD.AperFunction*%
%TO.P,U5,7*%
%TO.N,CAN_H*%
%TA.AperFunction,SMDPad,CuDef*%
G36*
G01*
X135660000Y-107165000D02*
X135660000Y-107465000D01*
G75*
G02*
X135510000Y-107615000I-150000J0D01*
G01*
X133860000Y-107615000D01*
G75*
G02*
X133710000Y-107465000I0J150000D01*
G01*
X133710000Y-107165000D01*
G75*
G02*
X133860000Y-107015000I150000J0D01*
G01*
X135510000Y-107015000D01*
G75*
G02*
X135660000Y-107165000I0J-150000D01*
G01*
G37*
%TD.AperFunction*%
%TO.P,U5,6*%
%TO.N,CAN_L*%
%TA.AperFunction,SMDPad,CuDef*%
G36*
G01*
X135660000Y-105895000D02*
X135660000Y-106195000D01*
G75*
G02*
X135510000Y-106345000I-150000J0D01*
G01*
X133860000Y-106345000D01*
G75*
G02*
X133710000Y-106195000I0J150000D01*
G01*
X133710000Y-105895000D01*
G75*
G02*
X133860000Y-105745000I150000J0D01*
G01*
X135510000Y-105745000D01*
G75*
G02*
X135660000Y-105895000I0J-150000D01*
G01*
G37*
%TD.AperFunction*%
%TO.P,U5,5*%
%TO.N,Net-(U5-Pad5)*%
%TA.AperFunction,SMDPad,CuDef*%
G36*
G01*
X135660000Y-104625000D02*
X135660000Y-104925000D01*
G75*
G02*
X135510000Y-105075000I-150000J0D01*
G01*
X133860000Y-105075000D01*
G75*
G02*
X133710000Y-104925000I0J150000D01*
G01*
X133710000Y-104625000D01*
G75*
G02*
X133860000Y-104475000I150000J0D01*
G01*
X135510000Y-104475000D01*
G75*
G02*
X135660000Y-104625000I0J-150000D01*
G01*
G37*
%TD.AperFunction*%
%TO.P,U5,4*%
%TO.N,Net-(U4-Pad2)*%
%TA.AperFunction,SMDPad,CuDef*%
G36*
G01*
X140610000Y-104625000D02*
X140610000Y-104925000D01*
G75*
G02*
X140460000Y-105075000I-150000J0D01*
G01*
X138810000Y-105075000D01*
G75*
G02*
X138660000Y-104925000I0J150000D01*
G01*
X138660000Y-104625000D01*
G75*
G02*
X138810000Y-104475000I150000J0D01*
G01*
X140460000Y-104475000D01*
G75*
G02*
X140610000Y-104625000I0J-150000D01*
G01*
G37*
%TD.AperFunction*%
%TO.P,U5,3*%
%TO.N,+5V*%
%TA.AperFunction,SMDPad,CuDef*%
G36*
G01*
X140610000Y-105895000D02*
X140610000Y-106195000D01*
G75*
G02*
X140460000Y-106345000I-150000J0D01*
G01*
X138810000Y-106345000D01*
G75*
G02*
X138660000Y-106195000I0J150000D01*
G01*
X138660000Y-105895000D01*
G75*
G02*
X138810000Y-105745000I150000J0D01*
G01*
X140460000Y-105745000D01*
G75*
G02*
X140610000Y-105895000I0J-150000D01*
G01*
G37*
%TD.AperFunction*%
%TO.P,U5,2*%
%TO.N,GND*%
%TA.AperFunction,SMDPad,CuDef*%
G36*
G01*
X140610000Y-107165000D02*
X140610000Y-107465000D01*
G75*
G02*
X140460000Y-107615000I-150000J0D01*
G01*
X138810000Y-107615000D01*
G75*
G02*
X138660000Y-107465000I0J150000D01*
G01*
X138660000Y-107165000D01*
G75*
G02*
X138810000Y-107015000I150000J0D01*
G01*
X140460000Y-107015000D01*
G75*
G02*
X140610000Y-107165000I0J-150000D01*
G01*
G37*
%TD.AperFunction*%
%TO.P,U5,1*%
%TO.N,Net-(U4-Pad1)*%
%TA.AperFunction,SMDPad,CuDef*%
G36*
G01*
X140610000Y-108435000D02*
X140610000Y-108735000D01*
G75*
G02*
X140460000Y-108885000I-150000J0D01*
G01*
X138810000Y-108885000D01*
G75*
G02*
X138660000Y-108735000I0J150000D01*
G01*
X138660000Y-108435000D01*
G75*
G02*
X138810000Y-108285000I150000J0D01*
G01*
X140460000Y-108285000D01*
G75*
G02*
X140610000Y-108435000I0J-150000D01*
G01*
G37*
%TD.AperFunction*%
%TD*%
%TO.P,U4,18*%
%TO.N,+5V*%
%TA.AperFunction,SMDPad,CuDef*%
G36*
G01*
X130960000Y-87815000D02*
X130660000Y-87815000D01*
G75*
G02*
X130510000Y-87665000I0J150000D01*
G01*
X130510000Y-85915000D01*
G75*
G02*
X130660000Y-85765000I150000J0D01*
G01*
X130960000Y-85765000D01*
G75*
G02*
X131110000Y-85915000I0J-150000D01*
G01*
X131110000Y-87665000D01*
G75*
G02*
X130960000Y-87815000I-150000J0D01*
G01*
G37*
%TD.AperFunction*%
%TO.P,U4,17*%
%TO.N,Net-(R3-Pad2)*%
%TA.AperFunction,SMDPad,CuDef*%
G36*
G01*
X132230000Y-87815000D02*
X131930000Y-87815000D01*
G75*
G02*
X131780000Y-87665000I0J150000D01*
G01*
X131780000Y-85915000D01*
G75*
G02*
X131930000Y-85765000I150000J0D01*
G01*
X132230000Y-85765000D01*
G75*
G02*
X132380000Y-85915000I0J-150000D01*
G01*
X132380000Y-87665000D01*
G75*
G02*
X132230000Y-87815000I-150000J0D01*
G01*
G37*
%TD.AperFunction*%
%TO.P,U4,16*%
%TO.N,CAN_\u002ACS*%
%TA.AperFunction,SMDPad,CuDef*%
G36*
G01*
X133500000Y-87815000D02*
X133200000Y-87815000D01*
G75*
G02*
X133050000Y-87665000I0J150000D01*
G01*
X133050000Y-85915000D01*
G75*
G02*
X133200000Y-85765000I150000J0D01*
G01*
X133500000Y-85765000D01*
G75*
G02*
X133650000Y-85915000I0J-150000D01*
G01*
X133650000Y-87665000D01*
G75*
G02*
X133500000Y-87815000I-150000J0D01*
G01*
G37*
%TD.AperFunction*%
%TO.P,U4,15*%
%TO.N,CAN_SO*%
%TA.AperFunction,SMDPad,CuDef*%
G36*
G01*
X134770000Y-87815000D02*
X134470000Y-87815000D01*
G75*
G02*
X134320000Y-87665000I0J150000D01*
G01*
X134320000Y-85915000D01*
G75*
G02*
X134470000Y-85765000I150000J0D01*
G01*
X134770000Y-85765000D01*
G75*
G02*
X134920000Y-85915000I0J-150000D01*
G01*
X134920000Y-87665000D01*
G75*
G02*
X134770000Y-87815000I-150000J0D01*
G01*
G37*
%TD.AperFunction*%
%TO.P,U4,14*%
%TO.N,CAN_SI*%
%TA.AperFunction,SMDPad,CuDef*%
G36*
G01*
X136040000Y-87815000D02*
X135740000Y-87815000D01*
G75*
G02*
X135590000Y-87665000I0J150000D01*
G01*
X135590000Y-85915000D01*
G75*
G02*
X135740000Y-85765000I150000J0D01*
G01*
X136040000Y-85765000D01*
G75*
G02*
X136190000Y-85915000I0J-150000D01*
G01*
X136190000Y-87665000D01*
G75*
G02*
X136040000Y-87815000I-150000J0D01*
G01*
G37*
%TD.AperFunction*%
%TO.P,U4,13*%
%TO.N,CAN_SCK*%
%TA.AperFunction,SMDPad,CuDef*%
G36*
G01*
X137310000Y-87815000D02*
X137010000Y-87815000D01*
G75*
G02*
X136860000Y-87665000I0J150000D01*
G01*
X136860000Y-85915000D01*
G75*
G02*
X137010000Y-85765000I150000J0D01*
G01*
X137310000Y-85765000D01*
G75*
G02*
X137460000Y-85915000I0J-150000D01*
G01*
X137460000Y-87665000D01*
G75*
G02*
X137310000Y-87815000I-150000J0D01*
G01*
G37*
%TD.AperFunction*%
%TO.P,U4,12*%
%TO.N,CAN_\u002AINT*%
%TA.AperFunction,SMDPad,CuDef*%
G36*
G01*
X138580000Y-87815000D02*
X138280000Y-87815000D01*
G75*
G02*
X138130000Y-87665000I0J150000D01*
G01*
X138130000Y-85915000D01*
G75*
G02*
X138280000Y-85765000I150000J0D01*
G01*
X138580000Y-85765000D01*
G75*
G02*
X138730000Y-85915000I0J-150000D01*
G01*
X138730000Y-87665000D01*
G75*
G02*
X138580000Y-87815000I-150000J0D01*
G01*
G37*
%TD.AperFunction*%
%TO.P,U4,11*%
%TO.N,Net-(U4-Pad11)*%
%TA.AperFunction,SMDPad,CuDef*%
G36*
G01*
X139850000Y-87815000D02*
X139550000Y-87815000D01*
G75*
G02*
X139400000Y-87665000I0J150000D01*
G01*
X139400000Y-85915000D01*
G75*
G02*
X139550000Y-85765000I150000J0D01*
G01*
X139850000Y-85765000D01*
G75*
G02*
X140000000Y-85915000I0J-150000D01*
G01*
X140000000Y-87665000D01*
G75*
G02*
X139850000Y-87815000I-150000J0D01*
G01*
G37*
%TD.AperFunction*%
%TO.P,U4,10*%
%TO.N,Net-(U4-Pad10)*%
%TA.AperFunction,SMDPad,CuDef*%
G36*
G01*
X141120000Y-87815000D02*
X140820000Y-87815000D01*
G75*
G02*
X140670000Y-87665000I0J150000D01*
G01*
X140670000Y-85915000D01*
G75*
G02*
X140820000Y-85765000I150000J0D01*
G01*
X141120000Y-85765000D01*
G75*
G02*
X141270000Y-85915000I0J-150000D01*
G01*
X141270000Y-87665000D01*
G75*
G02*
X141120000Y-87815000I-150000J0D01*
G01*
G37*
%TD.AperFunction*%
%TO.P,U4,9*%
%TO.N,GND*%
%TA.AperFunction,SMDPad,CuDef*%
G36*
G01*
X141120000Y-97115000D02*
X140820000Y-97115000D01*
G75*
G02*
X140670000Y-96965000I0J150000D01*
G01*
X140670000Y-95215000D01*
G75*
G02*
X140820000Y-95065000I150000J0D01*
G01*
X141120000Y-95065000D01*
G75*
G02*
X141270000Y-95215000I0J-150000D01*
G01*
X141270000Y-96965000D01*
G75*
G02*
X141120000Y-97115000I-150000J0D01*
G01*
G37*
%TD.AperFunction*%
%TO.P,U4,8*%
%TO.N,Net-(C8-Pad1)*%
%TA.AperFunction,SMDPad,CuDef*%
G36*
G01*
X139850000Y-97115000D02*
X139550000Y-97115000D01*
G75*
G02*
X139400000Y-96965000I0J150000D01*
G01*
X139400000Y-95215000D01*
G75*
G02*
X139550000Y-95065000I150000J0D01*
G01*
X139850000Y-95065000D01*
G75*
G02*
X140000000Y-95215000I0J-150000D01*
G01*
X140000000Y-96965000D01*
G75*
G02*
X139850000Y-97115000I-150000J0D01*
G01*
G37*
%TD.AperFunction*%
%TO.P,U4,7*%
%TO.N,Net-(C7-Pad1)*%
%TA.AperFunction,SMDPad,CuDef*%
G36*
G01*
X138580000Y-97115000D02*
X138280000Y-97115000D01*
G75*
G02*
X138130000Y-96965000I0J150000D01*
G01*
X138130000Y-95215000D01*
G75*
G02*
X138280000Y-95065000I150000J0D01*
G01*
X138580000Y-95065000D01*
G75*
G02*
X138730000Y-95215000I0J-150000D01*
G01*
X138730000Y-96965000D01*
G75*
G02*
X138580000Y-97115000I-150000J0D01*
G01*
G37*
%TD.AperFunction*%
%TO.P,U4,6*%
%TO.N,Net-(U4-Pad6)*%
%TA.AperFunction,SMDPad,CuDef*%
G36*
G01*
X137310000Y-97115000D02*
X137010000Y-97115000D01*
G75*
G02*
X136860000Y-96965000I0J150000D01*
G01*
X136860000Y-95215000D01*
G75*
G02*
X137010000Y-95065000I150000J0D01*
G01*
X137310000Y-95065000D01*
G75*
G02*
X137460000Y-95215000I0J-150000D01*
G01*
X137460000Y-96965000D01*
G75*
G02*
X137310000Y-97115000I-150000J0D01*
G01*
G37*
%TD.AperFunction*%
%TO.P,U4,5*%
%TO.N,Net-(U4-Pad5)*%
%TA.AperFunction,SMDPad,CuDef*%
G36*
G01*
X136040000Y-97115000D02*
X135740000Y-97115000D01*
G75*
G02*
X135590000Y-96965000I0J150000D01*
G01*
X135590000Y-95215000D01*
G75*
G02*
X135740000Y-95065000I150000J0D01*
G01*
X136040000Y-95065000D01*
G75*
G02*
X136190000Y-95215000I0J-150000D01*
G01*
X136190000Y-96965000D01*
G75*
G02*
X136040000Y-97115000I-150000J0D01*
G01*
G37*
%TD.AperFunction*%
%TO.P,U4,4*%
%TO.N,Net-(U4-Pad4)*%
%TA.AperFunction,SMDPad,CuDef*%
G36*
G01*
X134770000Y-97115000D02*
X134470000Y-97115000D01*
G75*
G02*
X134320000Y-96965000I0J150000D01*
G01*
X134320000Y-95215000D01*
G75*
G02*
X134470000Y-95065000I150000J0D01*
G01*
X134770000Y-95065000D01*
G75*
G02*
X134920000Y-95215000I0J-150000D01*
G01*
X134920000Y-96965000D01*
G75*
G02*
X134770000Y-97115000I-150000J0D01*
G01*
G37*
%TD.AperFunction*%
%TO.P,U4,3*%
%TO.N,Net-(U4-Pad3)*%
%TA.AperFunction,SMDPad,CuDef*%
G36*
G01*
X133500000Y-97115000D02*
X133200000Y-97115000D01*
G75*
G02*
X133050000Y-96965000I0J150000D01*
G01*
X133050000Y-95215000D01*
G75*
G02*
X133200000Y-95065000I150000J0D01*
G01*
X133500000Y-95065000D01*
G75*
G02*
X133650000Y-95215000I0J-150000D01*
G01*
X133650000Y-96965000D01*
G75*
G02*
X133500000Y-97115000I-150000J0D01*
G01*
G37*
%TD.AperFunction*%
%TO.P,U4,2*%
%TO.N,Net-(U4-Pad2)*%
%TA.AperFunction,SMDPad,CuDef*%
G36*
G01*
X132230000Y-97115000D02*
X131930000Y-97115000D01*
G75*
G02*
X131780000Y-96965000I0J150000D01*
G01*
X131780000Y-95215000D01*
G75*
G02*
X131930000Y-95065000I150000J0D01*
G01*
X132230000Y-95065000D01*
G75*
G02*
X132380000Y-95215000I0J-150000D01*
G01*
X132380000Y-96965000D01*
G75*
G02*
X132230000Y-97115000I-150000J0D01*
G01*
G37*
%TD.AperFunction*%
%TO.P,U4,1*%
%TO.N,Net-(U4-Pad1)*%
%TA.AperFunction,SMDPad,CuDef*%
G36*
G01*
X130960000Y-97115000D02*
X130660000Y-97115000D01*
G75*
G02*
X130510000Y-96965000I0J150000D01*
G01*
X130510000Y-95215000D01*
G75*
G02*
X130660000Y-95065000I150000J0D01*
G01*
X130960000Y-95065000D01*
G75*
G02*
X131110000Y-95215000I0J-150000D01*
G01*
X131110000Y-96965000D01*
G75*
G02*
X130960000Y-97115000I-150000J0D01*
G01*
G37*
%TD.AperFunction*%
%TD*%
D15*
%TO.P,U3,38*%
%TO.N,GND*%
X185899303Y-95099275D03*
%TO.P,U3,37*%
%TO.N,GPIO23_VMOSI*%
X184629303Y-95099275D03*
%TO.P,U3,36*%
%TO.N,AUX2*%
X183359303Y-95099275D03*
%TO.P,U3,35*%
%TO.N,UART0_TXD*%
X182089303Y-95099275D03*
%TO.P,U3,34*%
%TO.N,UART0_RXD*%
X180819303Y-95099275D03*
%TO.P,U3,33*%
%TO.N,AUX1*%
X179549303Y-95099275D03*
%TO.P,U3,32*%
%TO.N,Net-(U3-Pad32)*%
X178279303Y-95099275D03*
%TO.P,U3,31*%
%TO.N,GPIO19_VMISO*%
X177009303Y-95099275D03*
%TO.P,U3,30*%
%TO.N,GPIO18_VCLK*%
X175739303Y-95099275D03*
%TO.P,U3,29*%
%TO.N,GPIO_VCS*%
X174469303Y-95099275D03*
%TO.P,U3,28*%
%TO.N,SD_DETECT*%
X173199303Y-95099275D03*
%TO.P,U3,27*%
%TO.N,Net-(R6-Pad2)*%
X171929303Y-95099275D03*
%TO.P,U3,26*%
%TO.N,CAN_\u002AINT*%
X170659303Y-95099275D03*
%TO.P,U3,25*%
%TO.N,Net-(SW1-Pad1)*%
X169389303Y-95099275D03*
D16*
%TO.P,U3,24*%
%TO.N,AUX0*%
X168389303Y-92314275D03*
%TO.P,U3,23*%
%TO.N,GPIO15_CS*%
X168389303Y-91044275D03*
%TO.P,U3,22*%
%TO.N,Net-(U3-Pad22)*%
X168389303Y-89774275D03*
%TO.P,U3,21*%
%TO.N,Net-(U3-Pad21)*%
X168389303Y-88504275D03*
%TO.P,U3,20*%
%TO.N,Net-(U3-Pad20)*%
X168389303Y-87234275D03*
%TO.P,U3,19*%
%TO.N,Net-(U3-Pad19)*%
X168389303Y-85964275D03*
%TO.P,U3,18*%
%TO.N,Net-(U3-Pad18)*%
X168389303Y-84694275D03*
%TO.P,U3,17*%
%TO.N,Net-(U3-Pad17)*%
X168389303Y-83424275D03*
%TO.P,U3,16*%
%TO.N,GPIO13_MOSI*%
X168389303Y-82154275D03*
%TO.P,U3,15*%
%TO.N,GND*%
X168389303Y-80884275D03*
D15*
%TO.P,U3,14*%
%TO.N,GPIO12_MISO*%
X169389303Y-78099275D03*
%TO.P,U3,13*%
%TO.N,GPIO14_CLK*%
X170659303Y-78099275D03*
%TO.P,U3,12*%
%TO.N,AUX4*%
X171929303Y-78099275D03*
%TO.P,U3,11*%
%TO.N,GPIO26_EN*%
X173199303Y-78099275D03*
%TO.P,U3,10*%
%TO.N,AUX3*%
X174469303Y-78099275D03*
%TO.P,U3,9*%
%TO.N,AUX6*%
X175739303Y-78099275D03*
%TO.P,U3,8*%
%TO.N,AUX5*%
X177009303Y-78099275D03*
%TO.P,U3,7*%
%TO.N,AUX8*%
X178279303Y-78099275D03*
%TO.P,U3,6*%
%TO.N,AUX7*%
X179549303Y-78099275D03*
%TO.P,U3,5*%
%TO.N,Net-(U3-Pad5)*%
X180819303Y-78099275D03*
%TO.P,U3,4*%
%TO.N,Net-(U3-Pad4)*%
X182089303Y-78099275D03*
%TO.P,U3,3*%
%TO.N,Net-(C2-Pad1)*%
X183359303Y-78099275D03*
%TO.P,U3,2*%
%TO.N,+3V3*%
X184629303Y-78099275D03*
%TO.P,U3,1*%
%TO.N,GND*%
X185899303Y-78099275D03*
D17*
%TO.P,U3,39*%
X178399303Y-85599275D03*
%TD*%
D18*
%TO.P,U1,1*%
%TO.N,GND*%
X132740000Y-77710000D03*
%TO.P,U1,3*%
%TO.N,+5V*%
X132740000Y-82310000D03*
%TO.P,U1,2*%
%TO.N,+3V3*%
X132740000Y-80010000D03*
D19*
X139040000Y-80010000D03*
%TD*%
D20*
%TO.P,TP6,1*%
%TO.N,+5V*%
X130810000Y-72390000D03*
%TD*%
%TO.P,TP5,1*%
%TO.N,+3V3*%
X142369300Y-80017252D03*
%TD*%
D21*
%TO.P,SW1,2*%
%TO.N,GND*%
X162404303Y-81429275D03*
%TO.P,SW1,1*%
%TO.N,Net-(SW1-Pad1)*%
X162404303Y-89229275D03*
%TD*%
%TO.P,R6,2*%
%TO.N,Net-(R6-Pad2)*%
%TA.AperFunction,SMDPad,CuDef*%
G36*
G01*
X164280001Y-94850000D02*
X163379999Y-94850000D01*
G75*
G02*
X163130000Y-94600001I0J249999D01*
G01*
X163130000Y-94074999D01*
G75*
G02*
X163379999Y-93825000I249999J0D01*
G01*
X164280001Y-93825000D01*
G75*
G02*
X164530000Y-94074999I0J-249999D01*
G01*
X164530000Y-94600001D01*
G75*
G02*
X164280001Y-94850000I-249999J0D01*
G01*
G37*
%TD.AperFunction*%
%TO.P,R6,1*%
%TO.N,Net-(D2-Pad2)*%
%TA.AperFunction,SMDPad,CuDef*%
G36*
G01*
X164280001Y-96675000D02*
X163379999Y-96675000D01*
G75*
G02*
X163130000Y-96425001I0J249999D01*
G01*
X163130000Y-95899999D01*
G75*
G02*
X163379999Y-95650000I249999J0D01*
G01*
X164280001Y-95650000D01*
G75*
G02*
X164530000Y-95899999I0J-249999D01*
G01*
X164530000Y-96425001D01*
G75*
G02*
X164280001Y-96675000I-249999J0D01*
G01*
G37*
%TD.AperFunction*%
%TD*%
%TO.P,R5,2*%
%TO.N,Net-(C15-Pad1)*%
%TA.AperFunction,SMDPad,CuDef*%
G36*
G01*
X127819999Y-105810000D02*
X128720001Y-105810000D01*
G75*
G02*
X128970000Y-106059999I0J-249999D01*
G01*
X128970000Y-106585001D01*
G75*
G02*
X128720001Y-106835000I-249999J0D01*
G01*
X127819999Y-106835000D01*
G75*
G02*
X127570000Y-106585001I0J249999D01*
G01*
X127570000Y-106059999D01*
G75*
G02*
X127819999Y-105810000I249999J0D01*
G01*
G37*
%TD.AperFunction*%
%TO.P,R5,1*%
%TO.N,Net-(JP3-Pad1)*%
%TA.AperFunction,SMDPad,CuDef*%
G36*
G01*
X127819999Y-103985000D02*
X128720001Y-103985000D01*
G75*
G02*
X128970000Y-104234999I0J-249999D01*
G01*
X128970000Y-104760001D01*
G75*
G02*
X128720001Y-105010000I-249999J0D01*
G01*
X127819999Y-105010000D01*
G75*
G02*
X127570000Y-104760001I0J249999D01*
G01*
X127570000Y-104234999D01*
G75*
G02*
X127819999Y-103985000I249999J0D01*
G01*
G37*
%TD.AperFunction*%
%TD*%
%TO.P,R4,2*%
%TO.N,Net-(JP2-Pad2)*%
%TA.AperFunction,SMDPad,CuDef*%
G36*
G01*
X127819999Y-109620000D02*
X128720001Y-109620000D01*
G75*
G02*
X128970000Y-109869999I0J-249999D01*
G01*
X128970000Y-110395001D01*
G75*
G02*
X128720001Y-110645000I-249999J0D01*
G01*
X127819999Y-110645000D01*
G75*
G02*
X127570000Y-110395001I0J249999D01*
G01*
X127570000Y-109869999D01*
G75*
G02*
X127819999Y-109620000I249999J0D01*
G01*
G37*
%TD.AperFunction*%
%TO.P,R4,1*%
%TO.N,Net-(C15-Pad1)*%
%TA.AperFunction,SMDPad,CuDef*%
G36*
G01*
X127819999Y-107795000D02*
X128720001Y-107795000D01*
G75*
G02*
X128970000Y-108044999I0J-249999D01*
G01*
X128970000Y-108570001D01*
G75*
G02*
X128720001Y-108820000I-249999J0D01*
G01*
X127819999Y-108820000D01*
G75*
G02*
X127570000Y-108570001I0J249999D01*
G01*
X127570000Y-108044999D01*
G75*
G02*
X127819999Y-107795000I249999J0D01*
G01*
G37*
%TD.AperFunction*%
%TD*%
%TO.P,R3,2*%
%TO.N,Net-(R3-Pad2)*%
%TA.AperFunction,SMDPad,CuDef*%
G36*
G01*
X127819999Y-90212500D02*
X128720001Y-90212500D01*
G75*
G02*
X128970000Y-90462499I0J-249999D01*
G01*
X128970000Y-90987501D01*
G75*
G02*
X128720001Y-91237500I-249999J0D01*
G01*
X127819999Y-91237500D01*
G75*
G02*
X127570000Y-90987501I0J249999D01*
G01*
X127570000Y-90462499D01*
G75*
G02*
X127819999Y-90212500I249999J0D01*
G01*
G37*
%TD.AperFunction*%
%TO.P,R3,1*%
%TO.N,+5V*%
%TA.AperFunction,SMDPad,CuDef*%
G36*
G01*
X127819999Y-88387500D02*
X128720001Y-88387500D01*
G75*
G02*
X128970000Y-88637499I0J-249999D01*
G01*
X128970000Y-89162501D01*
G75*
G02*
X128720001Y-89412500I-249999J0D01*
G01*
X127819999Y-89412500D01*
G75*
G02*
X127570000Y-89162501I0J249999D01*
G01*
X127570000Y-88637499D01*
G75*
G02*
X127819999Y-88387500I249999J0D01*
G01*
G37*
%TD.AperFunction*%
%TD*%
%TO.P,R2,2*%
%TO.N,GND*%
%TA.AperFunction,SMDPad,CuDef*%
G36*
G01*
X136290000Y-110940001D02*
X136290000Y-110039999D01*
G75*
G02*
X136539999Y-109790000I249999J0D01*
G01*
X137065001Y-109790000D01*
G75*
G02*
X137315000Y-110039999I0J-249999D01*
G01*
X137315000Y-110940001D01*
G75*
G02*
X137065001Y-111190000I-249999J0D01*
G01*
X136539999Y-111190000D01*
G75*
G02*
X136290000Y-110940001I0J249999D01*
G01*
G37*
%TD.AperFunction*%
%TO.P,R2,1*%
%TO.N,Net-(R2-Pad1)*%
%TA.AperFunction,SMDPad,CuDef*%
G36*
G01*
X134465000Y-110940001D02*
X134465000Y-110039999D01*
G75*
G02*
X134714999Y-109790000I249999J0D01*
G01*
X135240001Y-109790000D01*
G75*
G02*
X135490000Y-110039999I0J-249999D01*
G01*
X135490000Y-110940001D01*
G75*
G02*
X135240001Y-111190000I-249999J0D01*
G01*
X134714999Y-111190000D01*
G75*
G02*
X134465000Y-110940001I0J249999D01*
G01*
G37*
%TD.AperFunction*%
%TD*%
%TO.P,R1,2*%
%TO.N,Net-(C2-Pad1)*%
%TA.AperFunction,SMDPad,CuDef*%
G36*
G01*
X181921999Y-73298000D02*
X182822001Y-73298000D01*
G75*
G02*
X183072000Y-73547999I0J-249999D01*
G01*
X183072000Y-74073001D01*
G75*
G02*
X182822001Y-74323000I-249999J0D01*
G01*
X181921999Y-74323000D01*
G75*
G02*
X181672000Y-74073001I0J249999D01*
G01*
X181672000Y-73547999D01*
G75*
G02*
X181921999Y-73298000I249999J0D01*
G01*
G37*
%TD.AperFunction*%
%TO.P,R1,1*%
%TO.N,+3V3*%
%TA.AperFunction,SMDPad,CuDef*%
G36*
G01*
X181921999Y-71473000D02*
X182822001Y-71473000D01*
G75*
G02*
X183072000Y-71722999I0J-249999D01*
G01*
X183072000Y-72248001D01*
G75*
G02*
X182822001Y-72498000I-249999J0D01*
G01*
X181921999Y-72498000D01*
G75*
G02*
X181672000Y-72248001I0J249999D01*
G01*
X181672000Y-71722999D01*
G75*
G02*
X181921999Y-71473000I249999J0D01*
G01*
G37*
%TD.AperFunction*%
%TD*%
%TA.AperFunction,SMDPad,CuDef*%
D22*
%TO.P,JP3,2*%
%TO.N,CAN_L*%
G36*
X123710602Y-102220000D02*
G01*
X123710602Y-102195466D01*
X123715412Y-102146635D01*
X123724984Y-102098510D01*
X123739228Y-102051555D01*
X123758005Y-102006222D01*
X123781136Y-101962949D01*
X123808396Y-101922150D01*
X123839524Y-101884221D01*
X123874221Y-101849524D01*
X123912150Y-101818396D01*
X123952949Y-101791136D01*
X123996222Y-101768005D01*
X124041555Y-101749228D01*
X124088510Y-101734984D01*
X124136635Y-101725412D01*
X124185466Y-101720602D01*
X124210000Y-101720602D01*
X124210000Y-101720000D01*
X124710000Y-101720000D01*
X124710000Y-101720602D01*
X124734534Y-101720602D01*
X124783365Y-101725412D01*
X124831490Y-101734984D01*
X124878445Y-101749228D01*
X124923778Y-101768005D01*
X124967051Y-101791136D01*
X125007850Y-101818396D01*
X125045779Y-101849524D01*
X125080476Y-101884221D01*
X125111604Y-101922150D01*
X125138864Y-101962949D01*
X125161995Y-102006222D01*
X125180772Y-102051555D01*
X125195016Y-102098510D01*
X125204588Y-102146635D01*
X125209398Y-102195466D01*
X125209398Y-102220000D01*
X125210000Y-102220000D01*
X125210000Y-102720000D01*
X123710000Y-102720000D01*
X123710000Y-102220000D01*
X123710602Y-102220000D01*
G37*
%TD.AperFunction*%
%TA.AperFunction,SMDPad,CuDef*%
%TO.P,JP3,1*%
%TO.N,Net-(JP3-Pad1)*%
G36*
X125210000Y-103020000D02*
G01*
X125210000Y-103520000D01*
X125209398Y-103520000D01*
X125209398Y-103544534D01*
X125204588Y-103593365D01*
X125195016Y-103641490D01*
X125180772Y-103688445D01*
X125161995Y-103733778D01*
X125138864Y-103777051D01*
X125111604Y-103817850D01*
X125080476Y-103855779D01*
X125045779Y-103890476D01*
X125007850Y-103921604D01*
X124967051Y-103948864D01*
X124923778Y-103971995D01*
X124878445Y-103990772D01*
X124831490Y-104005016D01*
X124783365Y-104014588D01*
X124734534Y-104019398D01*
X124710000Y-104019398D01*
X124710000Y-104020000D01*
X124210000Y-104020000D01*
X124210000Y-104019398D01*
X124185466Y-104019398D01*
X124136635Y-104014588D01*
X124088510Y-104005016D01*
X124041555Y-103990772D01*
X123996222Y-103971995D01*
X123952949Y-103948864D01*
X123912150Y-103921604D01*
X123874221Y-103890476D01*
X123839524Y-103855779D01*
X123808396Y-103817850D01*
X123781136Y-103777051D01*
X123758005Y-103733778D01*
X123739228Y-103688445D01*
X123724984Y-103641490D01*
X123715412Y-103593365D01*
X123710602Y-103544534D01*
X123710602Y-103520000D01*
X123710000Y-103520000D01*
X123710000Y-103020000D01*
X125210000Y-103020000D01*
G37*
%TD.AperFunction*%
%TD*%
%TA.AperFunction,SMDPad,CuDef*%
%TO.P,JP2,2*%
%TO.N,Net-(JP2-Pad2)*%
G36*
X123710602Y-108570000D02*
G01*
X123710602Y-108545466D01*
X123715412Y-108496635D01*
X123724984Y-108448510D01*
X123739228Y-108401555D01*
X123758005Y-108356222D01*
X123781136Y-108312949D01*
X123808396Y-108272150D01*
X123839524Y-108234221D01*
X123874221Y-108199524D01*
X123912150Y-108168396D01*
X123952949Y-108141136D01*
X123996222Y-108118005D01*
X124041555Y-108099228D01*
X124088510Y-108084984D01*
X124136635Y-108075412D01*
X124185466Y-108070602D01*
X124210000Y-108070602D01*
X124210000Y-108070000D01*
X124710000Y-108070000D01*
X124710000Y-108070602D01*
X124734534Y-108070602D01*
X124783365Y-108075412D01*
X124831490Y-108084984D01*
X124878445Y-108099228D01*
X124923778Y-108118005D01*
X124967051Y-108141136D01*
X125007850Y-108168396D01*
X125045779Y-108199524D01*
X125080476Y-108234221D01*
X125111604Y-108272150D01*
X125138864Y-108312949D01*
X125161995Y-108356222D01*
X125180772Y-108401555D01*
X125195016Y-108448510D01*
X125204588Y-108496635D01*
X125209398Y-108545466D01*
X125209398Y-108570000D01*
X125210000Y-108570000D01*
X125210000Y-109070000D01*
X123710000Y-109070000D01*
X123710000Y-108570000D01*
X123710602Y-108570000D01*
G37*
%TD.AperFunction*%
%TA.AperFunction,SMDPad,CuDef*%
%TO.P,JP2,1*%
%TO.N,CAN_H*%
G36*
X125210000Y-109370000D02*
G01*
X125210000Y-109870000D01*
X125209398Y-109870000D01*
X125209398Y-109894534D01*
X125204588Y-109943365D01*
X125195016Y-109991490D01*
X125180772Y-110038445D01*
X125161995Y-110083778D01*
X125138864Y-110127051D01*
X125111604Y-110167850D01*
X125080476Y-110205779D01*
X125045779Y-110240476D01*
X125007850Y-110271604D01*
X124967051Y-110298864D01*
X124923778Y-110321995D01*
X124878445Y-110340772D01*
X124831490Y-110355016D01*
X124783365Y-110364588D01*
X124734534Y-110369398D01*
X124710000Y-110369398D01*
X124710000Y-110370000D01*
X124210000Y-110370000D01*
X124210000Y-110369398D01*
X124185466Y-110369398D01*
X124136635Y-110364588D01*
X124088510Y-110355016D01*
X124041555Y-110340772D01*
X123996222Y-110321995D01*
X123952949Y-110298864D01*
X123912150Y-110271604D01*
X123874221Y-110240476D01*
X123839524Y-110205779D01*
X123808396Y-110167850D01*
X123781136Y-110127051D01*
X123758005Y-110083778D01*
X123739228Y-110038445D01*
X123724984Y-109991490D01*
X123715412Y-109943365D01*
X123710602Y-109894534D01*
X123710602Y-109870000D01*
X123710000Y-109870000D01*
X123710000Y-109370000D01*
X125210000Y-109370000D01*
G37*
%TD.AperFunction*%
%TD*%
D23*
%TO.P,JP1,2*%
%TO.N,+5V*%
X188468000Y-103886000D03*
D24*
%TO.P,JP1,1*%
%TO.N,Net-(J1-Pad3)*%
X188468000Y-106426000D03*
%TD*%
D23*
%TO.P,J4,12*%
%TO.N,+5V*%
X148044993Y-75946495D03*
%TO.P,J4,11*%
%TO.N,GND*%
X148044993Y-73406495D03*
%TO.P,J4,10*%
%TO.N,+3V3*%
X150584993Y-75946495D03*
%TO.P,J4,9*%
%TO.N,AUX8*%
X150584993Y-73406495D03*
%TO.P,J4,8*%
%TO.N,AUX7*%
X153124993Y-75946495D03*
%TO.P,J4,7*%
%TO.N,AUX6*%
X153124993Y-73406495D03*
%TO.P,J4,6*%
%TO.N,AUX5*%
X155664993Y-75946495D03*
%TO.P,J4,5*%
%TO.N,AUX4*%
X155664993Y-73406495D03*
%TO.P,J4,4*%
%TO.N,AUX3*%
X158204993Y-75946495D03*
%TO.P,J4,3*%
%TO.N,AUX2*%
X158204993Y-73406495D03*
%TO.P,J4,2*%
%TO.N,AUX1*%
X160744993Y-75946495D03*
D24*
%TO.P,J4,1*%
%TO.N,AUX0*%
X160744993Y-73406495D03*
%TD*%
D25*
%TO.P,J3,MP4*%
%TO.N,Net-(J3-PadMP4)*%
X178744689Y-109740283D03*
%TO.P,J3,MP3*%
%TO.N,Net-(J3-PadMP3)*%
X163244689Y-109740283D03*
D26*
%TO.P,J3,MP2*%
%TO.N,Net-(J3-PadMP2)*%
X177844689Y-100140283D03*
%TO.P,J3,MP1*%
%TO.N,Net-(J3-PadMP1)*%
X162994689Y-100140283D03*
D27*
%TO.P,J3,15*%
%TO.N,N/C*%
X174044689Y-110140283D03*
%TO.P,J3,14*%
X166044689Y-110140283D03*
D28*
%TO.P,J3,9*%
%TO.N,SD_DETECT*%
X164444689Y-99540283D03*
%TO.P,J3,8*%
%TO.N,Net-(J3-Pad8)*%
X165544689Y-99540283D03*
%TO.P,J3,7*%
%TO.N,GPIO19_VMISO*%
X166644689Y-99540283D03*
%TO.P,J3,6*%
%TO.N,GND*%
X167744689Y-99540283D03*
%TO.P,J3,5*%
%TO.N,GPIO18_VCLK*%
X168844689Y-99540283D03*
%TO.P,J3,4*%
%TO.N,+3V3*%
X169944689Y-99540283D03*
%TO.P,J3,3*%
%TO.N,GPIO23_VMOSI*%
X171044689Y-99540283D03*
%TO.P,J3,2*%
%TO.N,GPIO_VCS*%
X172144689Y-99540283D03*
%TO.P,J3,1*%
%TO.N,Net-(J3-Pad1)*%
X173244689Y-99540283D03*
%TD*%
D23*
%TO.P,J2,4*%
%TO.N,Net-(J2-Pad4)*%
X109883783Y-90152253D03*
%TO.P,J2,3*%
%TO.N,Net-(J2-Pad3)*%
X109883783Y-92692253D03*
%TO.P,J2,2*%
%TO.N,Net-(J2-Pad2)*%
X109883783Y-95232253D03*
D24*
%TO.P,J2,1*%
%TO.N,Net-(J2-Pad1)*%
X109883783Y-97772253D03*
%TD*%
D23*
%TO.P,J1,6*%
%TO.N,Net-(J1-Pad6)*%
X182724303Y-113269275D03*
%TO.P,J1,5*%
%TO.N,UART0_TXD*%
X182724303Y-110729275D03*
%TO.P,J1,4*%
%TO.N,UART0_RXD*%
X182724303Y-108189275D03*
%TO.P,J1,3*%
%TO.N,Net-(J1-Pad3)*%
X182724303Y-105649275D03*
%TO.P,J1,2*%
%TO.N,Net-(J1-Pad2)*%
X182724303Y-103109275D03*
D24*
%TO.P,J1,1*%
%TO.N,GND*%
X182724303Y-100569275D03*
%TD*%
%TO.P,F1,2*%
%TO.N,Net-(F1-Pad2)*%
%TA.AperFunction,SMDPad,CuDef*%
G36*
G01*
X125473750Y-87980000D02*
X125986250Y-87980000D01*
G75*
G02*
X126205000Y-88198750I0J-218750D01*
G01*
X126205000Y-88636250D01*
G75*
G02*
X125986250Y-88855000I-218750J0D01*
G01*
X125473750Y-88855000D01*
G75*
G02*
X125255000Y-88636250I0J218750D01*
G01*
X125255000Y-88198750D01*
G75*
G02*
X125473750Y-87980000I218750J0D01*
G01*
G37*
%TD.AperFunction*%
%TO.P,F1,1*%
%TO.N,Net-(C11-Pad1)*%
%TA.AperFunction,SMDPad,CuDef*%
G36*
G01*
X125473750Y-86405000D02*
X125986250Y-86405000D01*
G75*
G02*
X126205000Y-86623750I0J-218750D01*
G01*
X126205000Y-87061250D01*
G75*
G02*
X125986250Y-87280000I-218750J0D01*
G01*
X125473750Y-87280000D01*
G75*
G02*
X125255000Y-87061250I0J218750D01*
G01*
X125255000Y-86623750D01*
G75*
G02*
X125473750Y-86405000I218750J0D01*
G01*
G37*
%TD.AperFunction*%
%TD*%
%TO.P,D2,2*%
%TO.N,Net-(D2-Pad2)*%
%TA.AperFunction,SMDPad,CuDef*%
G36*
G01*
X160833750Y-95700000D02*
X161746250Y-95700000D01*
G75*
G02*
X161990000Y-95943750I0J-243750D01*
G01*
X161990000Y-96431250D01*
G75*
G02*
X161746250Y-96675000I-243750J0D01*
G01*
X160833750Y-96675000D01*
G75*
G02*
X160590000Y-96431250I0J243750D01*
G01*
X160590000Y-95943750D01*
G75*
G02*
X160833750Y-95700000I243750J0D01*
G01*
G37*
%TD.AperFunction*%
%TO.P,D2,1*%
%TO.N,+3V3*%
%TA.AperFunction,SMDPad,CuDef*%
G36*
G01*
X160833750Y-93825000D02*
X161746250Y-93825000D01*
G75*
G02*
X161990000Y-94068750I0J-243750D01*
G01*
X161990000Y-94556250D01*
G75*
G02*
X161746250Y-94800000I-243750J0D01*
G01*
X160833750Y-94800000D01*
G75*
G02*
X160590000Y-94556250I0J243750D01*
G01*
X160590000Y-94068750D01*
G75*
G02*
X160833750Y-93825000I243750J0D01*
G01*
G37*
%TD.AperFunction*%
%TD*%
D29*
%TO.P,D1,2*%
%TO.N,Net-(C11-Pad1)*%
X127380000Y-73660000D03*
%TO.P,D1,1*%
%TO.N,Net-(C1-Pad1)*%
X124080000Y-73660000D03*
%TD*%
%TO.P,C16,2*%
%TO.N,+3V3*%
%TA.AperFunction,SMDPad,CuDef*%
G36*
G01*
X143035000Y-110940000D02*
X143985000Y-110940000D01*
G75*
G02*
X144235000Y-111190000I0J-250000D01*
G01*
X144235000Y-111690000D01*
G75*
G02*
X143985000Y-111940000I-250000J0D01*
G01*
X143035000Y-111940000D01*
G75*
G02*
X142785000Y-111690000I0J250000D01*
G01*
X142785000Y-111190000D01*
G75*
G02*
X143035000Y-110940000I250000J0D01*
G01*
G37*
%TD.AperFunction*%
%TO.P,C16,1*%
%TO.N,GND*%
%TA.AperFunction,SMDPad,CuDef*%
G36*
G01*
X143035000Y-109040000D02*
X143985000Y-109040000D01*
G75*
G02*
X144235000Y-109290000I0J-250000D01*
G01*
X144235000Y-109790000D01*
G75*
G02*
X143985000Y-110040000I-250000J0D01*
G01*
X143035000Y-110040000D01*
G75*
G02*
X142785000Y-109790000I0J250000D01*
G01*
X142785000Y-109290000D01*
G75*
G02*
X143035000Y-109040000I250000J0D01*
G01*
G37*
%TD.AperFunction*%
%TD*%
%TO.P,C15,2*%
%TO.N,GND*%
%TA.AperFunction,SMDPad,CuDef*%
G36*
G01*
X131285000Y-104960000D02*
X130335000Y-104960000D01*
G75*
G02*
X130085000Y-104710000I0J250000D01*
G01*
X130085000Y-104210000D01*
G75*
G02*
X130335000Y-103960000I250000J0D01*
G01*
X131285000Y-103960000D01*
G75*
G02*
X131535000Y-104210000I0J-250000D01*
G01*
X131535000Y-104710000D01*
G75*
G02*
X131285000Y-104960000I-250000J0D01*
G01*
G37*
%TD.AperFunction*%
%TO.P,C15,1*%
%TO.N,Net-(C15-Pad1)*%
%TA.AperFunction,SMDPad,CuDef*%
G36*
G01*
X131285000Y-106860000D02*
X130335000Y-106860000D01*
G75*
G02*
X130085000Y-106610000I0J250000D01*
G01*
X130085000Y-106110000D01*
G75*
G02*
X130335000Y-105860000I250000J0D01*
G01*
X131285000Y-105860000D01*
G75*
G02*
X131535000Y-106110000I0J-250000D01*
G01*
X131535000Y-106610000D01*
G75*
G02*
X131285000Y-106860000I-250000J0D01*
G01*
G37*
%TD.AperFunction*%
%TD*%
%TO.P,C14,2*%
%TO.N,+5V*%
%TA.AperFunction,SMDPad,CuDef*%
G36*
G01*
X143985000Y-106230000D02*
X143035000Y-106230000D01*
G75*
G02*
X142785000Y-105980000I0J250000D01*
G01*
X142785000Y-105480000D01*
G75*
G02*
X143035000Y-105230000I250000J0D01*
G01*
X143985000Y-105230000D01*
G75*
G02*
X144235000Y-105480000I0J-250000D01*
G01*
X144235000Y-105980000D01*
G75*
G02*
X143985000Y-106230000I-250000J0D01*
G01*
G37*
%TD.AperFunction*%
%TO.P,C14,1*%
%TO.N,GND*%
%TA.AperFunction,SMDPad,CuDef*%
G36*
G01*
X143985000Y-108130000D02*
X143035000Y-108130000D01*
G75*
G02*
X142785000Y-107880000I0J250000D01*
G01*
X142785000Y-107380000D01*
G75*
G02*
X143035000Y-107130000I250000J0D01*
G01*
X143985000Y-107130000D01*
G75*
G02*
X144235000Y-107380000I0J-250000D01*
G01*
X144235000Y-107880000D01*
G75*
G02*
X143985000Y-108130000I-250000J0D01*
G01*
G37*
%TD.AperFunction*%
%TD*%
%TO.P,C13,2*%
%TO.N,+5V*%
%TA.AperFunction,SMDPad,CuDef*%
G36*
G01*
X143985000Y-92260000D02*
X143035000Y-92260000D01*
G75*
G02*
X142785000Y-92010000I0J250000D01*
G01*
X142785000Y-91510000D01*
G75*
G02*
X143035000Y-91260000I250000J0D01*
G01*
X143985000Y-91260000D01*
G75*
G02*
X144235000Y-91510000I0J-250000D01*
G01*
X144235000Y-92010000D01*
G75*
G02*
X143985000Y-92260000I-250000J0D01*
G01*
G37*
%TD.AperFunction*%
%TO.P,C13,1*%
%TO.N,GND*%
%TA.AperFunction,SMDPad,CuDef*%
G36*
G01*
X143985000Y-94160000D02*
X143035000Y-94160000D01*
G75*
G02*
X142785000Y-93910000I0J250000D01*
G01*
X142785000Y-93410000D01*
G75*
G02*
X143035000Y-93160000I250000J0D01*
G01*
X143985000Y-93160000D01*
G75*
G02*
X144235000Y-93410000I0J-250000D01*
G01*
X144235000Y-93910000D01*
G75*
G02*
X143985000Y-94160000I-250000J0D01*
G01*
G37*
%TD.AperFunction*%
%TD*%
%TO.P,C12,2*%
%TO.N,+5V*%
%TA.AperFunction,SMDPad,CuDef*%
G36*
G01*
X146525000Y-92260000D02*
X145575000Y-92260000D01*
G75*
G02*
X145325000Y-92010000I0J250000D01*
G01*
X145325000Y-91510000D01*
G75*
G02*
X145575000Y-91260000I250000J0D01*
G01*
X146525000Y-91260000D01*
G75*
G02*
X146775000Y-91510000I0J-250000D01*
G01*
X146775000Y-92010000D01*
G75*
G02*
X146525000Y-92260000I-250000J0D01*
G01*
G37*
%TD.AperFunction*%
%TO.P,C12,1*%
%TO.N,GND*%
%TA.AperFunction,SMDPad,CuDef*%
G36*
G01*
X146525000Y-94160000D02*
X145575000Y-94160000D01*
G75*
G02*
X145325000Y-93910000I0J250000D01*
G01*
X145325000Y-93410000D01*
G75*
G02*
X145575000Y-93160000I250000J0D01*
G01*
X146525000Y-93160000D01*
G75*
G02*
X146775000Y-93410000I0J-250000D01*
G01*
X146775000Y-93910000D01*
G75*
G02*
X146525000Y-94160000I-250000J0D01*
G01*
G37*
%TD.AperFunction*%
%TD*%
%TO.P,C11,2*%
%TO.N,GND*%
%TA.AperFunction,SMDPad,CuDef*%
G36*
G01*
X125280000Y-82075000D02*
X125280000Y-83025000D01*
G75*
G02*
X125030000Y-83275000I-250000J0D01*
G01*
X124530000Y-83275000D01*
G75*
G02*
X124280000Y-83025000I0J250000D01*
G01*
X124280000Y-82075000D01*
G75*
G02*
X124530000Y-81825000I250000J0D01*
G01*
X125030000Y-81825000D01*
G75*
G02*
X125280000Y-82075000I0J-250000D01*
G01*
G37*
%TD.AperFunction*%
%TO.P,C11,1*%
%TO.N,Net-(C11-Pad1)*%
%TA.AperFunction,SMDPad,CuDef*%
G36*
G01*
X127180000Y-82075000D02*
X127180000Y-83025000D01*
G75*
G02*
X126930000Y-83275000I-250000J0D01*
G01*
X126430000Y-83275000D01*
G75*
G02*
X126180000Y-83025000I0J250000D01*
G01*
X126180000Y-82075000D01*
G75*
G02*
X126430000Y-81825000I250000J0D01*
G01*
X126930000Y-81825000D01*
G75*
G02*
X127180000Y-82075000I0J-250000D01*
G01*
G37*
%TD.AperFunction*%
%TD*%
%TO.P,C10,2*%
%TO.N,+5V*%
%TA.AperFunction,SMDPad,CuDef*%
G36*
G01*
X150524303Y-98824275D02*
X150524303Y-99774275D01*
G75*
G02*
X150274303Y-100024275I-250000J0D01*
G01*
X149774303Y-100024275D01*
G75*
G02*
X149524303Y-99774275I0J250000D01*
G01*
X149524303Y-98824275D01*
G75*
G02*
X149774303Y-98574275I250000J0D01*
G01*
X150274303Y-98574275D01*
G75*
G02*
X150524303Y-98824275I0J-250000D01*
G01*
G37*
%TD.AperFunction*%
%TO.P,C10,1*%
%TO.N,GND*%
%TA.AperFunction,SMDPad,CuDef*%
G36*
G01*
X152424303Y-98824275D02*
X152424303Y-99774275D01*
G75*
G02*
X152174303Y-100024275I-250000J0D01*
G01*
X151674303Y-100024275D01*
G75*
G02*
X151424303Y-99774275I0J250000D01*
G01*
X151424303Y-98824275D01*
G75*
G02*
X151674303Y-98574275I250000J0D01*
G01*
X152174303Y-98574275D01*
G75*
G02*
X152424303Y-98824275I0J-250000D01*
G01*
G37*
%TD.AperFunction*%
%TD*%
%TO.P,C9,2*%
%TO.N,+3V3*%
%TA.AperFunction,SMDPad,CuDef*%
G36*
G01*
X150524303Y-96284275D02*
X150524303Y-97234275D01*
G75*
G02*
X150274303Y-97484275I-250000J0D01*
G01*
X149774303Y-97484275D01*
G75*
G02*
X149524303Y-97234275I0J250000D01*
G01*
X149524303Y-96284275D01*
G75*
G02*
X149774303Y-96034275I250000J0D01*
G01*
X150274303Y-96034275D01*
G75*
G02*
X150524303Y-96284275I0J-250000D01*
G01*
G37*
%TD.AperFunction*%
%TO.P,C9,1*%
%TO.N,GND*%
%TA.AperFunction,SMDPad,CuDef*%
G36*
G01*
X152424303Y-96284275D02*
X152424303Y-97234275D01*
G75*
G02*
X152174303Y-97484275I-250000J0D01*
G01*
X151674303Y-97484275D01*
G75*
G02*
X151424303Y-97234275I0J250000D01*
G01*
X151424303Y-96284275D01*
G75*
G02*
X151674303Y-96034275I250000J0D01*
G01*
X152174303Y-96034275D01*
G75*
G02*
X152424303Y-96284275I0J-250000D01*
G01*
G37*
%TD.AperFunction*%
%TD*%
%TO.P,C8,2*%
%TO.N,GND*%
%TA.AperFunction,SMDPad,CuDef*%
G36*
G01*
X143985000Y-99880000D02*
X143035000Y-99880000D01*
G75*
G02*
X142785000Y-99630000I0J250000D01*
G01*
X142785000Y-99130000D01*
G75*
G02*
X143035000Y-98880000I250000J0D01*
G01*
X143985000Y-98880000D01*
G75*
G02*
X144235000Y-99130000I0J-250000D01*
G01*
X144235000Y-99630000D01*
G75*
G02*
X143985000Y-99880000I-250000J0D01*
G01*
G37*
%TD.AperFunction*%
%TO.P,C8,1*%
%TO.N,Net-(C8-Pad1)*%
%TA.AperFunction,SMDPad,CuDef*%
G36*
G01*
X143985000Y-101780000D02*
X143035000Y-101780000D01*
G75*
G02*
X142785000Y-101530000I0J250000D01*
G01*
X142785000Y-101030000D01*
G75*
G02*
X143035000Y-100780000I250000J0D01*
G01*
X143985000Y-100780000D01*
G75*
G02*
X144235000Y-101030000I0J-250000D01*
G01*
X144235000Y-101530000D01*
G75*
G02*
X143985000Y-101780000I-250000J0D01*
G01*
G37*
%TD.AperFunction*%
%TD*%
%TO.P,C7,2*%
%TO.N,GND*%
%TA.AperFunction,SMDPad,CuDef*%
G36*
G01*
X130360000Y-99855000D02*
X130360000Y-100805000D01*
G75*
G02*
X130110000Y-101055000I-250000J0D01*
G01*
X129610000Y-101055000D01*
G75*
G02*
X129360000Y-100805000I0J250000D01*
G01*
X129360000Y-99855000D01*
G75*
G02*
X129610000Y-99605000I250000J0D01*
G01*
X130110000Y-99605000D01*
G75*
G02*
X130360000Y-99855000I0J-250000D01*
G01*
G37*
%TD.AperFunction*%
%TO.P,C7,1*%
%TO.N,Net-(C7-Pad1)*%
%TA.AperFunction,SMDPad,CuDef*%
G36*
G01*
X132260000Y-99855000D02*
X132260000Y-100805000D01*
G75*
G02*
X132010000Y-101055000I-250000J0D01*
G01*
X131510000Y-101055000D01*
G75*
G02*
X131260000Y-100805000I0J250000D01*
G01*
X131260000Y-99855000D01*
G75*
G02*
X131510000Y-99605000I250000J0D01*
G01*
X132010000Y-99605000D01*
G75*
G02*
X132260000Y-99855000I0J-250000D01*
G01*
G37*
%TD.AperFunction*%
%TD*%
%TO.P,C6,2*%
%TO.N,+3V3*%
%TA.AperFunction,SMDPad,CuDef*%
G36*
G01*
X184814303Y-72154275D02*
X184814303Y-73104275D01*
G75*
G02*
X184564303Y-73354275I-250000J0D01*
G01*
X184064303Y-73354275D01*
G75*
G02*
X183814303Y-73104275I0J250000D01*
G01*
X183814303Y-72154275D01*
G75*
G02*
X184064303Y-71904275I250000J0D01*
G01*
X184564303Y-71904275D01*
G75*
G02*
X184814303Y-72154275I0J-250000D01*
G01*
G37*
%TD.AperFunction*%
%TO.P,C6,1*%
%TO.N,GND*%
%TA.AperFunction,SMDPad,CuDef*%
G36*
G01*
X186714303Y-72154275D02*
X186714303Y-73104275D01*
G75*
G02*
X186464303Y-73354275I-250000J0D01*
G01*
X185964303Y-73354275D01*
G75*
G02*
X185714303Y-73104275I0J250000D01*
G01*
X185714303Y-72154275D01*
G75*
G02*
X185964303Y-71904275I250000J0D01*
G01*
X186464303Y-71904275D01*
G75*
G02*
X186714303Y-72154275I0J-250000D01*
G01*
G37*
%TD.AperFunction*%
%TD*%
%TO.P,C5,2*%
%TO.N,+3V3*%
%TA.AperFunction,SMDPad,CuDef*%
G36*
G01*
X184814303Y-74694275D02*
X184814303Y-75644275D01*
G75*
G02*
X184564303Y-75894275I-250000J0D01*
G01*
X184064303Y-75894275D01*
G75*
G02*
X183814303Y-75644275I0J250000D01*
G01*
X183814303Y-74694275D01*
G75*
G02*
X184064303Y-74444275I250000J0D01*
G01*
X184564303Y-74444275D01*
G75*
G02*
X184814303Y-74694275I0J-250000D01*
G01*
G37*
%TD.AperFunction*%
%TO.P,C5,1*%
%TO.N,GND*%
%TA.AperFunction,SMDPad,CuDef*%
G36*
G01*
X186714303Y-74694275D02*
X186714303Y-75644275D01*
G75*
G02*
X186464303Y-75894275I-250000J0D01*
G01*
X185964303Y-75894275D01*
G75*
G02*
X185714303Y-75644275I0J250000D01*
G01*
X185714303Y-74694275D01*
G75*
G02*
X185964303Y-74444275I250000J0D01*
G01*
X186464303Y-74444275D01*
G75*
G02*
X186714303Y-74694275I0J-250000D01*
G01*
G37*
%TD.AperFunction*%
%TD*%
%TO.P,C4,2*%
%TO.N,GND*%
%TA.AperFunction,SMDPad,CuDef*%
G36*
G01*
X137980000Y-71915000D02*
X137980000Y-72865000D01*
G75*
G02*
X137730000Y-73115000I-250000J0D01*
G01*
X137230000Y-73115000D01*
G75*
G02*
X136980000Y-72865000I0J250000D01*
G01*
X136980000Y-71915000D01*
G75*
G02*
X137230000Y-71665000I250000J0D01*
G01*
X137730000Y-71665000D01*
G75*
G02*
X137980000Y-71915000I0J-250000D01*
G01*
G37*
%TD.AperFunction*%
%TO.P,C4,1*%
%TO.N,+3V3*%
%TA.AperFunction,SMDPad,CuDef*%
G36*
G01*
X139880000Y-71915000D02*
X139880000Y-72865000D01*
G75*
G02*
X139630000Y-73115000I-250000J0D01*
G01*
X139130000Y-73115000D01*
G75*
G02*
X138880000Y-72865000I0J250000D01*
G01*
X138880000Y-71915000D01*
G75*
G02*
X139130000Y-71665000I250000J0D01*
G01*
X139630000Y-71665000D01*
G75*
G02*
X139880000Y-71915000I0J-250000D01*
G01*
G37*
%TD.AperFunction*%
%TD*%
%TO.P,C3,2*%
%TO.N,GND*%
%TA.AperFunction,SMDPad,CuDef*%
G36*
G01*
X126180000Y-80485000D02*
X126180000Y-79535000D01*
G75*
G02*
X126430000Y-79285000I250000J0D01*
G01*
X126930000Y-79285000D01*
G75*
G02*
X127180000Y-79535000I0J-250000D01*
G01*
X127180000Y-80485000D01*
G75*
G02*
X126930000Y-80735000I-250000J0D01*
G01*
X126430000Y-80735000D01*
G75*
G02*
X126180000Y-80485000I0J250000D01*
G01*
G37*
%TD.AperFunction*%
%TO.P,C3,1*%
%TO.N,+5V*%
%TA.AperFunction,SMDPad,CuDef*%
G36*
G01*
X124280000Y-80485000D02*
X124280000Y-79535000D01*
G75*
G02*
X124530000Y-79285000I250000J0D01*
G01*
X125030000Y-79285000D01*
G75*
G02*
X125280000Y-79535000I0J-250000D01*
G01*
X125280000Y-80485000D01*
G75*
G02*
X125030000Y-80735000I-250000J0D01*
G01*
X124530000Y-80735000D01*
G75*
G02*
X124280000Y-80485000I0J250000D01*
G01*
G37*
%TD.AperFunction*%
%TD*%
%TO.P,C2,2*%
%TO.N,GND*%
%TA.AperFunction,SMDPad,CuDef*%
G36*
G01*
X181160000Y-75217000D02*
X181160000Y-76167000D01*
G75*
G02*
X180910000Y-76417000I-250000J0D01*
G01*
X180410000Y-76417000D01*
G75*
G02*
X180160000Y-76167000I0J250000D01*
G01*
X180160000Y-75217000D01*
G75*
G02*
X180410000Y-74967000I250000J0D01*
G01*
X180910000Y-74967000D01*
G75*
G02*
X181160000Y-75217000I0J-250000D01*
G01*
G37*
%TD.AperFunction*%
%TO.P,C2,1*%
%TO.N,Net-(C2-Pad1)*%
%TA.AperFunction,SMDPad,CuDef*%
G36*
G01*
X183060000Y-75217000D02*
X183060000Y-76167000D01*
G75*
G02*
X182810000Y-76417000I-250000J0D01*
G01*
X182310000Y-76417000D01*
G75*
G02*
X182060000Y-76167000I0J250000D01*
G01*
X182060000Y-75217000D01*
G75*
G02*
X182310000Y-74967000I250000J0D01*
G01*
X182810000Y-74967000D01*
G75*
G02*
X183060000Y-75217000I0J-250000D01*
G01*
G37*
%TD.AperFunction*%
%TD*%
%TO.P,C1,2*%
%TO.N,GND*%
%TA.AperFunction,SMDPad,CuDef*%
G36*
G01*
X135070000Y-72865000D02*
X135070000Y-71915000D01*
G75*
G02*
X135320000Y-71665000I250000J0D01*
G01*
X135820000Y-71665000D01*
G75*
G02*
X136070000Y-71915000I0J-250000D01*
G01*
X136070000Y-72865000D01*
G75*
G02*
X135820000Y-73115000I-250000J0D01*
G01*
X135320000Y-73115000D01*
G75*
G02*
X135070000Y-72865000I0J250000D01*
G01*
G37*
%TD.AperFunction*%
%TO.P,C1,1*%
%TO.N,Net-(C1-Pad1)*%
%TA.AperFunction,SMDPad,CuDef*%
G36*
G01*
X133170000Y-72865000D02*
X133170000Y-71915000D01*
G75*
G02*
X133420000Y-71665000I250000J0D01*
G01*
X133920000Y-71665000D01*
G75*
G02*
X134170000Y-71915000I0J-250000D01*
G01*
X134170000Y-72865000D01*
G75*
G02*
X133920000Y-73115000I-250000J0D01*
G01*
X133420000Y-73115000D01*
G75*
G02*
X133170000Y-72865000I0J250000D01*
G01*
G37*
%TD.AperFunction*%
%TD*%
D30*
%TO.N,AUX5*%
X176276000Y-76200000D03*
%TO.N,AUX8*%
X175260000Y-74676000D03*
X175260000Y-71882000D03*
%TO.N,AUX6*%
X153416000Y-70612000D03*
X155702000Y-70612000D03*
%TO.N,AUX4*%
X172466000Y-80264000D03*
%TO.N,AUX1*%
X170688000Y-86614000D03*
%TO.N,AUX2*%
X170688000Y-84836000D03*
%TO.N,AUX0*%
X173736000Y-89916000D03*
%TO.N,GND*%
X130810000Y-103124000D03*
X128524000Y-100330000D03*
X143510000Y-97790000D03*
X124968000Y-95250000D03*
X131572000Y-75438000D03*
X136906000Y-112014000D03*
X151892000Y-101092000D03*
%TO.N,+3V3*%
X148590000Y-96774000D03*
%TO.N,+5V*%
X141732000Y-91694000D03*
%TO.N,GND*%
X170434000Y-80772000D03*
X162306000Y-79502000D03*
X185928000Y-80264000D03*
X185928000Y-92964000D03*
X155448000Y-93218000D03*
X167894000Y-101600000D03*
X179324000Y-75692000D03*
%TO.N,GPIO12_MISO*%
X157988000Y-89154000D03*
X157226000Y-87884000D03*
%TO.N,+3V3*%
X183896000Y-70612000D03*
%TO.N,+5V*%
X151892000Y-104394000D03*
%TO.N,GPIO23_VMOSI*%
X172212000Y-101346000D03*
X184658000Y-97028000D03*
%TO.N,Net-(SW1-Pad1)*%
X167640000Y-93980000D03*
X164338000Y-89408000D03*
%TO.N,+3V3*%
X169926000Y-101346000D03*
X162306000Y-92964000D03*
%TO.N,CAN_\u002AINT*%
X170688000Y-92456000D03*
X138938000Y-88900000D03*
%TO.N,CAN_SO*%
X149098000Y-85852000D03*
%TO.N,+5V*%
X148590000Y-87376000D03*
%TO.N,CAN_SO*%
X152146000Y-85598000D03*
%TO.N,Net-(U4-Pad1)*%
X130810000Y-94234000D03*
%TO.N,Net-(U4-Pad2)*%
X132080000Y-94234000D03*
X141478000Y-104648000D03*
%TO.N,Net-(U4-Pad1)*%
X141478000Y-108966000D03*
%TO.N,+3V3*%
X143510000Y-112776000D03*
%TO.N,+5V*%
X129286000Y-86614000D03*
X148082000Y-78486000D03*
%TO.N,+3V3*%
X140970000Y-72390000D03*
%TO.N,Net-(C11-Pad1)*%
X127508000Y-71882000D03*
X128016000Y-82550000D03*
%TO.N,AUX4*%
X171958000Y-74422000D03*
%TD*%
D31*
%TO.N,GND*%
X121920000Y-82550000D02*
X124460000Y-82550000D01*
X132740000Y-76810000D02*
X132740000Y-77710000D01*
X135570000Y-72390000D02*
X135570000Y-73980000D01*
X135570000Y-72390000D02*
X137480000Y-72390000D01*
X124780000Y-81910000D02*
X126680000Y-80010000D01*
X124780000Y-82550000D02*
X124780000Y-81910000D01*
X130810000Y-104460000D02*
X130810000Y-103124000D01*
X129860000Y-100330000D02*
X128524000Y-100330000D01*
X143510000Y-99380000D02*
X143510000Y-97790000D01*
X124865279Y-95147279D02*
X124968000Y-95250000D01*
X123586989Y-95147279D02*
X124865279Y-95147279D01*
X133858000Y-75438000D02*
X133985000Y-75565000D01*
X131572000Y-75438000D02*
X133858000Y-75438000D01*
X133985000Y-75565000D02*
X132740000Y-76810000D01*
X135570000Y-73980000D02*
X133985000Y-75565000D01*
X140970000Y-96090000D02*
X143334000Y-96090000D01*
X143334000Y-96090000D02*
X143510000Y-96266000D01*
X143510000Y-93660000D02*
X143510000Y-97536000D01*
X143510000Y-97536000D02*
X143510000Y-97790000D01*
X143510000Y-96266000D02*
X143510000Y-97536000D01*
X146050000Y-93660000D02*
X143510000Y-93660000D01*
X151924303Y-96759275D02*
X151924303Y-99299275D01*
X139635000Y-107315000D02*
X141351000Y-107315000D01*
X141666000Y-107630000D02*
X143510000Y-107630000D01*
X141351000Y-107315000D02*
X141666000Y-107630000D01*
X143510000Y-107630000D02*
X143510000Y-109540000D01*
X136802500Y-110490000D02*
X136802500Y-107799500D01*
X137287000Y-107315000D02*
X139635000Y-107315000D01*
X136802500Y-107799500D02*
X137287000Y-107315000D01*
X136802500Y-111910500D02*
X136906000Y-112014000D01*
X136802500Y-110490000D02*
X136802500Y-111910500D01*
X151924303Y-101059697D02*
X151892000Y-101092000D01*
X151924303Y-99299275D02*
X151924303Y-101059697D01*
X185928000Y-78127972D02*
X185899303Y-78099275D01*
X185928000Y-80264000D02*
X185928000Y-78127972D01*
X168501578Y-80772000D02*
X168389303Y-80884275D01*
X170434000Y-80772000D02*
X168501578Y-80772000D01*
X162306000Y-81330972D02*
X162404303Y-81429275D01*
X162306000Y-79502000D02*
X162306000Y-81330972D01*
X185899303Y-92992697D02*
X185928000Y-92964000D01*
X185899303Y-95099275D02*
X185899303Y-92992697D01*
X185928000Y-80264000D02*
X185928000Y-82550000D01*
X182878725Y-85599275D02*
X178399303Y-85599275D01*
X185928000Y-82550000D02*
X182878725Y-85599275D01*
D32*
X154255578Y-93218000D02*
X154194303Y-93279275D01*
X155448000Y-93218000D02*
X154255578Y-93218000D01*
D31*
X167640000Y-99435594D02*
X167744689Y-99540283D01*
X167744689Y-101450689D02*
X167894000Y-101600000D01*
X167744689Y-99540283D02*
X167744689Y-101450689D01*
X186214303Y-75169275D02*
X186214303Y-76421697D01*
X185899303Y-76736697D02*
X185899303Y-78099275D01*
X186214303Y-76421697D02*
X185899303Y-76736697D01*
X186214303Y-75169275D02*
X186214303Y-72629275D01*
X179324000Y-75692000D02*
X180660000Y-75692000D01*
%TO.N,Net-(C1-Pad1)*%
X121920000Y-75820000D02*
X124080000Y-73660000D01*
X121920000Y-77470000D02*
X121920000Y-75820000D01*
X124080000Y-73660000D02*
X124080000Y-71500000D01*
X124080000Y-71500000D02*
X124080000Y-70230000D01*
X124080000Y-70230000D02*
X124460000Y-69850000D01*
X124460000Y-69850000D02*
X133350000Y-69850000D01*
X133670000Y-70170000D02*
X133350000Y-69850000D01*
X133670000Y-72390000D02*
X133670000Y-70170000D01*
%TO.N,Net-(C2-Pad1)*%
X182372000Y-73810500D02*
X182372000Y-74422000D01*
X182560000Y-74610000D02*
X182560000Y-75692000D01*
X182372000Y-74422000D02*
X182560000Y-74610000D01*
X183359303Y-78099275D02*
X183359303Y-76736697D01*
X182560000Y-75937394D02*
X182560000Y-75692000D01*
X183359303Y-76736697D02*
X182560000Y-75937394D01*
%TO.N,+3V3*%
X139380000Y-79670000D02*
X139040000Y-80010000D01*
X139380000Y-72390000D02*
X139380000Y-79670000D01*
X132740000Y-80010000D02*
X139040000Y-80010000D01*
X142362048Y-80010000D02*
X142369300Y-80017252D01*
X139040000Y-80010000D02*
X142362048Y-80010000D01*
X139380000Y-72390000D02*
X140970000Y-72390000D01*
X148604725Y-96759275D02*
X148590000Y-96774000D01*
X150024303Y-96759275D02*
X148604725Y-96759275D01*
D32*
X150024303Y-96759275D02*
X150024303Y-95339697D01*
X150294303Y-95069697D02*
X150294303Y-93279275D01*
X150024303Y-95339697D02*
X150294303Y-95069697D01*
D31*
X143510000Y-111440000D02*
X143510000Y-112776000D01*
X162306000Y-92964000D02*
X161544000Y-92964000D01*
X161290000Y-93218000D02*
X161290000Y-94312500D01*
X161544000Y-92964000D02*
X161290000Y-93218000D01*
X169926000Y-99521594D02*
X169944689Y-99540283D01*
X169944689Y-101327311D02*
X169926000Y-101346000D01*
X169944689Y-99540283D02*
X169944689Y-101327311D01*
X184314303Y-72629275D02*
X184314303Y-75169275D01*
X184314303Y-75169275D02*
X184314303Y-76110303D01*
X184629303Y-76425303D02*
X184629303Y-78099275D01*
X184314303Y-76110303D02*
X184629303Y-76425303D01*
X183670528Y-71985500D02*
X184314303Y-72629275D01*
X182372000Y-71985500D02*
X183670528Y-71985500D01*
X183896000Y-70612000D02*
X182626000Y-70612000D01*
X182372000Y-70866000D02*
X182372000Y-71985500D01*
X182626000Y-70612000D02*
X182372000Y-70866000D01*
%TO.N,+5V*%
X121920000Y-80010000D02*
X124780000Y-80010000D01*
X124780000Y-80010000D02*
X124780000Y-77150000D01*
X124780000Y-77150000D02*
X125730000Y-76200000D01*
X125730000Y-76200000D02*
X129540000Y-76200000D01*
X129540000Y-76200000D02*
X129540000Y-82550000D01*
X132500000Y-82550000D02*
X132740000Y-82310000D01*
X129540000Y-82550000D02*
X132500000Y-82550000D01*
X129540000Y-73660000D02*
X130810000Y-72390000D01*
X129540000Y-76200000D02*
X129540000Y-73660000D01*
X148044993Y-78448993D02*
X148082000Y-78486000D01*
X148044993Y-75946495D02*
X148044993Y-78448993D01*
X128270000Y-88900000D02*
X130556000Y-88900000D01*
X130810000Y-88646000D02*
X130810000Y-86790000D01*
X130556000Y-88900000D02*
X130810000Y-88646000D01*
X129462000Y-86790000D02*
X129286000Y-86614000D01*
X130810000Y-86790000D02*
X129462000Y-86790000D01*
X146050000Y-91760000D02*
X143510000Y-91760000D01*
X143195000Y-106045000D02*
X143510000Y-105730000D01*
X139635000Y-106045000D02*
X143195000Y-106045000D01*
D32*
X141798000Y-91760000D02*
X141732000Y-91694000D01*
X143510000Y-91760000D02*
X141798000Y-91760000D01*
D31*
X148929674Y-105730000D02*
X143510000Y-105730000D01*
X150024303Y-104635371D02*
X148929674Y-105730000D01*
X146050000Y-91760000D02*
X147640000Y-91760000D01*
X149524303Y-99299275D02*
X150024303Y-99299275D01*
X147640000Y-97414972D02*
X149524303Y-99299275D01*
X147640000Y-91760000D02*
X147640000Y-97414972D01*
D32*
X148753275Y-87539275D02*
X148590000Y-87376000D01*
X150294303Y-87539275D02*
X148753275Y-87539275D01*
D31*
X150114000Y-104394000D02*
X150024303Y-104304303D01*
X151892000Y-104394000D02*
X150114000Y-104394000D01*
X150024303Y-104304303D02*
X150024303Y-104635371D01*
X150024303Y-99299275D02*
X150024303Y-104304303D01*
D32*
%TO.N,Net-(C7-Pad1)*%
X138430000Y-96090000D02*
X138430000Y-98044000D01*
X138430000Y-98044000D02*
X134874000Y-98044000D01*
X134874000Y-100416048D02*
X134802821Y-100487227D01*
X134874000Y-98044000D02*
X134874000Y-100416048D01*
D31*
X131917227Y-100487227D02*
X131760000Y-100330000D01*
X134802821Y-100487227D02*
X131917227Y-100487227D01*
D32*
%TO.N,Net-(C8-Pad1)*%
X139700000Y-96090000D02*
X139700000Y-98298000D01*
X139700000Y-98298000D02*
X138938000Y-98298000D01*
X138938000Y-100052048D02*
X138502821Y-100487227D01*
X138938000Y-98298000D02*
X138938000Y-100052048D01*
D31*
X138502821Y-100487227D02*
X140365227Y-100487227D01*
X141158000Y-101280000D02*
X143510000Y-101280000D01*
X140365227Y-100487227D02*
X141158000Y-101280000D01*
D32*
%TO.N,UART0_TXD*%
X182089303Y-95099275D02*
X182089303Y-97761303D01*
X182089303Y-97761303D02*
X182626000Y-98298000D01*
X182626000Y-98298000D02*
X185166000Y-98298000D01*
X185166000Y-98298000D02*
X185166000Y-110490000D01*
X182963578Y-110490000D02*
X182724303Y-110729275D01*
X185166000Y-110490000D02*
X182963578Y-110490000D01*
%TO.N,UART0_RXD*%
X180819303Y-95099275D02*
X180819303Y-108175303D01*
X180833275Y-108189275D02*
X182724303Y-108189275D01*
X180819303Y-108175303D02*
X180833275Y-108189275D01*
D31*
%TO.N,CAN_L*%
X121390000Y-102220000D02*
X124460000Y-102220000D01*
X120740000Y-102870000D02*
X121390000Y-102220000D01*
X132715000Y-106045000D02*
X134685000Y-106045000D01*
X132715000Y-102227918D02*
X132715000Y-106045000D01*
X132707082Y-102220000D02*
X132715000Y-102227918D01*
X124460000Y-102220000D02*
X132707082Y-102220000D01*
%TO.N,CAN_H*%
X121390000Y-109870000D02*
X124460000Y-109870000D01*
X120740000Y-109220000D02*
X121390000Y-109870000D01*
X124460000Y-109870000D02*
X124460000Y-110490000D01*
X124460000Y-110490000D02*
X125730000Y-111760000D01*
X132795622Y-107315000D02*
X134685000Y-107315000D01*
X128350622Y-111760000D02*
X132795622Y-107315000D01*
X125730000Y-111760000D02*
X128350622Y-111760000D01*
%TO.N,Net-(R2-Pad1)*%
X134685000Y-108585000D02*
X134685000Y-109031000D01*
X134977500Y-109323500D02*
X134977500Y-110490000D01*
X134685000Y-109031000D02*
X134977500Y-109323500D01*
%TO.N,Net-(R3-Pad2)*%
X128270000Y-90725000D02*
X131779000Y-90725000D01*
X132080000Y-90424000D02*
X132080000Y-86790000D01*
X131779000Y-90725000D02*
X132080000Y-90424000D01*
%TO.N,Net-(SW1-Pad1)*%
X164159275Y-89229275D02*
X164338000Y-89408000D01*
X162404303Y-89229275D02*
X164159275Y-89229275D01*
X168759275Y-95099275D02*
X167640000Y-93980000D01*
X169389303Y-95099275D02*
X168759275Y-95099275D01*
D32*
%TO.N,CAN_SO*%
X134620000Y-86790000D02*
X134620000Y-85286010D01*
X134620000Y-85286010D02*
X147770010Y-85286010D01*
X152244303Y-85696303D02*
X152146000Y-85598000D01*
X152244303Y-87539275D02*
X152244303Y-85696303D01*
X148336000Y-85852000D02*
X147770010Y-85286010D01*
X149098000Y-85852000D02*
X148336000Y-85852000D01*
%TO.N,CAN_SI*%
X135890000Y-87815000D02*
X138753000Y-90678000D01*
X135890000Y-86790000D02*
X135890000Y-87815000D01*
X138753000Y-90678000D02*
X152400000Y-90678000D01*
X152894303Y-90183697D02*
X152894303Y-87539275D01*
X152400000Y-90678000D02*
X152894303Y-90183697D01*
%TO.N,CAN_SCK*%
X151594303Y-89959697D02*
X151594303Y-87539275D01*
X151326010Y-90227990D02*
X151594303Y-89959697D01*
X138995990Y-90227990D02*
X151326010Y-90227990D01*
X137160000Y-88392000D02*
X138995990Y-90227990D01*
X137160000Y-86790000D02*
X137160000Y-88392000D01*
%TO.N,CAN_\u002ACS*%
X150944303Y-85666303D02*
X150944303Y-87539275D01*
X150622000Y-84836000D02*
X150944303Y-85666303D01*
X133350000Y-84836000D02*
X150622000Y-84836000D01*
X133350000Y-86790000D02*
X133350000Y-84836000D01*
%TO.N,CAN_\u002AINT*%
X138430000Y-88392000D02*
X138938000Y-88900000D01*
X138430000Y-86790000D02*
X138430000Y-88392000D01*
D31*
X170688000Y-95070578D02*
X170659303Y-95099275D01*
X170688000Y-92456000D02*
X170688000Y-95070578D01*
%TO.N,Net-(U4-Pad2)*%
X132080000Y-94234000D02*
X132080000Y-96090000D01*
X141351000Y-104775000D02*
X141478000Y-104648000D01*
X139635000Y-104775000D02*
X141351000Y-104775000D01*
%TO.N,Net-(U4-Pad1)*%
X130810000Y-94234000D02*
X130810000Y-96090000D01*
X141097000Y-108585000D02*
X141478000Y-108966000D01*
X139635000Y-108585000D02*
X141097000Y-108585000D01*
%TO.N,Net-(C11-Pad1)*%
X125730000Y-86842500D02*
X125730000Y-86360000D01*
X126680000Y-85410000D02*
X126680000Y-82550000D01*
X125730000Y-86360000D02*
X126680000Y-85410000D01*
X126680000Y-82550000D02*
X128016000Y-82550000D01*
X127380000Y-72010000D02*
X127508000Y-71882000D01*
X127380000Y-73660000D02*
X127380000Y-72010000D01*
%TO.N,Net-(C15-Pad1)*%
X128270000Y-108307500D02*
X128270000Y-106322500D01*
X128307500Y-106360000D02*
X128270000Y-106322500D01*
X130810000Y-106360000D02*
X128307500Y-106360000D01*
%TO.N,Net-(D2-Pad2)*%
X161315000Y-96162500D02*
X161290000Y-96187500D01*
X163830000Y-96162500D02*
X161315000Y-96162500D01*
%TO.N,Net-(F1-Pad2)*%
X125350221Y-88797279D02*
X125730000Y-88417500D01*
X123586989Y-88797279D02*
X125350221Y-88797279D01*
D32*
%TO.N,SD_DETECT*%
X164444689Y-99540283D02*
X164444689Y-98191311D01*
X164444689Y-98191311D02*
X165411990Y-97224010D01*
X165411990Y-97224010D02*
X172777990Y-97224010D01*
X173199303Y-96802697D02*
X173199303Y-95099275D01*
X172777990Y-97224010D02*
X173199303Y-96802697D01*
%TO.N,GPIO19_VMISO*%
X177009303Y-97056697D02*
X177009303Y-95099275D01*
X175768000Y-98298000D02*
X177009303Y-97056697D01*
X175768000Y-102870000D02*
X175768000Y-98298000D01*
X168090998Y-102870000D02*
X175768000Y-102870000D01*
X166644689Y-101423691D02*
X168090998Y-102870000D01*
X166644689Y-99540283D02*
X166644689Y-101423691D01*
%TO.N,GPIO18_VCLK*%
X175739303Y-97056697D02*
X175739303Y-95099275D01*
X175006000Y-97790000D02*
X175739303Y-97056697D01*
X169577999Y-102071001D02*
X175006000Y-102071001D01*
X168844689Y-101337691D02*
X169577999Y-102071001D01*
X175006000Y-102071001D02*
X175006000Y-97790000D01*
X168844689Y-99540283D02*
X168844689Y-101337691D01*
%TO.N,GPIO23_VMOSI*%
X171044689Y-100178689D02*
X172212000Y-101346000D01*
X171044689Y-99540283D02*
X171044689Y-100178689D01*
X184629303Y-96999303D02*
X184658000Y-97028000D01*
X184629303Y-95099275D02*
X184629303Y-96999303D01*
%TO.N,GPIO_VCS*%
X172144689Y-99540283D02*
X172144689Y-98111311D01*
X172144689Y-98111311D02*
X172466000Y-97790000D01*
X174469303Y-96169107D02*
X174469303Y-95099275D01*
X172848410Y-97790000D02*
X174469303Y-96169107D01*
X172466000Y-97790000D02*
X172848410Y-97790000D01*
%TO.N,AUX8*%
X175973072Y-74676000D02*
X175260000Y-74676000D01*
X178279303Y-76679934D02*
X175973072Y-74676000D01*
X178279303Y-78099275D02*
X178279303Y-76679934D01*
X150584993Y-69887007D02*
X150584993Y-73406495D01*
X151072010Y-69399990D02*
X150584993Y-69887007D01*
X171704000Y-69342000D02*
X151072010Y-69399990D01*
X175260000Y-71882000D02*
X171704000Y-69342000D01*
%TO.N,AUX7*%
X154432000Y-69850000D02*
X154432000Y-72136000D01*
X171196000Y-69850000D02*
X154432000Y-69850000D01*
X154299994Y-74771494D02*
X153124993Y-75946495D01*
X173736000Y-72136000D02*
X171196000Y-69850000D01*
X154432000Y-72136000D02*
X154299994Y-74771494D01*
X179549303Y-77187303D02*
X173736000Y-72136000D01*
X179549303Y-78099275D02*
X179549303Y-77187303D01*
%TO.N,AUX6*%
X153416000Y-73115488D02*
X153124993Y-73406495D01*
X153416000Y-70612000D02*
X153416000Y-73115488D01*
X171070410Y-70612000D02*
X155702000Y-70612000D01*
X173228000Y-72644000D02*
X171070410Y-70612000D01*
X175739303Y-78099275D02*
X173228000Y-72644000D01*
%TO.N,AUX5*%
X177009303Y-76933303D02*
X177009303Y-78099275D01*
X176276000Y-76200000D02*
X177009303Y-76933303D01*
%TO.N,AUX4*%
X171929303Y-79727303D02*
X172466000Y-80264000D01*
X171929303Y-78099275D02*
X171929303Y-79727303D01*
X155664993Y-71919007D02*
X155664993Y-73406495D01*
X156210000Y-71374000D02*
X155664993Y-71919007D01*
X171196000Y-71374000D02*
X156210000Y-71374000D01*
X171958000Y-72136000D02*
X171196000Y-71374000D01*
X171958000Y-74422000D02*
X171958000Y-72136000D01*
%TO.N,AUX3*%
X174469303Y-76849275D02*
X173312028Y-75692000D01*
X174469303Y-78099275D02*
X174469303Y-76849275D01*
X173312028Y-75692000D02*
X171196000Y-75692000D01*
X159379994Y-74771494D02*
X158204993Y-75946495D01*
X170275494Y-74771494D02*
X159379994Y-74771494D01*
X171196000Y-75692000D02*
X170275494Y-74771494D01*
%TO.N,AUX2*%
X183359303Y-93849275D02*
X182474028Y-92964000D01*
X183359303Y-95099275D02*
X183359303Y-93849275D01*
X182474028Y-92964000D02*
X180086000Y-92964000D01*
X171958000Y-84836000D02*
X170688000Y-84836000D01*
X180086000Y-92964000D02*
X171958000Y-84836000D01*
%TO.N,AUX1*%
X179549303Y-95099275D02*
X179549303Y-94205303D01*
X171958000Y-86614000D02*
X170688000Y-86614000D01*
X179549303Y-94205303D02*
X171958000Y-86614000D01*
%TO.N,AUX0*%
X169756723Y-92314275D02*
X170376998Y-91694000D01*
X168389303Y-92314275D02*
X169756723Y-92314275D01*
X171958000Y-91694000D02*
X173736000Y-89916000D01*
X170376998Y-91694000D02*
X171958000Y-91694000D01*
D31*
%TO.N,Net-(JP2-Pad2)*%
X124460000Y-108570000D02*
X125080000Y-108570000D01*
X126642500Y-110132500D02*
X128270000Y-110132500D01*
X125080000Y-108570000D02*
X126642500Y-110132500D01*
%TO.N,Net-(JP3-Pad1)*%
X127292500Y-103520000D02*
X128270000Y-104497500D01*
X124460000Y-103520000D02*
X127292500Y-103520000D01*
D32*
%TO.N,Net-(R6-Pad2)*%
X163830000Y-94337500D02*
X166473500Y-94337500D01*
X166473500Y-94337500D02*
X166878000Y-94742000D01*
X166878000Y-94742000D02*
X166878000Y-95758000D01*
X166878000Y-95758000D02*
X167894000Y-96774000D01*
X171929303Y-96349275D02*
X171929303Y-95099275D01*
X171504578Y-96774000D02*
X171929303Y-96349275D01*
X167894000Y-96774000D02*
X171504578Y-96774000D01*
%TO.N,GPIO15_CS*%
X166257725Y-91044275D02*
X168389303Y-91044275D01*
X165862000Y-91948000D02*
X166257725Y-91044275D01*
X159512000Y-92710000D02*
X160274000Y-91948000D01*
X159512000Y-94996000D02*
X159512000Y-92710000D01*
X159258000Y-95250000D02*
X159512000Y-94996000D01*
X160274000Y-91948000D02*
X165862000Y-91948000D01*
X151130000Y-95250000D02*
X159258000Y-95250000D01*
X150944303Y-95064303D02*
X151130000Y-95250000D01*
X150944303Y-93279275D02*
X150944303Y-95064303D01*
%TO.N,GPIO13_MOSI*%
X166241590Y-90424000D02*
X166241590Y-82932410D01*
X165100000Y-91440000D02*
X166241590Y-90424000D01*
X157988000Y-91440000D02*
X165100000Y-91440000D01*
X166241590Y-82932410D02*
X167019725Y-82154275D01*
X152894303Y-92202000D02*
X157988000Y-91440000D01*
X167019725Y-82154275D02*
X168389303Y-82154275D01*
X152894303Y-93279275D02*
X152894303Y-92202000D01*
%TO.N,GPIO12_MISO*%
X156210000Y-90932000D02*
X157988000Y-89154000D01*
X153418820Y-90932000D02*
X156210000Y-90932000D01*
X152244303Y-92106517D02*
X153418820Y-90932000D01*
X152244303Y-93279275D02*
X152244303Y-92106517D01*
X168406315Y-78099275D02*
X169389303Y-78099275D01*
X166823034Y-79682556D02*
X168406315Y-78099275D01*
X157609205Y-87884000D02*
X166823034Y-79682556D01*
X157226000Y-87884000D02*
X157609205Y-87884000D01*
%TO.N,GPIO14_CLK*%
X170659303Y-79784697D02*
X170659303Y-78099275D01*
X170434000Y-80010000D02*
X170659303Y-79784697D01*
X167132000Y-80010000D02*
X170434000Y-80010000D01*
X153416000Y-90298410D02*
X155573590Y-90298410D01*
X155573590Y-90298410D02*
X167132000Y-80010000D01*
X151594303Y-92120107D02*
X153416000Y-90298410D01*
X151594303Y-93279275D02*
X151594303Y-92120107D01*
%TO.N,GPIO26_EN*%
X173199303Y-76849275D02*
X173199303Y-78099275D01*
X172804028Y-76454000D02*
X173199303Y-76849275D01*
X166878000Y-76454000D02*
X172804028Y-76454000D01*
X160528000Y-78740000D02*
X166370000Y-78740000D01*
X166370000Y-76962000D02*
X166878000Y-76454000D01*
X160020000Y-79248000D02*
X160528000Y-78740000D01*
X160020000Y-83566000D02*
X160020000Y-79248000D01*
X156046725Y-87539275D02*
X160020000Y-83566000D01*
X166370000Y-78740000D02*
X166370000Y-76962000D01*
X154194303Y-87539275D02*
X156046725Y-87539275D01*
D31*
%TO.N,Net-(J2-Pad4)*%
X119686989Y-94286989D02*
X119686989Y-95147279D01*
X115552253Y-90152253D02*
X119686989Y-94286989D01*
X109883783Y-90152253D02*
X115552253Y-90152253D01*
%TO.N,Net-(J2-Pad3)*%
X109883783Y-92692253D02*
X114282253Y-92692253D01*
X116840000Y-95250000D02*
X116840000Y-102870000D01*
X114282253Y-92692253D02*
X116840000Y-95250000D01*
%TO.N,Net-(J2-Pad2)*%
X109883783Y-95232253D02*
X113012253Y-95232253D01*
X113012253Y-95232253D02*
X113030000Y-95250000D01*
X113030000Y-95250000D02*
X113030000Y-107950000D01*
X114300000Y-109220000D02*
X116840000Y-109220000D01*
X113030000Y-107950000D02*
X114300000Y-109220000D01*
%TO.N,Net-(J2-Pad1)*%
X115570000Y-87630000D02*
X116737279Y-88797279D01*
X106680000Y-87630000D02*
X115570000Y-87630000D01*
X105410000Y-97754506D02*
X105410000Y-88900000D01*
X105410000Y-88900000D02*
X106680000Y-87630000D01*
X105427747Y-97772253D02*
X105410000Y-97754506D01*
X116737279Y-88797279D02*
X119686989Y-88797279D01*
X109883783Y-97772253D02*
X105427747Y-97772253D01*
%TD*%
M02*
