%TF.GenerationSoftware,KiCad,Pcbnew,(5.1.9)-1*%
%TF.CreationDate,2021-03-13T19:54:35-06:00*%
%TF.ProjectId,SLKCAN,534c4b43-414e-42e6-9b69-6361645f7063,rev?*%
%TF.SameCoordinates,Original*%
%TF.FileFunction,Legend,Top*%
%TF.FilePolarity,Positive*%
%FSLAX46Y46*%
G04 Gerber Fmt 4.6, Leading zero omitted, Abs format (unit mm)*
G04 Created by KiCad (PCBNEW (5.1.9)-1) date 2021-03-13 19:54:35*
%MOMM*%
%LPD*%
G01*
G04 APERTURE LIST*
%ADD10C,0.090000*%
%ADD11C,0.100000*%
%ADD12C,0.150000*%
%ADD13C,0.120000*%
%ADD14C,0.127000*%
%ADD15C,0.200000*%
%ADD16C,0.015000*%
%ADD17C,0.254000*%
G04 APERTURE END LIST*
D10*
X107138436Y-102912329D02*
X107990561Y-102912329D01*
X108034746Y-102948804D02*
X108196042Y-103784854D01*
X108223007Y-103817904D02*
G75*
G02*
X108196042Y-103784854I17220J41575D01*
G01*
X107094251Y-102948805D02*
G75*
G02*
X107138436Y-102912329I44185J-8524D01*
G01*
X107990560Y-102912329D02*
G75*
G02*
X108034746Y-102948804I1J-45000D01*
G01*
X106526367Y-108820942D02*
X106205698Y-108688117D01*
X106585249Y-108796377D02*
G75*
G02*
X106526367Y-108820942I-41661J17010D01*
G01*
X107175617Y-107350476D02*
X106585249Y-108796378D01*
X105270123Y-104996809D02*
G75*
G02*
X105274427Y-105039245I-37270J-25216D01*
G01*
X104951307Y-107029589D02*
X104115257Y-106868293D01*
X104078782Y-106824108D02*
X104078782Y-105971983D01*
X104115258Y-106868293D02*
G75*
G02*
X104078782Y-106824108I8524J44185D01*
G01*
X105274427Y-107756846D02*
X104984357Y-107056554D01*
X106163261Y-108692419D02*
G75*
G02*
X106205698Y-108688117I25216J-37272D01*
G01*
X105458032Y-109169542D02*
G75*
G02*
X105400996Y-109164091I-25216J37271D01*
G01*
X104793001Y-108504512D02*
X105270124Y-107799282D01*
X104984357Y-105739537D02*
X105274427Y-105039245D01*
X105274428Y-107756845D02*
G75*
G02*
X105270124Y-107799282I-41575J-17221D01*
G01*
X107152771Y-107292588D02*
G75*
G02*
X107976226Y-107292588I411727J894542D01*
G01*
X106163261Y-108692420D02*
X105458032Y-109169543D01*
X104798453Y-104234543D02*
X105400996Y-103632000D01*
X104984357Y-105739537D02*
G75*
G02*
X104951307Y-105766502I-41575J17220D01*
G01*
X105400996Y-109164091D02*
X104798453Y-108561548D01*
X106205698Y-104107975D02*
X106905990Y-103817904D01*
X107152770Y-107292587D02*
G75*
G02*
X107175617Y-107350476I-18815J-40879D01*
G01*
X104078782Y-105971984D02*
G75*
G02*
X104115257Y-105927798I45000J1D01*
G01*
X106932955Y-103784854D02*
X107094250Y-102948804D01*
X106932954Y-103784853D02*
G75*
G02*
X106905990Y-103817904I-44185J8524D01*
G01*
X106205698Y-104107975D02*
G75*
G02*
X106163261Y-104103671I-17221J41575D01*
G01*
X105458032Y-103626548D02*
X106163261Y-104103671D01*
X105400995Y-103632000D02*
G75*
G02*
X105458032Y-103626548I31821J-31820D01*
G01*
X105270124Y-104996809D02*
X104793001Y-104291579D01*
X104793000Y-104291578D02*
G75*
G02*
X104798453Y-104234543I37272J25215D01*
G01*
X104115257Y-105927798D02*
X104951307Y-105766502D01*
X104798452Y-108561548D02*
G75*
G02*
X104793001Y-108504512I31820J31820D01*
G01*
X104951307Y-107029589D02*
G75*
G02*
X104984357Y-107056554I-8525J-44185D01*
G01*
X109728001Y-109164091D02*
G75*
G02*
X109670964Y-109169543I-31821J31820D01*
G01*
X109858873Y-107799283D02*
G75*
G02*
X109854569Y-107756846I37271J25217D01*
G01*
X108223006Y-103817904D02*
X108923298Y-104107975D01*
X108965735Y-104103671D02*
X109670964Y-103626548D01*
X111013739Y-106868293D02*
X110177690Y-107029589D01*
X110335995Y-108504512D02*
G75*
G02*
X110330544Y-108561548I-37271J-25216D01*
G01*
X111013739Y-105927798D02*
G75*
G02*
X111050215Y-105971983I-8524J-44185D01*
G01*
X110335995Y-104291579D02*
X109858872Y-104996809D01*
X107953380Y-107350477D02*
G75*
G02*
X107976226Y-107292588I41661J17011D01*
G01*
X108602630Y-108820941D02*
G75*
G02*
X108543748Y-108796378I-17221J41574D01*
G01*
X108923298Y-108688117D02*
X108602629Y-108820942D01*
X109854569Y-105039245D02*
X110144640Y-105739537D01*
X110177689Y-105766501D02*
G75*
G02*
X110144640Y-105739537I8525J44184D01*
G01*
X109670964Y-109169543D02*
X108965735Y-108692420D01*
X110144640Y-107056554D02*
X109854569Y-107756846D01*
X108923298Y-108688116D02*
G75*
G02*
X108965735Y-108692420I17221J-41575D01*
G01*
X110330544Y-108561548D02*
X109728000Y-109164091D01*
X110144640Y-107056553D02*
G75*
G02*
X110177690Y-107029589I41574J-17221D01*
G01*
X110330544Y-104234543D02*
G75*
G02*
X110335995Y-104291579I-31820J-31820D01*
G01*
X109670964Y-103626549D02*
G75*
G02*
X109728000Y-103632000I25216J-37271D01*
G01*
X108965735Y-104103671D02*
G75*
G02*
X108923298Y-104107975I-25216J37271D01*
G01*
X109858872Y-107799282D02*
X110335995Y-108504512D01*
X111050215Y-105971983D02*
X111050215Y-106824108D01*
X110177690Y-105766502D02*
X111013739Y-105927798D01*
X111050215Y-106824108D02*
G75*
G02*
X111013739Y-106868293I-45000J0D01*
G01*
X109854569Y-105039246D02*
G75*
G02*
X109858872Y-104996809I41575J17221D01*
G01*
X108543748Y-108796378D02*
X107953380Y-107350476D01*
X109728000Y-103632000D02*
X110330544Y-104234543D01*
D11*
X184658095Y-110196380D02*
X185229523Y-110196380D01*
X184943809Y-111196380D02*
X184943809Y-110196380D01*
X185467619Y-110196380D02*
X186134285Y-111196380D01*
X186134285Y-110196380D02*
X185467619Y-111196380D01*
X185253333Y-108656380D02*
X184920000Y-108180190D01*
X184681904Y-108656380D02*
X184681904Y-107656380D01*
X185062857Y-107656380D01*
X185158095Y-107704000D01*
X185205714Y-107751619D01*
X185253333Y-107846857D01*
X185253333Y-107989714D01*
X185205714Y-108084952D01*
X185158095Y-108132571D01*
X185062857Y-108180190D01*
X184681904Y-108180190D01*
X185586666Y-107656380D02*
X186253333Y-108656380D01*
X186253333Y-107656380D02*
X185586666Y-108656380D01*
X185166095Y-100084000D02*
X185070857Y-100036380D01*
X184928000Y-100036380D01*
X184785142Y-100084000D01*
X184689904Y-100179238D01*
X184642285Y-100274476D01*
X184594666Y-100464952D01*
X184594666Y-100607809D01*
X184642285Y-100798285D01*
X184689904Y-100893523D01*
X184785142Y-100988761D01*
X184928000Y-101036380D01*
X185023238Y-101036380D01*
X185166095Y-100988761D01*
X185213714Y-100941142D01*
X185213714Y-100607809D01*
X185023238Y-100607809D01*
X185642285Y-101036380D02*
X185642285Y-100036380D01*
X186213714Y-101036380D01*
X186213714Y-100036380D01*
X186689904Y-101036380D02*
X186689904Y-100036380D01*
X186928000Y-100036380D01*
X187070857Y-100084000D01*
X187166095Y-100179238D01*
X187213714Y-100274476D01*
X187261333Y-100464952D01*
X187261333Y-100607809D01*
X187213714Y-100798285D01*
X187166095Y-100893523D01*
X187070857Y-100988761D01*
X186928000Y-101036380D01*
X186689904Y-101036380D01*
X153709619Y-77930476D02*
X153709619Y-78549523D01*
X153328666Y-78216190D01*
X153328666Y-78359047D01*
X153281047Y-78454285D01*
X153233428Y-78501904D01*
X153138190Y-78549523D01*
X152900095Y-78549523D01*
X152804857Y-78501904D01*
X152757238Y-78454285D01*
X152709619Y-78359047D01*
X152709619Y-78073333D01*
X152757238Y-77978095D01*
X152804857Y-77930476D01*
X153376285Y-79406666D02*
X152709619Y-79406666D01*
X153757238Y-79168571D02*
X153042952Y-78930476D01*
X153042952Y-79549523D01*
X153709619Y-69802476D02*
X153709619Y-70421523D01*
X153328666Y-70088190D01*
X153328666Y-70231047D01*
X153281047Y-70326285D01*
X153233428Y-70373904D01*
X153138190Y-70421523D01*
X152900095Y-70421523D01*
X152804857Y-70373904D01*
X152757238Y-70326285D01*
X152709619Y-70231047D01*
X152709619Y-69945333D01*
X152757238Y-69850095D01*
X152804857Y-69802476D01*
X153709619Y-70754857D02*
X153709619Y-71373904D01*
X153328666Y-71040571D01*
X153328666Y-71183428D01*
X153281047Y-71278666D01*
X153233428Y-71326285D01*
X153138190Y-71373904D01*
X152900095Y-71373904D01*
X152804857Y-71326285D01*
X152757238Y-71278666D01*
X152709619Y-71183428D01*
X152709619Y-70897714D01*
X152757238Y-70802476D01*
X152804857Y-70754857D01*
X156154380Y-69850095D02*
X156202000Y-69897714D01*
X156249619Y-69992952D01*
X156249619Y-70231047D01*
X156202000Y-70326285D01*
X156154380Y-70373904D01*
X156059142Y-70421523D01*
X155963904Y-70421523D01*
X155821047Y-70373904D01*
X155249619Y-69802476D01*
X155249619Y-70421523D01*
X156249619Y-70754857D02*
X156249619Y-71421523D01*
X155249619Y-70992952D01*
X161234380Y-70834285D02*
X161282000Y-70881904D01*
X161329619Y-70977142D01*
X161329619Y-71215238D01*
X161282000Y-71310476D01*
X161234380Y-71358095D01*
X161139142Y-71405714D01*
X161043904Y-71405714D01*
X160901047Y-71358095D01*
X160329619Y-70786666D01*
X160329619Y-71405714D01*
X158694380Y-69850095D02*
X158742000Y-69897714D01*
X158789619Y-69992952D01*
X158789619Y-70231047D01*
X158742000Y-70326285D01*
X158694380Y-70373904D01*
X158599142Y-70421523D01*
X158503904Y-70421523D01*
X158361047Y-70373904D01*
X157789619Y-69802476D01*
X157789619Y-70421523D01*
X158694380Y-70802476D02*
X158742000Y-70850095D01*
X158789619Y-70945333D01*
X158789619Y-71183428D01*
X158742000Y-71278666D01*
X158694380Y-71326285D01*
X158599142Y-71373904D01*
X158503904Y-71373904D01*
X158361047Y-71326285D01*
X157789619Y-70754857D01*
X157789619Y-71373904D01*
X158694380Y-77978095D02*
X158742000Y-78025714D01*
X158789619Y-78120952D01*
X158789619Y-78359047D01*
X158742000Y-78454285D01*
X158694380Y-78501904D01*
X158599142Y-78549523D01*
X158503904Y-78549523D01*
X158361047Y-78501904D01*
X157789619Y-77930476D01*
X157789619Y-78549523D01*
X158789619Y-79454285D02*
X158789619Y-78978095D01*
X158313428Y-78930476D01*
X158361047Y-78978095D01*
X158408666Y-79073333D01*
X158408666Y-79311428D01*
X158361047Y-79406666D01*
X158313428Y-79454285D01*
X158218190Y-79501904D01*
X157980095Y-79501904D01*
X157884857Y-79454285D01*
X157837238Y-79406666D01*
X157789619Y-79311428D01*
X157789619Y-79073333D01*
X157837238Y-78978095D01*
X157884857Y-78930476D01*
X156249619Y-77930476D02*
X156249619Y-78549523D01*
X155868666Y-78216190D01*
X155868666Y-78359047D01*
X155821047Y-78454285D01*
X155773428Y-78501904D01*
X155678190Y-78549523D01*
X155440095Y-78549523D01*
X155344857Y-78501904D01*
X155297238Y-78454285D01*
X155249619Y-78359047D01*
X155249619Y-78073333D01*
X155297238Y-77978095D01*
X155344857Y-77930476D01*
X156154380Y-78930476D02*
X156202000Y-78978095D01*
X156249619Y-79073333D01*
X156249619Y-79311428D01*
X156202000Y-79406666D01*
X156154380Y-79454285D01*
X156059142Y-79501904D01*
X155963904Y-79501904D01*
X155821047Y-79454285D01*
X155249619Y-78882857D01*
X155249619Y-79501904D01*
X161234380Y-77978095D02*
X161282000Y-78025714D01*
X161329619Y-78120952D01*
X161329619Y-78359047D01*
X161282000Y-78454285D01*
X161234380Y-78501904D01*
X161139142Y-78549523D01*
X161043904Y-78549523D01*
X160901047Y-78501904D01*
X160329619Y-77930476D01*
X160329619Y-78549523D01*
X160329619Y-79501904D02*
X160329619Y-78930476D01*
X160329619Y-79216190D02*
X161329619Y-79216190D01*
X161186761Y-79120952D01*
X161091523Y-79025714D01*
X161043904Y-78930476D01*
X151169619Y-69802476D02*
X151169619Y-70421523D01*
X150788666Y-70088190D01*
X150788666Y-70231047D01*
X150741047Y-70326285D01*
X150693428Y-70373904D01*
X150598190Y-70421523D01*
X150360095Y-70421523D01*
X150264857Y-70373904D01*
X150217238Y-70326285D01*
X150169619Y-70231047D01*
X150169619Y-69945333D01*
X150217238Y-69850095D01*
X150264857Y-69802476D01*
X151169619Y-71326285D02*
X151169619Y-70850095D01*
X150693428Y-70802476D01*
X150741047Y-70850095D01*
X150788666Y-70945333D01*
X150788666Y-71183428D01*
X150741047Y-71278666D01*
X150693428Y-71326285D01*
X150598190Y-71373904D01*
X150360095Y-71373904D01*
X150264857Y-71326285D01*
X150217238Y-71278666D01*
X150169619Y-71183428D01*
X150169619Y-70945333D01*
X150217238Y-70850095D01*
X150264857Y-70802476D01*
X148375619Y-70135809D02*
X148375619Y-70231047D01*
X148328000Y-70326285D01*
X148280380Y-70373904D01*
X148185142Y-70421523D01*
X147994666Y-70469142D01*
X147756571Y-70469142D01*
X147566095Y-70421523D01*
X147470857Y-70373904D01*
X147423238Y-70326285D01*
X147375619Y-70231047D01*
X147375619Y-70135809D01*
X147423238Y-70040571D01*
X147470857Y-69992952D01*
X147566095Y-69945333D01*
X147756571Y-69897714D01*
X147994666Y-69897714D01*
X148185142Y-69945333D01*
X148280380Y-69992952D01*
X148328000Y-70040571D01*
X148375619Y-70135809D01*
X148375619Y-70754857D02*
X147375619Y-71088190D01*
X148375619Y-71421523D01*
X151169619Y-78025809D02*
X151169619Y-78644857D01*
X150788666Y-78311523D01*
X150788666Y-78454380D01*
X150741047Y-78549619D01*
X150693428Y-78597238D01*
X150598190Y-78644857D01*
X150360095Y-78644857D01*
X150264857Y-78597238D01*
X150217238Y-78549619D01*
X150169619Y-78454380D01*
X150169619Y-78168666D01*
X150217238Y-78073428D01*
X150264857Y-78025809D01*
X150264857Y-79073428D02*
X150217238Y-79121047D01*
X150169619Y-79073428D01*
X150217238Y-79025809D01*
X150264857Y-79073428D01*
X150169619Y-79073428D01*
X151169619Y-79454380D02*
X151169619Y-80073428D01*
X150788666Y-79740095D01*
X150788666Y-79882952D01*
X150741047Y-79978190D01*
X150693428Y-80025809D01*
X150598190Y-80073428D01*
X150360095Y-80073428D01*
X150264857Y-80025809D01*
X150217238Y-79978190D01*
X150169619Y-79882952D01*
X150169619Y-79597238D01*
X150217238Y-79502000D01*
X150264857Y-79454380D01*
X151169619Y-80359142D02*
X150169619Y-80692476D01*
X151169619Y-81025809D01*
X148629619Y-78549523D02*
X148629619Y-78073333D01*
X148153428Y-78025714D01*
X148201047Y-78073333D01*
X148248666Y-78168571D01*
X148248666Y-78406666D01*
X148201047Y-78501904D01*
X148153428Y-78549523D01*
X148058190Y-78597142D01*
X147820095Y-78597142D01*
X147724857Y-78549523D01*
X147677238Y-78501904D01*
X147629619Y-78406666D01*
X147629619Y-78168571D01*
X147677238Y-78073333D01*
X147724857Y-78025714D01*
X148629619Y-78882857D02*
X147629619Y-79216190D01*
X148629619Y-79549523D01*
D12*
X102004761Y-109005238D02*
X102052380Y-108862380D01*
X102052380Y-108624285D01*
X102004761Y-108529047D01*
X101957142Y-108481428D01*
X101861904Y-108433809D01*
X101766666Y-108433809D01*
X101671428Y-108481428D01*
X101623809Y-108529047D01*
X101576190Y-108624285D01*
X101528571Y-108814761D01*
X101480952Y-108910000D01*
X101433333Y-108957619D01*
X101338095Y-109005238D01*
X101242857Y-109005238D01*
X101147619Y-108957619D01*
X101100000Y-108910000D01*
X101052380Y-108814761D01*
X101052380Y-108576666D01*
X101100000Y-108433809D01*
X102052380Y-107529047D02*
X102052380Y-108005238D01*
X101052380Y-108005238D01*
X102052380Y-107195714D02*
X101052380Y-107195714D01*
X102052380Y-106624285D02*
X101480952Y-107052857D01*
X101052380Y-106624285D02*
X101623809Y-107195714D01*
X101957142Y-105624285D02*
X102004761Y-105671904D01*
X102052380Y-105814761D01*
X102052380Y-105910000D01*
X102004761Y-106052857D01*
X101909523Y-106148095D01*
X101814285Y-106195714D01*
X101623809Y-106243333D01*
X101480952Y-106243333D01*
X101290476Y-106195714D01*
X101195238Y-106148095D01*
X101100000Y-106052857D01*
X101052380Y-105910000D01*
X101052380Y-105814761D01*
X101100000Y-105671904D01*
X101147619Y-105624285D01*
X101766666Y-105243333D02*
X101766666Y-104767142D01*
X102052380Y-105338571D02*
X101052380Y-105005238D01*
X102052380Y-104671904D01*
X102052380Y-104338571D02*
X101052380Y-104338571D01*
X102052380Y-103767142D01*
X101052380Y-103767142D01*
X101052380Y-103100476D02*
X101052380Y-103005238D01*
X101100000Y-102910000D01*
X101147619Y-102862380D01*
X101242857Y-102814761D01*
X101433333Y-102767142D01*
X101671428Y-102767142D01*
X101861904Y-102814761D01*
X101957142Y-102862380D01*
X102004761Y-102910000D01*
X102052380Y-103005238D01*
X102052380Y-103100476D01*
X102004761Y-103195714D01*
X101957142Y-103243333D01*
X101861904Y-103290952D01*
X101671428Y-103338571D01*
X101433333Y-103338571D01*
X101242857Y-103290952D01*
X101147619Y-103243333D01*
X101100000Y-103195714D01*
X101052380Y-103100476D01*
X102052380Y-101814761D02*
X102052380Y-102386190D01*
X102052380Y-102100476D02*
X101052380Y-102100476D01*
X101195238Y-102195714D01*
X101290476Y-102290952D01*
X101338095Y-102386190D01*
X105506190Y-71572380D02*
X105506190Y-70572380D01*
X105982380Y-71572380D02*
X105982380Y-70572380D01*
X106553809Y-71572380D01*
X106553809Y-70572380D01*
X107030000Y-71572380D02*
X107030000Y-70572380D01*
X107410952Y-70572380D01*
X107506190Y-70620000D01*
X107553809Y-70667619D01*
X107601428Y-70762857D01*
X107601428Y-70905714D01*
X107553809Y-71000952D01*
X107506190Y-71048571D01*
X107410952Y-71096190D01*
X107030000Y-71096190D01*
X108030000Y-70572380D02*
X108030000Y-71381904D01*
X108077619Y-71477142D01*
X108125238Y-71524761D01*
X108220476Y-71572380D01*
X108410952Y-71572380D01*
X108506190Y-71524761D01*
X108553809Y-71477142D01*
X108601428Y-71381904D01*
X108601428Y-70572380D01*
X108934761Y-70572380D02*
X109506190Y-70572380D01*
X109220476Y-71572380D02*
X109220476Y-70572380D01*
X110601428Y-71572380D02*
X110601428Y-70572380D01*
X110982380Y-70572380D01*
X111077619Y-70620000D01*
X111125238Y-70667619D01*
X111172857Y-70762857D01*
X111172857Y-70905714D01*
X111125238Y-71000952D01*
X111077619Y-71048571D01*
X110982380Y-71096190D01*
X110601428Y-71096190D01*
X111791904Y-70572380D02*
X111982380Y-70572380D01*
X112077619Y-70620000D01*
X112172857Y-70715238D01*
X112220476Y-70905714D01*
X112220476Y-71239047D01*
X112172857Y-71429523D01*
X112077619Y-71524761D01*
X111982380Y-71572380D01*
X111791904Y-71572380D01*
X111696666Y-71524761D01*
X111601428Y-71429523D01*
X111553809Y-71239047D01*
X111553809Y-70905714D01*
X111601428Y-70715238D01*
X111696666Y-70620000D01*
X111791904Y-70572380D01*
X112553809Y-70572380D02*
X112791904Y-71572380D01*
X112982380Y-70858095D01*
X113172857Y-71572380D01*
X113410952Y-70572380D01*
X113791904Y-71048571D02*
X114125238Y-71048571D01*
X114268095Y-71572380D02*
X113791904Y-71572380D01*
X113791904Y-70572380D01*
X114268095Y-70572380D01*
X115268095Y-71572380D02*
X114934761Y-71096190D01*
X114696666Y-71572380D02*
X114696666Y-70572380D01*
X115077619Y-70572380D01*
X115172857Y-70620000D01*
X115220476Y-70667619D01*
X115268095Y-70762857D01*
X115268095Y-70905714D01*
X115220476Y-71000952D01*
X115172857Y-71048571D01*
X115077619Y-71096190D01*
X114696666Y-71096190D01*
X117030000Y-71477142D02*
X116982380Y-71524761D01*
X116839523Y-71572380D01*
X116744285Y-71572380D01*
X116601428Y-71524761D01*
X116506190Y-71429523D01*
X116458571Y-71334285D01*
X116410952Y-71143809D01*
X116410952Y-71000952D01*
X116458571Y-70810476D01*
X116506190Y-70715238D01*
X116601428Y-70620000D01*
X116744285Y-70572380D01*
X116839523Y-70572380D01*
X116982380Y-70620000D01*
X117030000Y-70667619D01*
X117649047Y-70572380D02*
X117839523Y-70572380D01*
X117934761Y-70620000D01*
X118030000Y-70715238D01*
X118077619Y-70905714D01*
X118077619Y-71239047D01*
X118030000Y-71429523D01*
X117934761Y-71524761D01*
X117839523Y-71572380D01*
X117649047Y-71572380D01*
X117553809Y-71524761D01*
X117458571Y-71429523D01*
X117410952Y-71239047D01*
X117410952Y-70905714D01*
X117458571Y-70715238D01*
X117553809Y-70620000D01*
X117649047Y-70572380D01*
X118506190Y-71572380D02*
X118506190Y-70572380D01*
X119077619Y-71572380D01*
X119077619Y-70572380D01*
X119553809Y-71572380D02*
X119553809Y-70572380D01*
X119791904Y-70572380D01*
X119934761Y-70620000D01*
X120030000Y-70715238D01*
X120077619Y-70810476D01*
X120125238Y-71000952D01*
X120125238Y-71143809D01*
X120077619Y-71334285D01*
X120030000Y-71429523D01*
X119934761Y-71524761D01*
X119791904Y-71572380D01*
X119553809Y-71572380D01*
X120553809Y-71477142D02*
X120601428Y-71524761D01*
X120553809Y-71572380D01*
X120506190Y-71524761D01*
X120553809Y-71477142D01*
X120553809Y-71572380D01*
D13*
X115570000Y-88900000D02*
X115570000Y-99060000D01*
X115570000Y-86360000D02*
X115570000Y-88900000D01*
X113030000Y-86360000D02*
X115570000Y-86360000D01*
X100330000Y-86360000D02*
X113030000Y-86360000D01*
X144780000Y-69850000D02*
X144780000Y-85090000D01*
X100330000Y-69850000D02*
X144780000Y-69850000D01*
X100330000Y-86360000D02*
X100330000Y-69850000D01*
D12*
X160868749Y-113965376D02*
X159868749Y-113965376D01*
X160583035Y-113632042D01*
X159868749Y-113298709D01*
X160868749Y-113298709D01*
X160868749Y-112822519D02*
X159868749Y-112822519D01*
X160773511Y-111774900D02*
X160821130Y-111822519D01*
X160868749Y-111965376D01*
X160868749Y-112060614D01*
X160821130Y-112203471D01*
X160725892Y-112298709D01*
X160630654Y-112346328D01*
X160440178Y-112393947D01*
X160297321Y-112393947D01*
X160106845Y-112346328D01*
X160011607Y-112298709D01*
X159916369Y-112203471D01*
X159868749Y-112060614D01*
X159868749Y-111965376D01*
X159916369Y-111822519D01*
X159963988Y-111774900D01*
X160868749Y-110774900D02*
X160392559Y-111108233D01*
X160868749Y-111346328D02*
X159868749Y-111346328D01*
X159868749Y-110965376D01*
X159916369Y-110870138D01*
X159963988Y-110822519D01*
X160059226Y-110774900D01*
X160202083Y-110774900D01*
X160297321Y-110822519D01*
X160344940Y-110870138D01*
X160392559Y-110965376D01*
X160392559Y-111346328D01*
X159868749Y-110155852D02*
X159868749Y-109965376D01*
X159916369Y-109870138D01*
X160011607Y-109774900D01*
X160202083Y-109727280D01*
X160535416Y-109727280D01*
X160725892Y-109774900D01*
X160821130Y-109870138D01*
X160868749Y-109965376D01*
X160868749Y-110155852D01*
X160821130Y-110251090D01*
X160725892Y-110346328D01*
X160535416Y-110393947D01*
X160202083Y-110393947D01*
X160011607Y-110346328D01*
X159916369Y-110251090D01*
X159868749Y-110155852D01*
X160487797Y-109298709D02*
X160487797Y-108536804D01*
X160821130Y-108108233D02*
X160868749Y-107965376D01*
X160868749Y-107727280D01*
X160821130Y-107632042D01*
X160773511Y-107584423D01*
X160678273Y-107536804D01*
X160583035Y-107536804D01*
X160487797Y-107584423D01*
X160440178Y-107632042D01*
X160392559Y-107727280D01*
X160344940Y-107917757D01*
X160297321Y-108012995D01*
X160249702Y-108060614D01*
X160154464Y-108108233D01*
X160059226Y-108108233D01*
X159963988Y-108060614D01*
X159916369Y-108012995D01*
X159868749Y-107917757D01*
X159868749Y-107679661D01*
X159916369Y-107536804D01*
X160868749Y-107108233D02*
X159868749Y-107108233D01*
X159868749Y-106870138D01*
X159916369Y-106727280D01*
X160011607Y-106632042D01*
X160106845Y-106584423D01*
X160297321Y-106536804D01*
X160440178Y-106536804D01*
X160630654Y-106584423D01*
X160725892Y-106632042D01*
X160821130Y-106727280D01*
X160868749Y-106870138D01*
X160868749Y-107108233D01*
X114451428Y-113387142D02*
X114403809Y-113434761D01*
X114260952Y-113482380D01*
X114165714Y-113482380D01*
X114022857Y-113434761D01*
X113927619Y-113339523D01*
X113880000Y-113244285D01*
X113832380Y-113053809D01*
X113832380Y-112910952D01*
X113880000Y-112720476D01*
X113927619Y-112625238D01*
X114022857Y-112530000D01*
X114165714Y-112482380D01*
X114260952Y-112482380D01*
X114403809Y-112530000D01*
X114451428Y-112577619D01*
X114832380Y-113196666D02*
X115308571Y-113196666D01*
X114737142Y-113482380D02*
X115070476Y-112482380D01*
X115403809Y-113482380D01*
X115737142Y-113482380D02*
X115737142Y-112482380D01*
X116308571Y-113482380D01*
X116308571Y-112482380D01*
X117546666Y-113482380D02*
X117546666Y-112482380D01*
X118022857Y-113482380D02*
X118022857Y-112482380D01*
X118594285Y-113482380D01*
X118594285Y-112482380D01*
X118927619Y-112482380D02*
X119499047Y-112482380D01*
X119213333Y-113482380D02*
X119213333Y-112482380D01*
X119832380Y-112958571D02*
X120165714Y-112958571D01*
X120308571Y-113482380D02*
X119832380Y-113482380D01*
X119832380Y-112482380D01*
X120308571Y-112482380D01*
X121308571Y-113482380D02*
X120975238Y-113006190D01*
X120737142Y-113482380D02*
X120737142Y-112482380D01*
X121118095Y-112482380D01*
X121213333Y-112530000D01*
X121260952Y-112577619D01*
X121308571Y-112672857D01*
X121308571Y-112815714D01*
X121260952Y-112910952D01*
X121213333Y-112958571D01*
X121118095Y-113006190D01*
X120737142Y-113006190D01*
X122070476Y-112958571D02*
X121737142Y-112958571D01*
X121737142Y-113482380D02*
X121737142Y-112482380D01*
X122213333Y-112482380D01*
X122546666Y-113196666D02*
X123022857Y-113196666D01*
X122451428Y-113482380D02*
X122784761Y-112482380D01*
X123118095Y-113482380D01*
X124022857Y-113387142D02*
X123975238Y-113434761D01*
X123832380Y-113482380D01*
X123737142Y-113482380D01*
X123594285Y-113434761D01*
X123499047Y-113339523D01*
X123451428Y-113244285D01*
X123403809Y-113053809D01*
X123403809Y-112910952D01*
X123451428Y-112720476D01*
X123499047Y-112625238D01*
X123594285Y-112530000D01*
X123737142Y-112482380D01*
X123832380Y-112482380D01*
X123975238Y-112530000D01*
X124022857Y-112577619D01*
X124451428Y-112958571D02*
X124784761Y-112958571D01*
X124927619Y-113482380D02*
X124451428Y-113482380D01*
X124451428Y-112482380D01*
X124927619Y-112482380D01*
D13*
X156210000Y-114300000D02*
X113030000Y-114300000D01*
X156210000Y-85090000D02*
X156210000Y-114300000D01*
X127000000Y-85090000D02*
X156210000Y-85090000D01*
X127000000Y-99060000D02*
X127000000Y-85090000D01*
X113030000Y-99060000D02*
X127000000Y-99060000D01*
X113030000Y-114300000D02*
X113030000Y-99060000D01*
D12*
X159553420Y-85947776D02*
X159601039Y-85804919D01*
X159648658Y-85757300D01*
X159743896Y-85709681D01*
X159886753Y-85709681D01*
X159981991Y-85757300D01*
X160029610Y-85804919D01*
X160077229Y-85900157D01*
X160077229Y-86281110D01*
X159077229Y-86281110D01*
X159077229Y-85947776D01*
X159124849Y-85852538D01*
X159172468Y-85804919D01*
X159267706Y-85757300D01*
X159362944Y-85757300D01*
X159458182Y-85804919D01*
X159505801Y-85852538D01*
X159553420Y-85947776D01*
X159553420Y-86281110D01*
X159077229Y-85090634D02*
X159077229Y-84900157D01*
X159124849Y-84804919D01*
X159220087Y-84709681D01*
X159410563Y-84662062D01*
X159743896Y-84662062D01*
X159934372Y-84709681D01*
X160029610Y-84804919D01*
X160077229Y-84900157D01*
X160077229Y-85090634D01*
X160029610Y-85185872D01*
X159934372Y-85281110D01*
X159743896Y-85328729D01*
X159410563Y-85328729D01*
X159220087Y-85281110D01*
X159124849Y-85185872D01*
X159077229Y-85090634D01*
X159077229Y-84043014D02*
X159077229Y-83852538D01*
X159124849Y-83757300D01*
X159220087Y-83662062D01*
X159410563Y-83614443D01*
X159743896Y-83614443D01*
X159934372Y-83662062D01*
X160029610Y-83757300D01*
X160077229Y-83852538D01*
X160077229Y-84043014D01*
X160029610Y-84138253D01*
X159934372Y-84233491D01*
X159743896Y-84281110D01*
X159410563Y-84281110D01*
X159220087Y-84233491D01*
X159124849Y-84138253D01*
X159077229Y-84043014D01*
X159077229Y-83328729D02*
X159077229Y-82757300D01*
X160077229Y-83043014D02*
X159077229Y-83043014D01*
X149019142Y-82224571D02*
X149352476Y-82224571D01*
X149495333Y-82748380D02*
X149019142Y-82748380D01*
X149019142Y-81748380D01*
X149495333Y-81748380D01*
X149828666Y-81748380D02*
X150495333Y-82748380D01*
X150495333Y-81748380D02*
X149828666Y-82748380D01*
X150733428Y-81748380D02*
X151304857Y-81748380D01*
X151019142Y-82748380D02*
X151019142Y-81748380D01*
X152209619Y-82748380D02*
X151876285Y-82272190D01*
X151638190Y-82748380D02*
X151638190Y-81748380D01*
X152019142Y-81748380D01*
X152114380Y-81796000D01*
X152162000Y-81843619D01*
X152209619Y-81938857D01*
X152209619Y-82081714D01*
X152162000Y-82176952D01*
X152114380Y-82224571D01*
X152019142Y-82272190D01*
X151638190Y-82272190D01*
X152590571Y-82462666D02*
X153066761Y-82462666D01*
X152495333Y-82748380D02*
X152828666Y-81748380D01*
X153162000Y-82748380D01*
X154781047Y-81796000D02*
X154685809Y-81748380D01*
X154542952Y-81748380D01*
X154400095Y-81796000D01*
X154304857Y-81891238D01*
X154257238Y-81986476D01*
X154209619Y-82176952D01*
X154209619Y-82319809D01*
X154257238Y-82510285D01*
X154304857Y-82605523D01*
X154400095Y-82700761D01*
X154542952Y-82748380D01*
X154638190Y-82748380D01*
X154781047Y-82700761D01*
X154828666Y-82653142D01*
X154828666Y-82319809D01*
X154638190Y-82319809D01*
X155257238Y-82748380D02*
X155257238Y-81748380D01*
X155638190Y-81748380D01*
X155733428Y-81796000D01*
X155781047Y-81843619D01*
X155828666Y-81938857D01*
X155828666Y-82081714D01*
X155781047Y-82176952D01*
X155733428Y-82224571D01*
X155638190Y-82272190D01*
X155257238Y-82272190D01*
X156257238Y-82748380D02*
X156257238Y-81748380D01*
X156923904Y-81748380D02*
X157114380Y-81748380D01*
X157209619Y-81796000D01*
X157304857Y-81891238D01*
X157352476Y-82081714D01*
X157352476Y-82415047D01*
X157304857Y-82605523D01*
X157209619Y-82700761D01*
X157114380Y-82748380D01*
X156923904Y-82748380D01*
X156828666Y-82700761D01*
X156733428Y-82605523D01*
X156685809Y-82415047D01*
X156685809Y-82081714D01*
X156733428Y-81891238D01*
X156828666Y-81796000D01*
X156923904Y-81748380D01*
X141182402Y-81173435D02*
X141801450Y-81173435D01*
X141468116Y-81554388D01*
X141610974Y-81554388D01*
X141706212Y-81602007D01*
X141753831Y-81649626D01*
X141801450Y-81744864D01*
X141801450Y-81982959D01*
X141753831Y-82078197D01*
X141706212Y-82125816D01*
X141610974Y-82173435D01*
X141325259Y-82173435D01*
X141230021Y-82125816D01*
X141182402Y-82078197D01*
X142230021Y-82078197D02*
X142277640Y-82125816D01*
X142230021Y-82173435D01*
X142182402Y-82125816D01*
X142230021Y-82078197D01*
X142230021Y-82173435D01*
X142610974Y-81173435D02*
X143230021Y-81173435D01*
X142896688Y-81554388D01*
X143039545Y-81554388D01*
X143134783Y-81602007D01*
X143182402Y-81649626D01*
X143230021Y-81744864D01*
X143230021Y-81982959D01*
X143182402Y-82078197D01*
X143134783Y-82125816D01*
X143039545Y-82173435D01*
X142753831Y-82173435D01*
X142658593Y-82125816D01*
X142610974Y-82078197D01*
X143563354Y-81506769D02*
X143801450Y-82173435D01*
X144039545Y-81506769D01*
X130663605Y-73575687D02*
X130187415Y-73575687D01*
X130139796Y-74051878D01*
X130187415Y-74004259D01*
X130282653Y-73956640D01*
X130520748Y-73956640D01*
X130615986Y-74004259D01*
X130663605Y-74051878D01*
X130711224Y-74147116D01*
X130711224Y-74385211D01*
X130663605Y-74480449D01*
X130615986Y-74528068D01*
X130520748Y-74575687D01*
X130282653Y-74575687D01*
X130187415Y-74528068D01*
X130139796Y-74480449D01*
X131044558Y-73909021D02*
X131282653Y-74575687D01*
X131520748Y-73909021D01*
X113098544Y-90509395D02*
X113050925Y-90557014D01*
X112908068Y-90604633D01*
X112812830Y-90604633D01*
X112669973Y-90557014D01*
X112574735Y-90461776D01*
X112527116Y-90366538D01*
X112479497Y-90176062D01*
X112479497Y-90033205D01*
X112527116Y-89842729D01*
X112574735Y-89747491D01*
X112669973Y-89652253D01*
X112812830Y-89604633D01*
X112908068Y-89604633D01*
X113050925Y-89652253D01*
X113098544Y-89699872D01*
X113717592Y-89604633D02*
X113812830Y-89604633D01*
X113908068Y-89652253D01*
X113955687Y-89699872D01*
X114003306Y-89795110D01*
X114050925Y-89985586D01*
X114050925Y-90223681D01*
X114003306Y-90414157D01*
X113955687Y-90509395D01*
X113908068Y-90557014D01*
X113812830Y-90604633D01*
X113717592Y-90604633D01*
X113622354Y-90557014D01*
X113574735Y-90509395D01*
X113527116Y-90414157D01*
X113479497Y-90223681D01*
X113479497Y-89985586D01*
X113527116Y-89795110D01*
X113574735Y-89699872D01*
X113622354Y-89652253D01*
X113717592Y-89604633D01*
X114336640Y-89604633D02*
X114669973Y-90604633D01*
X115003306Y-89604633D01*
X113598544Y-93049395D02*
X113550925Y-93097014D01*
X113408068Y-93144633D01*
X113312830Y-93144633D01*
X113169973Y-93097014D01*
X113074735Y-93001776D01*
X113027116Y-92906538D01*
X112979497Y-92716062D01*
X112979497Y-92573205D01*
X113027116Y-92382729D01*
X113074735Y-92287491D01*
X113169973Y-92192253D01*
X113312830Y-92144633D01*
X113408068Y-92144633D01*
X113550925Y-92192253D01*
X113598544Y-92239872D01*
X114503306Y-93144633D02*
X114027116Y-93144633D01*
X114027116Y-92144633D01*
X113479497Y-95589395D02*
X113431878Y-95637014D01*
X113289021Y-95684633D01*
X113193783Y-95684633D01*
X113050925Y-95637014D01*
X112955687Y-95541776D01*
X112908068Y-95446538D01*
X112860449Y-95256062D01*
X112860449Y-95113205D01*
X112908068Y-94922729D01*
X112955687Y-94827491D01*
X113050925Y-94732253D01*
X113193783Y-94684633D01*
X113289021Y-94684633D01*
X113431878Y-94732253D01*
X113479497Y-94779872D01*
X113908068Y-95684633D02*
X113908068Y-94684633D01*
X113908068Y-95160824D02*
X114479497Y-95160824D01*
X114479497Y-95684633D02*
X114479497Y-94684633D01*
X113074735Y-98224633D02*
X112503306Y-98224633D01*
X112789021Y-98224633D02*
X112789021Y-97224633D01*
X112693783Y-97367491D01*
X112598544Y-97462729D01*
X112503306Y-97510348D01*
X113455687Y-97319872D02*
X113503306Y-97272253D01*
X113598544Y-97224633D01*
X113836640Y-97224633D01*
X113931878Y-97272253D01*
X113979497Y-97319872D01*
X114027116Y-97415110D01*
X114027116Y-97510348D01*
X113979497Y-97653205D01*
X113408068Y-98224633D01*
X114027116Y-98224633D01*
X114312830Y-97224633D02*
X114646163Y-98224633D01*
X114979497Y-97224633D01*
D13*
%TO.C,U2*%
X118230000Y-85130000D02*
X118230000Y-74890000D01*
X102340000Y-85130000D02*
X102340000Y-74890000D01*
X102340000Y-85130000D02*
X118230000Y-85130000D01*
X102340000Y-74890000D02*
X118230000Y-74890000D01*
X118230000Y-82550000D02*
X120770000Y-82550000D01*
X118230000Y-80010000D02*
X120770000Y-80010000D01*
X118230000Y-77470000D02*
X120770000Y-77470000D01*
%TO.C,Y1*%
X139702821Y-98687227D02*
X133952821Y-98687227D01*
X139702821Y-102287227D02*
X139702821Y-98687227D01*
X133952821Y-102287227D02*
X139702821Y-102287227D01*
D14*
%TO.C,U6*%
X154744303Y-92609275D02*
X154744303Y-88209275D01*
X149744303Y-92609275D02*
X149744303Y-88209275D01*
D15*
X150084303Y-94649275D02*
G75*
G03*
X150084303Y-94649275I-100000J0D01*
G01*
D13*
%TO.C,U5*%
X137160000Y-109240000D02*
X140610000Y-109240000D01*
X137160000Y-109240000D02*
X135210000Y-109240000D01*
X137160000Y-104120000D02*
X139110000Y-104120000D01*
X137160000Y-104120000D02*
X135210000Y-104120000D01*
%TO.C,U4*%
X130250000Y-95300000D02*
X130250000Y-97115000D01*
X130005000Y-95300000D02*
X130250000Y-95300000D01*
X130005000Y-91440000D02*
X130005000Y-95300000D01*
X130005000Y-87580000D02*
X130250000Y-87580000D01*
X130005000Y-91440000D02*
X130005000Y-87580000D01*
X141775000Y-95300000D02*
X141530000Y-95300000D01*
X141775000Y-91440000D02*
X141775000Y-95300000D01*
X141775000Y-87580000D02*
X141530000Y-87580000D01*
X141775000Y-91440000D02*
X141775000Y-87580000D01*
%TO.C,U3*%
X187089303Y-77479275D02*
X187089303Y-77099275D01*
X193509303Y-77479275D02*
X187089303Y-77479275D01*
X193509303Y-95719275D02*
X187089303Y-95719275D01*
X193509303Y-77479275D02*
X193509303Y-95719275D01*
X167764303Y-95719275D02*
X167764303Y-94719275D01*
X168544303Y-95719275D02*
X167764303Y-95719275D01*
X167764303Y-77479275D02*
X167764303Y-78479275D01*
X168544303Y-77479275D02*
X167764303Y-77479275D01*
%TO.C,U1*%
X131790000Y-76600000D02*
X137800000Y-76600000D01*
X134040000Y-83420000D02*
X137800000Y-83420000D01*
X137800000Y-76600000D02*
X137800000Y-77860000D01*
X137800000Y-83420000D02*
X137800000Y-82160000D01*
%TO.C,TP6*%
X131510000Y-72390000D02*
G75*
G03*
X131510000Y-72390000I-700000J0D01*
G01*
%TO.C,TP5*%
X143069300Y-80017252D02*
G75*
G03*
X143069300Y-80017252I-700000J0D01*
G01*
%TO.C,SW1*%
X164254303Y-88389275D02*
X160554303Y-88389275D01*
X164254303Y-82269275D02*
X164254303Y-88389275D01*
X160554303Y-82269275D02*
X164254303Y-82269275D01*
X160554303Y-88389275D02*
X160554303Y-82269275D01*
%TO.C,R6*%
X164565000Y-95477064D02*
X164565000Y-95022936D01*
X163095000Y-95477064D02*
X163095000Y-95022936D01*
%TO.C,R5*%
X127535000Y-105182936D02*
X127535000Y-105637064D01*
X129005000Y-105182936D02*
X129005000Y-105637064D01*
%TO.C,R4*%
X127535000Y-108992936D02*
X127535000Y-109447064D01*
X129005000Y-108992936D02*
X129005000Y-109447064D01*
%TO.C,R3*%
X127535000Y-89585436D02*
X127535000Y-90039564D01*
X129005000Y-89585436D02*
X129005000Y-90039564D01*
%TO.C,R2*%
X135662936Y-111225000D02*
X136117064Y-111225000D01*
X135662936Y-109755000D02*
X136117064Y-109755000D01*
%TO.C,R1*%
X181637000Y-72670936D02*
X181637000Y-73125064D01*
X183107000Y-72670936D02*
X183107000Y-73125064D01*
%TO.C,JP3*%
X123460000Y-103570000D02*
X123460000Y-102170000D01*
X124160000Y-101470000D02*
X124760000Y-101470000D01*
X125460000Y-102170000D02*
X125460000Y-103570000D01*
X124760000Y-104270000D02*
X124160000Y-104270000D01*
X124160000Y-104270000D02*
G75*
G02*
X123460000Y-103570000I0J700000D01*
G01*
X125460000Y-103570000D02*
G75*
G02*
X124760000Y-104270000I-700000J0D01*
G01*
X124760000Y-101470000D02*
G75*
G02*
X125460000Y-102170000I0J-700000D01*
G01*
X123460000Y-102170000D02*
G75*
G02*
X124160000Y-101470000I700000J0D01*
G01*
%TO.C,JP2*%
X123460000Y-109920000D02*
X123460000Y-108520000D01*
X124160000Y-107820000D02*
X124760000Y-107820000D01*
X125460000Y-108520000D02*
X125460000Y-109920000D01*
X124760000Y-110620000D02*
X124160000Y-110620000D01*
X124160000Y-110620000D02*
G75*
G02*
X123460000Y-109920000I0J700000D01*
G01*
X125460000Y-109920000D02*
G75*
G02*
X124760000Y-110620000I-700000J0D01*
G01*
X124760000Y-107820000D02*
G75*
G02*
X125460000Y-108520000I0J-700000D01*
G01*
X123460000Y-108520000D02*
G75*
G02*
X124160000Y-107820000I700000J0D01*
G01*
%TO.C,JP1*%
X189798000Y-107756000D02*
X188468000Y-107756000D01*
X189798000Y-106426000D02*
X189798000Y-107756000D01*
X189798000Y-105156000D02*
X187138000Y-105156000D01*
X187138000Y-105156000D02*
X187138000Y-102556000D01*
X189798000Y-105156000D02*
X189798000Y-102556000D01*
X189798000Y-102556000D02*
X187138000Y-102556000D01*
%TO.C,J4*%
X162074993Y-72076495D02*
X162074993Y-73406495D01*
X160744993Y-72076495D02*
X162074993Y-72076495D01*
X162074993Y-74676495D02*
X162074993Y-77276495D01*
X159474993Y-74676495D02*
X162074993Y-74676495D01*
X159474993Y-72076495D02*
X159474993Y-74676495D01*
X162074993Y-77276495D02*
X146714993Y-77276495D01*
X159474993Y-72076495D02*
X146714993Y-72076495D01*
X146714993Y-72076495D02*
X146714993Y-77276495D01*
D11*
%TO.C,J3*%
X163619689Y-101140283D02*
X163619689Y-108340283D01*
X163619689Y-111040283D02*
X163619689Y-114140283D01*
X163619689Y-114140283D02*
X178369689Y-114140283D01*
X178369689Y-114140283D02*
X178369689Y-111040283D01*
X178369689Y-108340283D02*
X178369689Y-101140283D01*
X176869689Y-99640283D02*
X173869689Y-99640283D01*
D15*
X173169689Y-98340283D02*
X173169689Y-98340283D01*
X173369689Y-98340283D02*
X173369689Y-98340283D01*
X173169689Y-98340283D02*
G75*
G02*
X173369689Y-98340283I100000J0D01*
G01*
X173369689Y-98340283D02*
G75*
G02*
X173169689Y-98340283I-100000J0D01*
G01*
D13*
%TO.C,J2*%
X111153783Y-99042253D02*
X109883783Y-99042253D01*
X111153783Y-97772253D02*
X111153783Y-99042253D01*
X108840854Y-89772253D02*
X108443783Y-89772253D01*
X108840854Y-90532253D02*
X108443783Y-90532253D01*
X99783783Y-89772253D02*
X105783783Y-89772253D01*
X99783783Y-90532253D02*
X99783783Y-89772253D01*
X105783783Y-90532253D02*
X99783783Y-90532253D01*
X108443783Y-91422253D02*
X105783783Y-91422253D01*
X108840854Y-92312253D02*
X108443783Y-92312253D01*
X108840854Y-93072253D02*
X108443783Y-93072253D01*
X99783783Y-92312253D02*
X105783783Y-92312253D01*
X99783783Y-93072253D02*
X99783783Y-92312253D01*
X105783783Y-93072253D02*
X99783783Y-93072253D01*
X108443783Y-93962253D02*
X105783783Y-93962253D01*
X108840854Y-94852253D02*
X108443783Y-94852253D01*
X108840854Y-95612253D02*
X108443783Y-95612253D01*
X99783783Y-94852253D02*
X105783783Y-94852253D01*
X99783783Y-95612253D02*
X99783783Y-94852253D01*
X105783783Y-95612253D02*
X99783783Y-95612253D01*
X108443783Y-96502253D02*
X105783783Y-96502253D01*
X108773783Y-97392253D02*
X108443783Y-97392253D01*
X108773783Y-98152253D02*
X108443783Y-98152253D01*
X105783783Y-97492253D02*
X99783783Y-97492253D01*
X105783783Y-97612253D02*
X99783783Y-97612253D01*
X105783783Y-97732253D02*
X99783783Y-97732253D01*
X105783783Y-97852253D02*
X99783783Y-97852253D01*
X105783783Y-97972253D02*
X99783783Y-97972253D01*
X105783783Y-98092253D02*
X99783783Y-98092253D01*
X99783783Y-97392253D02*
X105783783Y-97392253D01*
X99783783Y-98152253D02*
X99783783Y-97392253D01*
X105783783Y-98152253D02*
X99783783Y-98152253D01*
X105783783Y-99102253D02*
X108443783Y-99102253D01*
X105783783Y-88822253D02*
X105783783Y-99102253D01*
X108443783Y-88822253D02*
X105783783Y-88822253D01*
X108443783Y-99102253D02*
X108443783Y-88822253D01*
%TO.C,J1*%
X181394303Y-99239275D02*
X182724303Y-99239275D01*
X181394303Y-100569275D02*
X181394303Y-99239275D01*
X181394303Y-101839275D02*
X184054303Y-101839275D01*
X184054303Y-101839275D02*
X184054303Y-114599275D01*
X181394303Y-101839275D02*
X181394303Y-114599275D01*
X181394303Y-114599275D02*
X184054303Y-114599275D01*
%TO.C,F1*%
X125220000Y-87467221D02*
X125220000Y-87792779D01*
X126240000Y-87467221D02*
X126240000Y-87792779D01*
%TO.C,D2*%
X160330000Y-93565000D02*
X160330000Y-96250000D01*
X162250000Y-93565000D02*
X160330000Y-93565000D01*
X162250000Y-96250000D02*
X162250000Y-93565000D01*
%TO.C,D1*%
X123480000Y-72660000D02*
X127380000Y-72660000D01*
X123480000Y-74660000D02*
X127380000Y-74660000D01*
X123480000Y-72660000D02*
X123480000Y-74660000D01*
%TO.C,C16*%
X142775000Y-110228748D02*
X142775000Y-110751252D01*
X144245000Y-110228748D02*
X144245000Y-110751252D01*
%TO.C,C15*%
X131545000Y-105671252D02*
X131545000Y-105148748D01*
X130075000Y-105671252D02*
X130075000Y-105148748D01*
%TO.C,C14*%
X144245000Y-106941252D02*
X144245000Y-106418748D01*
X142775000Y-106941252D02*
X142775000Y-106418748D01*
%TO.C,C13*%
X144245000Y-92971252D02*
X144245000Y-92448748D01*
X142775000Y-92971252D02*
X142775000Y-92448748D01*
%TO.C,C12*%
X146785000Y-92971252D02*
X146785000Y-92448748D01*
X145315000Y-92971252D02*
X145315000Y-92448748D01*
%TO.C,C11*%
X125991252Y-81815000D02*
X125468748Y-81815000D01*
X125991252Y-83285000D02*
X125468748Y-83285000D01*
%TO.C,C10*%
X151235555Y-98564275D02*
X150713051Y-98564275D01*
X151235555Y-100034275D02*
X150713051Y-100034275D01*
%TO.C,C9*%
X151235555Y-96024275D02*
X150713051Y-96024275D01*
X151235555Y-97494275D02*
X150713051Y-97494275D01*
%TO.C,C8*%
X144245000Y-100591252D02*
X144245000Y-100068748D01*
X142775000Y-100591252D02*
X142775000Y-100068748D01*
%TO.C,C7*%
X131071252Y-99595000D02*
X130548748Y-99595000D01*
X131071252Y-101065000D02*
X130548748Y-101065000D01*
%TO.C,C6*%
X185525555Y-71894275D02*
X185003051Y-71894275D01*
X185525555Y-73364275D02*
X185003051Y-73364275D01*
%TO.C,C5*%
X185525555Y-74434275D02*
X185003051Y-74434275D01*
X185525555Y-75904275D02*
X185003051Y-75904275D01*
%TO.C,C4*%
X138691252Y-71655000D02*
X138168748Y-71655000D01*
X138691252Y-73125000D02*
X138168748Y-73125000D01*
%TO.C,C3*%
X125468748Y-80745000D02*
X125991252Y-80745000D01*
X125468748Y-79275000D02*
X125991252Y-79275000D01*
%TO.C,C2*%
X181871252Y-74957000D02*
X181348748Y-74957000D01*
X181871252Y-76427000D02*
X181348748Y-76427000D01*
%TO.C,C1*%
X134358748Y-73125000D02*
X134881252Y-73125000D01*
X134358748Y-71655000D02*
X134881252Y-71655000D01*
%TO.C,U2*%
D12*
X100792380Y-80771904D02*
X101601904Y-80771904D01*
X101697142Y-80724285D01*
X101744761Y-80676666D01*
X101792380Y-80581428D01*
X101792380Y-80390952D01*
X101744761Y-80295714D01*
X101697142Y-80248095D01*
X101601904Y-80200476D01*
X100792380Y-80200476D01*
X100887619Y-79771904D02*
X100840000Y-79724285D01*
X100792380Y-79629047D01*
X100792380Y-79390952D01*
X100840000Y-79295714D01*
X100887619Y-79248095D01*
X100982857Y-79200476D01*
X101078095Y-79200476D01*
X101220952Y-79248095D01*
X101792380Y-79819523D01*
X101792380Y-79200476D01*
%TO.C,L4*%
X117551276Y-93917602D02*
X117075085Y-93917602D01*
X117075085Y-92917602D01*
X118313181Y-93250936D02*
X118313181Y-93917602D01*
X118075085Y-92869983D02*
X117836990Y-93584269D01*
X118456038Y-93584269D01*
%TO.C,L3*%
X114742841Y-104788442D02*
X114266650Y-104788442D01*
X114266650Y-103788442D01*
X114980936Y-103788442D02*
X115599984Y-103788442D01*
X115266650Y-104169395D01*
X115409508Y-104169395D01*
X115504746Y-104217014D01*
X115552365Y-104264633D01*
X115599984Y-104359871D01*
X115599984Y-104597966D01*
X115552365Y-104693204D01*
X115504746Y-104740823D01*
X115409508Y-104788442D01*
X115123793Y-104788442D01*
X115028555Y-104740823D01*
X114980936Y-104693204D01*
%TO.C,L2*%
X114712427Y-111145026D02*
X114236236Y-111145026D01*
X114236236Y-110145026D01*
X114998141Y-110240265D02*
X115045760Y-110192646D01*
X115140998Y-110145026D01*
X115379094Y-110145026D01*
X115474332Y-110192646D01*
X115521951Y-110240265D01*
X115569570Y-110335503D01*
X115569570Y-110430741D01*
X115521951Y-110573598D01*
X114950522Y-111145026D01*
X115569570Y-111145026D01*
%TO.C,L1*%
X117559416Y-87630709D02*
X117083225Y-87630709D01*
X117083225Y-86630709D01*
X118416559Y-87630709D02*
X117845130Y-87630709D01*
X118130844Y-87630709D02*
X118130844Y-86630709D01*
X118035606Y-86773567D01*
X117940368Y-86868805D01*
X117845130Y-86916424D01*
%TO.C,Y1*%
X140387373Y-100496020D02*
X140387373Y-100972210D01*
X140054040Y-99972210D02*
X140387373Y-100496020D01*
X140720706Y-99972210D01*
X141577849Y-100972210D02*
X141006421Y-100972210D01*
X141292135Y-100972210D02*
X141292135Y-99972210D01*
X141196897Y-100115068D01*
X141101659Y-100210306D01*
X141006421Y-100257925D01*
%TO.C,U6*%
D16*
X148261683Y-91766179D02*
X149071207Y-91766179D01*
X149166445Y-91718560D01*
X149214064Y-91670941D01*
X149261683Y-91575703D01*
X149261683Y-91385227D01*
X149214064Y-91289989D01*
X149166445Y-91242370D01*
X149071207Y-91194751D01*
X148261683Y-91194751D01*
X148261683Y-90289989D02*
X148261683Y-90480465D01*
X148309303Y-90575703D01*
X148356922Y-90623322D01*
X148499779Y-90718560D01*
X148690255Y-90766179D01*
X149071207Y-90766179D01*
X149166445Y-90718560D01*
X149214064Y-90670941D01*
X149261683Y-90575703D01*
X149261683Y-90385227D01*
X149214064Y-90289989D01*
X149166445Y-90242370D01*
X149071207Y-90194751D01*
X148833112Y-90194751D01*
X148737874Y-90242370D01*
X148690255Y-90289989D01*
X148642636Y-90385227D01*
X148642636Y-90575703D01*
X148690255Y-90670941D01*
X148737874Y-90718560D01*
X148833112Y-90766179D01*
%TO.C,U5*%
D12*
X138938095Y-109532380D02*
X138938095Y-110341904D01*
X138985714Y-110437142D01*
X139033333Y-110484761D01*
X139128571Y-110532380D01*
X139319047Y-110532380D01*
X139414285Y-110484761D01*
X139461904Y-110437142D01*
X139509523Y-110341904D01*
X139509523Y-109532380D01*
X140461904Y-109532380D02*
X139985714Y-109532380D01*
X139938095Y-110008571D01*
X139985714Y-109960952D01*
X140080952Y-109913333D01*
X140319047Y-109913333D01*
X140414285Y-109960952D01*
X140461904Y-110008571D01*
X140509523Y-110103809D01*
X140509523Y-110341904D01*
X140461904Y-110437142D01*
X140414285Y-110484761D01*
X140319047Y-110532380D01*
X140080952Y-110532380D01*
X139985714Y-110484761D01*
X139938095Y-110437142D01*
%TO.C,U4*%
X128622380Y-96011904D02*
X129431904Y-96011904D01*
X129527142Y-95964285D01*
X129574761Y-95916666D01*
X129622380Y-95821428D01*
X129622380Y-95630952D01*
X129574761Y-95535714D01*
X129527142Y-95488095D01*
X129431904Y-95440476D01*
X128622380Y-95440476D01*
X128955714Y-94535714D02*
X129622380Y-94535714D01*
X128574761Y-94773809D02*
X129289047Y-95011904D01*
X129289047Y-94392857D01*
%TO.C,U3*%
X168452398Y-75441655D02*
X168452398Y-76251179D01*
X168500017Y-76346417D01*
X168547636Y-76394036D01*
X168642874Y-76441655D01*
X168833350Y-76441655D01*
X168928588Y-76394036D01*
X168976207Y-76346417D01*
X169023826Y-76251179D01*
X169023826Y-75441655D01*
X169404779Y-75441655D02*
X170023826Y-75441655D01*
X169690493Y-75822608D01*
X169833350Y-75822608D01*
X169928588Y-75870227D01*
X169976207Y-75917846D01*
X170023826Y-76013084D01*
X170023826Y-76251179D01*
X169976207Y-76346417D01*
X169928588Y-76394036D01*
X169833350Y-76441655D01*
X169547636Y-76441655D01*
X169452398Y-76394036D01*
X169404779Y-76346417D01*
%TO.C,U1*%
X132588095Y-74962380D02*
X132588095Y-75771904D01*
X132635714Y-75867142D01*
X132683333Y-75914761D01*
X132778571Y-75962380D01*
X132969047Y-75962380D01*
X133064285Y-75914761D01*
X133111904Y-75867142D01*
X133159523Y-75771904D01*
X133159523Y-74962380D01*
X134159523Y-75962380D02*
X133588095Y-75962380D01*
X133873809Y-75962380D02*
X133873809Y-74962380D01*
X133778571Y-75105238D01*
X133683333Y-75200476D01*
X133588095Y-75248095D01*
%TO.C,TP6*%
X129548095Y-70394380D02*
X130119523Y-70394380D01*
X129833809Y-71394380D02*
X129833809Y-70394380D01*
X130452857Y-71394380D02*
X130452857Y-70394380D01*
X130833809Y-70394380D01*
X130929047Y-70442000D01*
X130976666Y-70489619D01*
X131024285Y-70584857D01*
X131024285Y-70727714D01*
X130976666Y-70822952D01*
X130929047Y-70870571D01*
X130833809Y-70918190D01*
X130452857Y-70918190D01*
X131881428Y-70394380D02*
X131690952Y-70394380D01*
X131595714Y-70442000D01*
X131548095Y-70489619D01*
X131452857Y-70632476D01*
X131405238Y-70822952D01*
X131405238Y-71203904D01*
X131452857Y-71299142D01*
X131500476Y-71346761D01*
X131595714Y-71394380D01*
X131786190Y-71394380D01*
X131881428Y-71346761D01*
X131929047Y-71299142D01*
X131976666Y-71203904D01*
X131976666Y-70965809D01*
X131929047Y-70870571D01*
X131881428Y-70822952D01*
X131786190Y-70775333D01*
X131595714Y-70775333D01*
X131500476Y-70822952D01*
X131452857Y-70870571D01*
X131405238Y-70965809D01*
%TO.C,TP5*%
X141107395Y-78021632D02*
X141678823Y-78021632D01*
X141393109Y-79021632D02*
X141393109Y-78021632D01*
X142012157Y-79021632D02*
X142012157Y-78021632D01*
X142393109Y-78021632D01*
X142488347Y-78069252D01*
X142535966Y-78116871D01*
X142583585Y-78212109D01*
X142583585Y-78354966D01*
X142535966Y-78450204D01*
X142488347Y-78497823D01*
X142393109Y-78545442D01*
X142012157Y-78545442D01*
X143488347Y-78021632D02*
X143012157Y-78021632D01*
X142964538Y-78497823D01*
X143012157Y-78450204D01*
X143107395Y-78402585D01*
X143345490Y-78402585D01*
X143440728Y-78450204D01*
X143488347Y-78497823D01*
X143535966Y-78593061D01*
X143535966Y-78831156D01*
X143488347Y-78926394D01*
X143440728Y-78974013D01*
X143345490Y-79021632D01*
X143107395Y-79021632D01*
X143012157Y-78974013D01*
X142964538Y-78926394D01*
%TO.C,SW1*%
X160209064Y-90233333D02*
X160256683Y-90090476D01*
X160256683Y-89852380D01*
X160209064Y-89757142D01*
X160161445Y-89709523D01*
X160066207Y-89661904D01*
X159970969Y-89661904D01*
X159875731Y-89709523D01*
X159828112Y-89757142D01*
X159780493Y-89852380D01*
X159732874Y-90042857D01*
X159685255Y-90138095D01*
X159637636Y-90185714D01*
X159542398Y-90233333D01*
X159447160Y-90233333D01*
X159351922Y-90185714D01*
X159304303Y-90138095D01*
X159256683Y-90042857D01*
X159256683Y-89804761D01*
X159304303Y-89661904D01*
X159256683Y-89328571D02*
X160256683Y-89090476D01*
X159542398Y-88900000D01*
X160256683Y-88709523D01*
X159256683Y-88471428D01*
X160256683Y-87566666D02*
X160256683Y-88138095D01*
X160256683Y-87852380D02*
X159256683Y-87852380D01*
X159399541Y-87947619D01*
X159494779Y-88042857D01*
X159542398Y-88138095D01*
%TO.C,R6*%
X164387199Y-92580330D02*
X163911009Y-92913664D01*
X164387199Y-93151759D02*
X163387199Y-93151759D01*
X163387199Y-92770806D01*
X163434819Y-92675568D01*
X163482438Y-92627949D01*
X163577676Y-92580330D01*
X163720533Y-92580330D01*
X163815771Y-92627949D01*
X163863390Y-92675568D01*
X163911009Y-92770806D01*
X163911009Y-93151759D01*
X163387199Y-91723187D02*
X163387199Y-91913664D01*
X163434819Y-92008902D01*
X163482438Y-92056521D01*
X163625295Y-92151759D01*
X163815771Y-92199378D01*
X164196723Y-92199378D01*
X164291961Y-92151759D01*
X164339580Y-92104140D01*
X164387199Y-92008902D01*
X164387199Y-91818425D01*
X164339580Y-91723187D01*
X164291961Y-91675568D01*
X164196723Y-91627949D01*
X163958628Y-91627949D01*
X163863390Y-91675568D01*
X163815771Y-91723187D01*
X163768152Y-91818425D01*
X163768152Y-92008902D01*
X163815771Y-92104140D01*
X163863390Y-92151759D01*
X163958628Y-92199378D01*
%TO.C,R5*%
X128713440Y-102750035D02*
X128237250Y-103083369D01*
X128713440Y-103321464D02*
X127713440Y-103321464D01*
X127713440Y-102940511D01*
X127761060Y-102845273D01*
X127808679Y-102797654D01*
X127903917Y-102750035D01*
X128046774Y-102750035D01*
X128142012Y-102797654D01*
X128189631Y-102845273D01*
X128237250Y-102940511D01*
X128237250Y-103321464D01*
X127713440Y-101845273D02*
X127713440Y-102321464D01*
X128189631Y-102369083D01*
X128142012Y-102321464D01*
X128094393Y-102226226D01*
X128094393Y-101988130D01*
X128142012Y-101892892D01*
X128189631Y-101845273D01*
X128284869Y-101797654D01*
X128522964Y-101797654D01*
X128618202Y-101845273D01*
X128665821Y-101892892D01*
X128713440Y-101988130D01*
X128713440Y-102226226D01*
X128665821Y-102321464D01*
X128618202Y-102369083D01*
%TO.C,R4*%
X128696039Y-112111525D02*
X128219849Y-112444859D01*
X128696039Y-112682954D02*
X127696039Y-112682954D01*
X127696039Y-112302001D01*
X127743659Y-112206763D01*
X127791278Y-112159144D01*
X127886516Y-112111525D01*
X128029373Y-112111525D01*
X128124611Y-112159144D01*
X128172230Y-112206763D01*
X128219849Y-112302001D01*
X128219849Y-112682954D01*
X128029373Y-111254382D02*
X128696039Y-111254382D01*
X127648420Y-111492478D02*
X128362706Y-111730573D01*
X128362706Y-111111525D01*
%TO.C,R3*%
X128780171Y-86994255D02*
X128303981Y-87327589D01*
X128780171Y-87565684D02*
X127780171Y-87565684D01*
X127780171Y-87184731D01*
X127827791Y-87089493D01*
X127875410Y-87041874D01*
X127970648Y-86994255D01*
X128113505Y-86994255D01*
X128208743Y-87041874D01*
X128256362Y-87089493D01*
X128303981Y-87184731D01*
X128303981Y-87565684D01*
X127780171Y-86660922D02*
X127780171Y-86041874D01*
X128161124Y-86375208D01*
X128161124Y-86232350D01*
X128208743Y-86137112D01*
X128256362Y-86089493D01*
X128351600Y-86041874D01*
X128589695Y-86041874D01*
X128684933Y-86089493D01*
X128732552Y-86137112D01*
X128780171Y-86232350D01*
X128780171Y-86518065D01*
X128732552Y-86613303D01*
X128684933Y-86660922D01*
%TO.C,R2*%
X132914342Y-110918432D02*
X132581009Y-110442242D01*
X132342913Y-110918432D02*
X132342913Y-109918432D01*
X132723866Y-109918432D01*
X132819104Y-109966052D01*
X132866723Y-110013671D01*
X132914342Y-110108909D01*
X132914342Y-110251766D01*
X132866723Y-110347004D01*
X132819104Y-110394623D01*
X132723866Y-110442242D01*
X132342913Y-110442242D01*
X133295294Y-110013671D02*
X133342913Y-109966052D01*
X133438151Y-109918432D01*
X133676247Y-109918432D01*
X133771485Y-109966052D01*
X133819104Y-110013671D01*
X133866723Y-110108909D01*
X133866723Y-110204147D01*
X133819104Y-110347004D01*
X133247675Y-110918432D01*
X133866723Y-110918432D01*
%TO.C,R1*%
X181300380Y-73111991D02*
X180824190Y-73445325D01*
X181300380Y-73683420D02*
X180300380Y-73683420D01*
X180300380Y-73302467D01*
X180348000Y-73207229D01*
X180395619Y-73159610D01*
X180490857Y-73111991D01*
X180633714Y-73111991D01*
X180728952Y-73159610D01*
X180776571Y-73207229D01*
X180824190Y-73302467D01*
X180824190Y-73683420D01*
X181300380Y-72159610D02*
X181300380Y-72731039D01*
X181300380Y-72445325D02*
X180300380Y-72445325D01*
X180443238Y-72540563D01*
X180538476Y-72635801D01*
X180586095Y-72731039D01*
%TO.C,JP3*%
X122112380Y-103703333D02*
X122826666Y-103703333D01*
X122969523Y-103750952D01*
X123064761Y-103846190D01*
X123112380Y-103989047D01*
X123112380Y-104084285D01*
X123112380Y-103227142D02*
X122112380Y-103227142D01*
X122112380Y-102846190D01*
X122160000Y-102750952D01*
X122207619Y-102703333D01*
X122302857Y-102655714D01*
X122445714Y-102655714D01*
X122540952Y-102703333D01*
X122588571Y-102750952D01*
X122636190Y-102846190D01*
X122636190Y-103227142D01*
X122112380Y-102322380D02*
X122112380Y-101703333D01*
X122493333Y-102036666D01*
X122493333Y-101893809D01*
X122540952Y-101798571D01*
X122588571Y-101750952D01*
X122683809Y-101703333D01*
X122921904Y-101703333D01*
X123017142Y-101750952D01*
X123064761Y-101798571D01*
X123112380Y-101893809D01*
X123112380Y-102179523D01*
X123064761Y-102274761D01*
X123017142Y-102322380D01*
%TO.C,JP2*%
X122112380Y-110053333D02*
X122826666Y-110053333D01*
X122969523Y-110100952D01*
X123064761Y-110196190D01*
X123112380Y-110339047D01*
X123112380Y-110434285D01*
X123112380Y-109577142D02*
X122112380Y-109577142D01*
X122112380Y-109196190D01*
X122160000Y-109100952D01*
X122207619Y-109053333D01*
X122302857Y-109005714D01*
X122445714Y-109005714D01*
X122540952Y-109053333D01*
X122588571Y-109100952D01*
X122636190Y-109196190D01*
X122636190Y-109577142D01*
X122207619Y-108624761D02*
X122160000Y-108577142D01*
X122112380Y-108481904D01*
X122112380Y-108243809D01*
X122160000Y-108148571D01*
X122207619Y-108100952D01*
X122302857Y-108053333D01*
X122398095Y-108053333D01*
X122540952Y-108100952D01*
X123112380Y-108672380D01*
X123112380Y-108053333D01*
%TO.C,JP1*%
X187634666Y-108208380D02*
X187634666Y-108922666D01*
X187587047Y-109065523D01*
X187491809Y-109160761D01*
X187348952Y-109208380D01*
X187253714Y-109208380D01*
X188110857Y-109208380D02*
X188110857Y-108208380D01*
X188491809Y-108208380D01*
X188587047Y-108256000D01*
X188634666Y-108303619D01*
X188682285Y-108398857D01*
X188682285Y-108541714D01*
X188634666Y-108636952D01*
X188587047Y-108684571D01*
X188491809Y-108732190D01*
X188110857Y-108732190D01*
X189634666Y-109208380D02*
X189063238Y-109208380D01*
X189348952Y-109208380D02*
X189348952Y-108208380D01*
X189253714Y-108351238D01*
X189158476Y-108446476D01*
X189063238Y-108494095D01*
%TO.C,J4*%
X162527373Y-75009828D02*
X163241659Y-75009828D01*
X163384516Y-75057447D01*
X163479754Y-75152685D01*
X163527373Y-75295542D01*
X163527373Y-75390780D01*
X162860707Y-74105066D02*
X163527373Y-74105066D01*
X162479754Y-74343161D02*
X163194040Y-74581256D01*
X163194040Y-73962209D01*
%TO.C,J3*%
D17*
X170346355Y-105794806D02*
X170346355Y-106701949D01*
X170285879Y-106883378D01*
X170164927Y-107004330D01*
X169983498Y-107064806D01*
X169862546Y-107064806D01*
X170830165Y-105794806D02*
X171616355Y-105794806D01*
X171193022Y-106278616D01*
X171374450Y-106278616D01*
X171495403Y-106339092D01*
X171555879Y-106399568D01*
X171616355Y-106520521D01*
X171616355Y-106822902D01*
X171555879Y-106943854D01*
X171495403Y-107004330D01*
X171374450Y-107064806D01*
X171011593Y-107064806D01*
X170890641Y-107004330D01*
X170830165Y-106943854D01*
%TO.C,J2*%
D12*
X108886666Y-99782380D02*
X108886666Y-100496666D01*
X108839047Y-100639523D01*
X108743809Y-100734761D01*
X108600952Y-100782380D01*
X108505714Y-100782380D01*
X109315238Y-99877619D02*
X109362857Y-99830000D01*
X109458095Y-99782380D01*
X109696190Y-99782380D01*
X109791428Y-99830000D01*
X109839047Y-99877619D01*
X109886666Y-99972857D01*
X109886666Y-100068095D01*
X109839047Y-100210952D01*
X109267619Y-100782380D01*
X109886666Y-100782380D01*
%TO.C,J1*%
X182390969Y-97691655D02*
X182390969Y-98405941D01*
X182343350Y-98548798D01*
X182248112Y-98644036D01*
X182105255Y-98691655D01*
X182010017Y-98691655D01*
X183390969Y-98691655D02*
X182819541Y-98691655D01*
X183105255Y-98691655D02*
X183105255Y-97691655D01*
X183010017Y-97834513D01*
X182914779Y-97929751D01*
X182819541Y-97977370D01*
X185491428Y-111291809D02*
X185491428Y-110958476D01*
X184967619Y-110958476D02*
X185967619Y-110958476D01*
X185967619Y-111434666D01*
X185967619Y-111672761D02*
X185967619Y-112244190D01*
X184967619Y-111958476D02*
X185967619Y-111958476D01*
X184967619Y-112577523D02*
X185967619Y-112577523D01*
X185967619Y-112815619D01*
X185920000Y-112958476D01*
X185824761Y-113053714D01*
X185729523Y-113101333D01*
X185539047Y-113148952D01*
X185396190Y-113148952D01*
X185205714Y-113101333D01*
X185110476Y-113053714D01*
X185015238Y-112958476D01*
X184967619Y-112815619D01*
X184967619Y-112577523D01*
X184967619Y-113577523D02*
X185967619Y-113577523D01*
%TO.C,F1*%
X125658571Y-90503333D02*
X125658571Y-90836666D01*
X126182380Y-90836666D02*
X125182380Y-90836666D01*
X125182380Y-90360476D01*
X126182380Y-89455714D02*
X126182380Y-90027142D01*
X126182380Y-89741428D02*
X125182380Y-89741428D01*
X125325238Y-89836666D01*
X125420476Y-89931904D01*
X125468095Y-90027142D01*
%TO.C,D2*%
X161779042Y-93233994D02*
X160779042Y-93233994D01*
X160779042Y-92995899D01*
X160826662Y-92853041D01*
X160921900Y-92757803D01*
X161017138Y-92710184D01*
X161207614Y-92662565D01*
X161350471Y-92662565D01*
X161540947Y-92710184D01*
X161636185Y-92757803D01*
X161731423Y-92853041D01*
X161779042Y-92995899D01*
X161779042Y-93233994D01*
X160874281Y-92281613D02*
X160826662Y-92233994D01*
X160779042Y-92138756D01*
X160779042Y-91900660D01*
X160826662Y-91805422D01*
X160874281Y-91757803D01*
X160969519Y-91710184D01*
X161064757Y-91710184D01*
X161207614Y-91757803D01*
X161779042Y-92329232D01*
X161779042Y-91710184D01*
%TO.C,D1*%
X124991904Y-72112380D02*
X124991904Y-71112380D01*
X125230000Y-71112380D01*
X125372857Y-71160000D01*
X125468095Y-71255238D01*
X125515714Y-71350476D01*
X125563333Y-71540952D01*
X125563333Y-71683809D01*
X125515714Y-71874285D01*
X125468095Y-71969523D01*
X125372857Y-72064761D01*
X125230000Y-72112380D01*
X124991904Y-72112380D01*
X126515714Y-72112380D02*
X125944285Y-72112380D01*
X126230000Y-72112380D02*
X126230000Y-71112380D01*
X126134761Y-71255238D01*
X126039523Y-71350476D01*
X125944285Y-71398095D01*
%TO.C,C16*%
X145547142Y-111132857D02*
X145594761Y-111180476D01*
X145642380Y-111323333D01*
X145642380Y-111418571D01*
X145594761Y-111561428D01*
X145499523Y-111656666D01*
X145404285Y-111704285D01*
X145213809Y-111751904D01*
X145070952Y-111751904D01*
X144880476Y-111704285D01*
X144785238Y-111656666D01*
X144690000Y-111561428D01*
X144642380Y-111418571D01*
X144642380Y-111323333D01*
X144690000Y-111180476D01*
X144737619Y-111132857D01*
X145642380Y-110180476D02*
X145642380Y-110751904D01*
X145642380Y-110466190D02*
X144642380Y-110466190D01*
X144785238Y-110561428D01*
X144880476Y-110656666D01*
X144928095Y-110751904D01*
X144642380Y-109323333D02*
X144642380Y-109513809D01*
X144690000Y-109609047D01*
X144737619Y-109656666D01*
X144880476Y-109751904D01*
X145070952Y-109799523D01*
X145451904Y-109799523D01*
X145547142Y-109751904D01*
X145594761Y-109704285D01*
X145642380Y-109609047D01*
X145642380Y-109418571D01*
X145594761Y-109323333D01*
X145547142Y-109275714D01*
X145451904Y-109228095D01*
X145213809Y-109228095D01*
X145118571Y-109275714D01*
X145070952Y-109323333D01*
X145023333Y-109418571D01*
X145023333Y-109609047D01*
X145070952Y-109704285D01*
X145118571Y-109751904D01*
X145213809Y-109799523D01*
%TO.C,C15*%
X131176081Y-109316415D02*
X131223700Y-109364034D01*
X131271319Y-109506891D01*
X131271319Y-109602129D01*
X131223700Y-109744986D01*
X131128462Y-109840224D01*
X131033224Y-109887843D01*
X130842748Y-109935462D01*
X130699891Y-109935462D01*
X130509415Y-109887843D01*
X130414177Y-109840224D01*
X130318939Y-109744986D01*
X130271319Y-109602129D01*
X130271319Y-109506891D01*
X130318939Y-109364034D01*
X130366558Y-109316415D01*
X131271319Y-108364034D02*
X131271319Y-108935462D01*
X131271319Y-108649748D02*
X130271319Y-108649748D01*
X130414177Y-108744986D01*
X130509415Y-108840224D01*
X130557034Y-108935462D01*
X130271319Y-107459272D02*
X130271319Y-107935462D01*
X130747510Y-107983081D01*
X130699891Y-107935462D01*
X130652272Y-107840224D01*
X130652272Y-107602129D01*
X130699891Y-107506891D01*
X130747510Y-107459272D01*
X130842748Y-107411653D01*
X131080843Y-107411653D01*
X131176081Y-107459272D01*
X131223700Y-107506891D01*
X131271319Y-107602129D01*
X131271319Y-107840224D01*
X131223700Y-107935462D01*
X131176081Y-107983081D01*
%TO.C,C14*%
X146407142Y-107322857D02*
X146454761Y-107370476D01*
X146502380Y-107513333D01*
X146502380Y-107608571D01*
X146454761Y-107751428D01*
X146359523Y-107846666D01*
X146264285Y-107894285D01*
X146073809Y-107941904D01*
X145930952Y-107941904D01*
X145740476Y-107894285D01*
X145645238Y-107846666D01*
X145550000Y-107751428D01*
X145502380Y-107608571D01*
X145502380Y-107513333D01*
X145550000Y-107370476D01*
X145597619Y-107322857D01*
X146502380Y-106370476D02*
X146502380Y-106941904D01*
X146502380Y-106656190D02*
X145502380Y-106656190D01*
X145645238Y-106751428D01*
X145740476Y-106846666D01*
X145788095Y-106941904D01*
X145835714Y-105513333D02*
X146502380Y-105513333D01*
X145454761Y-105751428D02*
X146169047Y-105989523D01*
X146169047Y-105370476D01*
%TO.C,C13*%
X143910404Y-90072616D02*
X143958023Y-90120235D01*
X144005642Y-90263092D01*
X144005642Y-90358330D01*
X143958023Y-90501187D01*
X143862785Y-90596425D01*
X143767547Y-90644044D01*
X143577071Y-90691663D01*
X143434214Y-90691663D01*
X143243738Y-90644044D01*
X143148500Y-90596425D01*
X143053262Y-90501187D01*
X143005642Y-90358330D01*
X143005642Y-90263092D01*
X143053262Y-90120235D01*
X143100881Y-90072616D01*
X144005642Y-89120235D02*
X144005642Y-89691663D01*
X144005642Y-89405949D02*
X143005642Y-89405949D01*
X143148500Y-89501187D01*
X143243738Y-89596425D01*
X143291357Y-89691663D01*
X143005642Y-88786901D02*
X143005642Y-88167854D01*
X143386595Y-88501187D01*
X143386595Y-88358330D01*
X143434214Y-88263092D01*
X143481833Y-88215473D01*
X143577071Y-88167854D01*
X143815166Y-88167854D01*
X143910404Y-88215473D01*
X143958023Y-88263092D01*
X144005642Y-88358330D01*
X144005642Y-88644044D01*
X143958023Y-88739282D01*
X143910404Y-88786901D01*
%TO.C,C12*%
X146398681Y-90003014D02*
X146446300Y-90050633D01*
X146493919Y-90193490D01*
X146493919Y-90288728D01*
X146446300Y-90431585D01*
X146351062Y-90526823D01*
X146255824Y-90574442D01*
X146065348Y-90622061D01*
X145922491Y-90622061D01*
X145732015Y-90574442D01*
X145636777Y-90526823D01*
X145541539Y-90431585D01*
X145493919Y-90288728D01*
X145493919Y-90193490D01*
X145541539Y-90050633D01*
X145589158Y-90003014D01*
X146493919Y-89050633D02*
X146493919Y-89622061D01*
X146493919Y-89336347D02*
X145493919Y-89336347D01*
X145636777Y-89431585D01*
X145732015Y-89526823D01*
X145779634Y-89622061D01*
X145589158Y-88669680D02*
X145541539Y-88622061D01*
X145493919Y-88526823D01*
X145493919Y-88288728D01*
X145541539Y-88193490D01*
X145589158Y-88145871D01*
X145684396Y-88098252D01*
X145779634Y-88098252D01*
X145922491Y-88145871D01*
X146493919Y-88717299D01*
X146493919Y-88098252D01*
%TO.C,C11*%
X125087142Y-84587142D02*
X125039523Y-84634761D01*
X124896666Y-84682380D01*
X124801428Y-84682380D01*
X124658571Y-84634761D01*
X124563333Y-84539523D01*
X124515714Y-84444285D01*
X124468095Y-84253809D01*
X124468095Y-84110952D01*
X124515714Y-83920476D01*
X124563333Y-83825238D01*
X124658571Y-83730000D01*
X124801428Y-83682380D01*
X124896666Y-83682380D01*
X125039523Y-83730000D01*
X125087142Y-83777619D01*
X126039523Y-84682380D02*
X125468095Y-84682380D01*
X125753809Y-84682380D02*
X125753809Y-83682380D01*
X125658571Y-83825238D01*
X125563333Y-83920476D01*
X125468095Y-83968095D01*
X126991904Y-84682380D02*
X126420476Y-84682380D01*
X126706190Y-84682380D02*
X126706190Y-83682380D01*
X126610952Y-83825238D01*
X126515714Y-83920476D01*
X126420476Y-83968095D01*
%TO.C,C10*%
X153662358Y-99676697D02*
X153614739Y-99724316D01*
X153471882Y-99771935D01*
X153376644Y-99771935D01*
X153233787Y-99724316D01*
X153138549Y-99629078D01*
X153090930Y-99533840D01*
X153043311Y-99343364D01*
X153043311Y-99200507D01*
X153090930Y-99010031D01*
X153138549Y-98914793D01*
X153233787Y-98819555D01*
X153376644Y-98771935D01*
X153471882Y-98771935D01*
X153614739Y-98819555D01*
X153662358Y-98867174D01*
X154614739Y-99771935D02*
X154043311Y-99771935D01*
X154329025Y-99771935D02*
X154329025Y-98771935D01*
X154233787Y-98914793D01*
X154138549Y-99010031D01*
X154043311Y-99057650D01*
X155233787Y-98771935D02*
X155329025Y-98771935D01*
X155424263Y-98819555D01*
X155471882Y-98867174D01*
X155519501Y-98962412D01*
X155567120Y-99152888D01*
X155567120Y-99390983D01*
X155519501Y-99581459D01*
X155471882Y-99676697D01*
X155424263Y-99724316D01*
X155329025Y-99771935D01*
X155233787Y-99771935D01*
X155138549Y-99724316D01*
X155090930Y-99676697D01*
X155043311Y-99581459D01*
X154995692Y-99390983D01*
X154995692Y-99152888D01*
X155043311Y-98962412D01*
X155090930Y-98867174D01*
X155138549Y-98819555D01*
X155233787Y-98771935D01*
%TO.C,C9*%
X153654311Y-97142174D02*
X153606692Y-97189793D01*
X153463835Y-97237412D01*
X153368597Y-97237412D01*
X153225739Y-97189793D01*
X153130501Y-97094555D01*
X153082882Y-96999317D01*
X153035263Y-96808841D01*
X153035263Y-96665984D01*
X153082882Y-96475508D01*
X153130501Y-96380270D01*
X153225739Y-96285032D01*
X153368597Y-96237412D01*
X153463835Y-96237412D01*
X153606692Y-96285032D01*
X153654311Y-96332651D01*
X154130501Y-97237412D02*
X154320978Y-97237412D01*
X154416216Y-97189793D01*
X154463835Y-97142174D01*
X154559073Y-96999317D01*
X154606692Y-96808841D01*
X154606692Y-96427889D01*
X154559073Y-96332651D01*
X154511454Y-96285032D01*
X154416216Y-96237412D01*
X154225739Y-96237412D01*
X154130501Y-96285032D01*
X154082882Y-96332651D01*
X154035263Y-96427889D01*
X154035263Y-96665984D01*
X154082882Y-96761222D01*
X154130501Y-96808841D01*
X154225739Y-96856460D01*
X154416216Y-96856460D01*
X154511454Y-96808841D01*
X154559073Y-96761222D01*
X154606692Y-96665984D01*
%TO.C,C8*%
X145594429Y-100473375D02*
X145642048Y-100520994D01*
X145689667Y-100663851D01*
X145689667Y-100759089D01*
X145642048Y-100901947D01*
X145546810Y-100997185D01*
X145451572Y-101044804D01*
X145261096Y-101092423D01*
X145118239Y-101092423D01*
X144927763Y-101044804D01*
X144832525Y-100997185D01*
X144737287Y-100901947D01*
X144689667Y-100759089D01*
X144689667Y-100663851D01*
X144737287Y-100520994D01*
X144784906Y-100473375D01*
X145118239Y-99901947D02*
X145070620Y-99997185D01*
X145023001Y-100044804D01*
X144927763Y-100092423D01*
X144880144Y-100092423D01*
X144784906Y-100044804D01*
X144737287Y-99997185D01*
X144689667Y-99901947D01*
X144689667Y-99711470D01*
X144737287Y-99616232D01*
X144784906Y-99568613D01*
X144880144Y-99520994D01*
X144927763Y-99520994D01*
X145023001Y-99568613D01*
X145070620Y-99616232D01*
X145118239Y-99711470D01*
X145118239Y-99901947D01*
X145165858Y-99997185D01*
X145213477Y-100044804D01*
X145308715Y-100092423D01*
X145499191Y-100092423D01*
X145594429Y-100044804D01*
X145642048Y-99997185D01*
X145689667Y-99901947D01*
X145689667Y-99711470D01*
X145642048Y-99616232D01*
X145594429Y-99568613D01*
X145499191Y-99520994D01*
X145308715Y-99520994D01*
X145213477Y-99568613D01*
X145165858Y-99616232D01*
X145118239Y-99711470D01*
%TO.C,C7*%
X130653461Y-98981465D02*
X130605842Y-99029084D01*
X130462985Y-99076703D01*
X130367747Y-99076703D01*
X130224889Y-99029084D01*
X130129651Y-98933846D01*
X130082032Y-98838608D01*
X130034413Y-98648132D01*
X130034413Y-98505275D01*
X130082032Y-98314799D01*
X130129651Y-98219561D01*
X130224889Y-98124323D01*
X130367747Y-98076703D01*
X130462985Y-98076703D01*
X130605842Y-98124323D01*
X130653461Y-98171942D01*
X130986794Y-98076703D02*
X131653461Y-98076703D01*
X131224889Y-99076703D01*
%TO.C,C6*%
X184999333Y-71477142D02*
X184951714Y-71524761D01*
X184808857Y-71572380D01*
X184713619Y-71572380D01*
X184570761Y-71524761D01*
X184475523Y-71429523D01*
X184427904Y-71334285D01*
X184380285Y-71143809D01*
X184380285Y-71000952D01*
X184427904Y-70810476D01*
X184475523Y-70715238D01*
X184570761Y-70620000D01*
X184713619Y-70572380D01*
X184808857Y-70572380D01*
X184951714Y-70620000D01*
X184999333Y-70667619D01*
X185856476Y-70572380D02*
X185666000Y-70572380D01*
X185570761Y-70620000D01*
X185523142Y-70667619D01*
X185427904Y-70810476D01*
X185380285Y-71000952D01*
X185380285Y-71381904D01*
X185427904Y-71477142D01*
X185475523Y-71524761D01*
X185570761Y-71572380D01*
X185761238Y-71572380D01*
X185856476Y-71524761D01*
X185904095Y-71477142D01*
X185951714Y-71381904D01*
X185951714Y-71143809D01*
X185904095Y-71048571D01*
X185856476Y-71000952D01*
X185761238Y-70953333D01*
X185570761Y-70953333D01*
X185475523Y-71000952D01*
X185427904Y-71048571D01*
X185380285Y-71143809D01*
%TO.C,C5*%
X187793333Y-75526417D02*
X187745714Y-75574036D01*
X187602857Y-75621655D01*
X187507619Y-75621655D01*
X187364761Y-75574036D01*
X187269523Y-75478798D01*
X187221904Y-75383560D01*
X187174285Y-75193084D01*
X187174285Y-75050227D01*
X187221904Y-74859751D01*
X187269523Y-74764513D01*
X187364761Y-74669275D01*
X187507619Y-74621655D01*
X187602857Y-74621655D01*
X187745714Y-74669275D01*
X187793333Y-74716894D01*
X188698095Y-74621655D02*
X188221904Y-74621655D01*
X188174285Y-75097846D01*
X188221904Y-75050227D01*
X188317142Y-75002608D01*
X188555238Y-75002608D01*
X188650476Y-75050227D01*
X188698095Y-75097846D01*
X188745714Y-75193084D01*
X188745714Y-75431179D01*
X188698095Y-75526417D01*
X188650476Y-75574036D01*
X188555238Y-75621655D01*
X188317142Y-75621655D01*
X188221904Y-75574036D01*
X188174285Y-75526417D01*
%TO.C,C4*%
X138093334Y-71121690D02*
X138045715Y-71169309D01*
X137902858Y-71216928D01*
X137807620Y-71216928D01*
X137664762Y-71169309D01*
X137569524Y-71074071D01*
X137521905Y-70978833D01*
X137474286Y-70788357D01*
X137474286Y-70645500D01*
X137521905Y-70455024D01*
X137569524Y-70359786D01*
X137664762Y-70264548D01*
X137807620Y-70216928D01*
X137902858Y-70216928D01*
X138045715Y-70264548D01*
X138093334Y-70312167D01*
X138950477Y-70550262D02*
X138950477Y-71216928D01*
X138712381Y-70169309D02*
X138474286Y-70883595D01*
X139093334Y-70883595D01*
%TO.C,C3*%
X125563333Y-78687142D02*
X125515714Y-78734761D01*
X125372857Y-78782380D01*
X125277619Y-78782380D01*
X125134761Y-78734761D01*
X125039523Y-78639523D01*
X124991904Y-78544285D01*
X124944285Y-78353809D01*
X124944285Y-78210952D01*
X124991904Y-78020476D01*
X125039523Y-77925238D01*
X125134761Y-77830000D01*
X125277619Y-77782380D01*
X125372857Y-77782380D01*
X125515714Y-77830000D01*
X125563333Y-77877619D01*
X125896666Y-77782380D02*
X126515714Y-77782380D01*
X126182380Y-78163333D01*
X126325238Y-78163333D01*
X126420476Y-78210952D01*
X126468095Y-78258571D01*
X126515714Y-78353809D01*
X126515714Y-78591904D01*
X126468095Y-78687142D01*
X126420476Y-78734761D01*
X126325238Y-78782380D01*
X126039523Y-78782380D01*
X125944285Y-78734761D01*
X125896666Y-78687142D01*
%TO.C,C2*%
X178649333Y-76049142D02*
X178601714Y-76096761D01*
X178458857Y-76144380D01*
X178363619Y-76144380D01*
X178220761Y-76096761D01*
X178125523Y-76001523D01*
X178077904Y-75906285D01*
X178030285Y-75715809D01*
X178030285Y-75572952D01*
X178077904Y-75382476D01*
X178125523Y-75287238D01*
X178220761Y-75192000D01*
X178363619Y-75144380D01*
X178458857Y-75144380D01*
X178601714Y-75192000D01*
X178649333Y-75239619D01*
X179030285Y-75239619D02*
X179077904Y-75192000D01*
X179173142Y-75144380D01*
X179411238Y-75144380D01*
X179506476Y-75192000D01*
X179554095Y-75239619D01*
X179601714Y-75334857D01*
X179601714Y-75430095D01*
X179554095Y-75572952D01*
X178982666Y-76144380D01*
X179601714Y-76144380D01*
%TO.C,C1*%
X134453333Y-71067142D02*
X134405714Y-71114761D01*
X134262857Y-71162380D01*
X134167619Y-71162380D01*
X134024761Y-71114761D01*
X133929523Y-71019523D01*
X133881904Y-70924285D01*
X133834285Y-70733809D01*
X133834285Y-70590952D01*
X133881904Y-70400476D01*
X133929523Y-70305238D01*
X134024761Y-70210000D01*
X134167619Y-70162380D01*
X134262857Y-70162380D01*
X134405714Y-70210000D01*
X134453333Y-70257619D01*
X135405714Y-71162380D02*
X134834285Y-71162380D01*
X135120000Y-71162380D02*
X135120000Y-70162380D01*
X135024761Y-70305238D01*
X134929523Y-70400476D01*
X134834285Y-70448095D01*
%TD*%
M02*
